<svg width="137" height="34" viewBox="0 0 137 34" fill="none" xmlns="http://www.w3.org/2000/svg">
<path d="M50.208 14C49.92 14 49.696 13.9253 49.536 13.776C49.3867 13.616 49.312 13.392 49.312 13.104V3.616C49.312 3.328 49.3867 3.10933 49.536 2.96C49.696 2.8 49.92 2.72 50.208 2.72H54.016C54.7947 2.72 55.456 2.83733 56 3.072C56.5547 3.30667 56.976 3.64267 57.264 4.08C57.5627 4.51733 57.712 5.04533 57.712 5.664C57.712 6.34667 57.5093 6.92267 57.104 7.392C56.6987 7.86133 56.1493 8.176 55.456 8.336V8.096C56.2453 8.20267 56.864 8.50133 57.312 8.992C57.76 9.472 57.984 10.1013 57.984 10.88C57.984 11.8827 57.6533 12.656 56.992 13.2C56.3307 13.7333 55.4027 14 54.208 14H50.208ZM50.912 12.72H54.016C54.816 12.72 55.408 12.5653 55.792 12.256C56.176 11.936 56.368 11.456 56.368 10.816C56.368 10.176 56.176 9.70133 55.792 9.392C55.408 9.08267 54.816 8.928 54.016 8.928H50.912V12.72ZM50.912 7.648H53.76C54.528 7.648 55.1093 7.49333 55.504 7.184C55.8987 6.87467 56.096 6.42133 56.096 5.824C56.096 5.22667 55.8987 4.77333 55.504 4.464C55.1093 4.15467 54.528 4 53.76 4H50.912V7.648ZM63.5783 14.144C62.7783 14.144 62.0849 13.9787 61.4983 13.648C60.9223 13.3067 60.4743 12.832 60.1543 12.224C59.8343 11.6053 59.6743 10.88 59.6743 10.048C59.6743 9.42933 59.7649 8.87467 59.9463 8.384C60.1276 7.88267 60.3836 7.46133 60.7143 7.12C61.0556 6.77867 61.4663 6.51733 61.9463 6.336C62.4369 6.144 62.9809 6.048 63.5783 6.048C63.9516 6.048 64.3409 6.10667 64.7463 6.224C65.1623 6.33067 65.5463 6.512 65.8983 6.768C66.0369 6.85333 66.1223 6.96 66.1543 7.088C66.1969 7.20533 66.2023 7.328 66.1703 7.456C66.1489 7.584 66.0903 7.696 65.9943 7.792C65.9089 7.87733 65.8023 7.93067 65.6743 7.952C65.5463 7.96267 65.4076 7.92533 65.2583 7.84C65.0023 7.65867 64.7409 7.53067 64.4743 7.456C64.2076 7.37067 63.9516 7.328 63.7063 7.328C63.3223 7.328 62.9809 7.392 62.6823 7.52C62.3943 7.63733 62.1489 7.81333 61.9463 8.048C61.7436 8.272 61.5889 8.55467 61.4823 8.896C61.3863 9.23733 61.3383 9.62667 61.3383 10.064C61.3383 10.9387 61.5409 11.6267 61.9463 12.128C62.3623 12.6187 62.9489 12.864 63.7063 12.864C63.9516 12.864 64.2076 12.8267 64.4743 12.752C64.7409 12.6773 65.0023 12.5493 65.2583 12.368C65.4076 12.2827 65.5463 12.2507 65.6743 12.272C65.8023 12.2933 65.9036 12.352 65.9783 12.448C66.0636 12.5333 66.1169 12.64 66.1383 12.768C66.1703 12.8853 66.1649 13.008 66.1223 13.136C66.0796 13.264 65.9889 13.3707 65.8503 13.456C65.5089 13.7013 65.1356 13.8773 64.7303 13.984C64.3356 14.0907 63.9516 14.144 63.5783 14.144ZM71.4585 14.144C70.6052 14.144 69.8692 13.984 69.2505 13.664C68.6425 13.3333 68.1678 12.8693 67.8265 12.272C67.4958 11.664 67.3305 10.944 67.3305 10.112C67.3305 9.30133 67.4958 8.592 67.8265 7.984C68.1572 7.376 68.6105 6.90133 69.1865 6.56C69.7625 6.21867 70.4185 6.048 71.1545 6.048C71.6985 6.048 72.1838 6.13867 72.6105 6.32C73.0372 6.49067 73.3998 6.74667 73.6985 7.088C74.0078 7.41867 74.2372 7.824 74.3865 8.304C74.5465 8.784 74.6265 9.32267 74.6265 9.92C74.6265 10.1013 74.5732 10.24 74.4665 10.336C74.3598 10.4213 74.1998 10.464 73.9865 10.464H68.6105V9.472H73.5385L73.2665 9.696C73.2665 9.16267 73.1865 8.70933 73.0265 8.336C72.8772 7.96267 72.6478 7.68 72.3385 7.488C72.0398 7.28533 71.6665 7.184 71.2185 7.184C70.7172 7.184 70.2905 7.30133 69.9385 7.536C69.5972 7.77067 69.3358 8.096 69.1545 8.512C68.9732 8.928 68.8825 9.41333 68.8825 9.968V10.064C68.8825 11.0027 69.1012 11.712 69.5385 12.192C69.9865 12.6613 70.6318 12.896 71.4745 12.896C71.7945 12.896 72.1305 12.8533 72.4825 12.768C72.8452 12.6827 73.1865 12.5387 73.5065 12.336C73.6878 12.2293 73.8478 12.1813 73.9865 12.192C74.1358 12.2027 74.2532 12.2507 74.3385 12.336C74.4345 12.4213 74.4932 12.528 74.5145 12.656C74.5358 12.784 74.5145 12.9173 74.4505 13.056C74.3865 13.184 74.2745 13.3013 74.1145 13.408C73.7518 13.6533 73.3305 13.84 72.8505 13.968C72.3705 14.0853 71.9065 14.144 71.4585 14.144ZM51.072 33.992C50.88 33.992 50.72 33.9387 50.592 33.832C50.4747 33.736 50.4053 33.6027 50.384 33.432C50.3733 33.272 50.4053 33.096 50.48 32.904L51.568 30.456V31.144L48.576 24.184C48.5013 23.992 48.4747 23.8107 48.496 23.64C48.5173 23.4693 48.5973 23.336 48.736 23.24C48.8747 23.1333 49.0613 23.08 49.296 23.08C49.4987 23.08 49.6587 23.128 49.776 23.224C49.8933 23.32 50 23.4853 50.096 23.72L52.512 29.688H52.064L54.512 23.72C54.608 23.4747 54.72 23.3093 54.848 23.224C54.976 23.128 55.152 23.08 55.376 23.08C55.568 23.08 55.7173 23.1333 55.824 23.24C55.9413 23.336 56.0107 23.4693 56.032 23.64C56.064 23.8 56.0373 23.976 55.952 24.168L51.952 33.368C51.8453 33.6133 51.7227 33.7787 51.584 33.864C51.456 33.9493 51.2853 33.992 51.072 33.992ZM61.0626 31.144C60.2626 31.144 59.5693 30.9787 58.9826 30.648C58.4066 30.3067 57.9586 29.832 57.6386 29.224C57.3186 28.6053 57.1586 27.88 57.1586 27.048C57.1586 26.4293 57.2493 25.8747 57.4306 25.384C57.612 24.8827 57.868 24.4613 58.1986 24.12C58.54 23.7787 58.9506 23.5173 59.4306 23.336C59.9213 23.144 60.4653 23.048 61.0626 23.048C61.436 23.048 61.8253 23.1067 62.2306 23.224C62.6466 23.3307 63.0306 23.512 63.3826 23.768C63.5213 23.8533 63.6066 23.96 63.6386 24.088C63.6813 24.2053 63.6866 24.328 63.6546 24.456C63.6333 24.584 63.5746 24.696 63.4786 24.792C63.3933 24.8773 63.2866 24.9307 63.1586 24.952C63.0306 24.9627 62.892 24.9253 62.7426 24.84C62.4866 24.6587 62.2253 24.5307 61.9586 24.456C61.692 24.3707 61.436 24.328 61.1906 24.328C60.8066 24.328 60.4653 24.392 60.1666 24.52C59.8786 24.6373 59.6333 24.8133 59.4306 25.048C59.228 25.272 59.0733 25.5547 58.9666 25.896C58.8706 26.2373 58.8226 26.6267 58.8226 27.064C58.8226 27.9387 59.0253 28.6267 59.4306 29.128C59.8466 29.6187 60.4333 29.864 61.1906 29.864C61.436 29.864 61.692 29.8267 61.9586 29.752C62.2253 29.6773 62.4866 29.5493 62.7426 29.368C62.892 29.2827 63.0306 29.2507 63.1586 29.272C63.2866 29.2933 63.388 29.352 63.4626 29.448C63.548 29.5333 63.6013 29.64 63.6226 29.768C63.6546 29.8853 63.6493 30.008 63.6066 30.136C63.564 30.264 63.4733 30.3707 63.3346 30.456C62.9933 30.7013 62.62 30.8773 62.2146 30.984C61.82 31.0907 61.436 31.144 61.0626 31.144ZM67.7109 31.112C67.4549 31.112 67.2522 31.0427 67.1029 30.904C66.9642 30.7547 66.8949 30.552 66.8949 30.296V24.488H64.7189C64.2495 24.488 64.0149 24.2693 64.0149 23.832C64.0149 23.64 64.0789 23.4853 64.2069 23.368C64.3349 23.2507 64.5055 23.192 64.7189 23.192H70.6869C71.1562 23.192 71.3909 23.4053 71.3909 23.832C71.3909 24.0453 71.3269 24.2107 71.1989 24.328C71.0815 24.4347 70.9109 24.488 70.6869 24.488H68.5109V30.296C68.5109 30.552 68.4415 30.7547 68.3029 30.904C68.1749 31.0427 67.9775 31.112 67.7109 31.112ZM73.3914 33.992C73.1354 33.992 72.938 33.9227 72.7994 33.784C72.6607 33.6453 72.5914 33.4427 72.5914 33.176V23.896C72.5914 23.6293 72.6607 23.4267 72.7994 23.288C72.938 23.1493 73.13 23.08 73.3754 23.08C73.6314 23.08 73.8287 23.1493 73.9674 23.288C74.106 23.4267 74.1754 23.6293 74.1754 23.896V25.288L73.9994 24.952C74.17 24.376 74.506 23.9173 75.0074 23.576C75.5087 23.224 76.1007 23.048 76.7834 23.048C77.4767 23.048 78.0794 23.2133 78.5914 23.544C79.114 23.8747 79.514 24.3387 79.7914 24.936C80.0794 25.5333 80.2234 26.2533 80.2234 27.096C80.2234 27.9173 80.0794 28.6373 79.7914 29.256C79.514 29.864 79.1194 30.3333 78.6074 30.664C78.0954 30.984 77.4874 31.144 76.7834 31.144C76.1114 31.144 75.5247 30.9733 75.0234 30.632C74.522 30.2907 74.186 29.8373 74.0154 29.272H74.2074V33.176C74.2074 33.4427 74.1327 33.6453 73.9834 33.784C73.8447 33.9227 73.6474 33.992 73.3914 33.992ZM76.3834 29.896C76.8314 29.896 77.2207 29.7893 77.5514 29.576C77.882 29.3627 78.138 29.048 78.3194 28.632C78.5007 28.216 78.5914 27.704 78.5914 27.096C78.5914 26.1787 78.3887 25.4853 77.9834 25.016C77.5887 24.5467 77.0554 24.312 76.3834 24.312C75.946 24.312 75.5567 24.4187 75.2154 24.632C74.8847 24.8347 74.6287 25.144 74.4474 25.56C74.266 25.976 74.1754 26.488 74.1754 27.096C74.1754 28.0027 74.378 28.696 74.7834 29.176C75.1887 29.656 75.722 29.896 76.3834 29.896ZM85.6084 31.144C84.819 31.144 84.1364 30.9787 83.5604 30.648C82.995 30.3173 82.5524 29.848 82.2324 29.24C81.9124 28.632 81.7524 27.9173 81.7524 27.096C81.7524 26.4667 81.843 25.9067 82.0244 25.416C82.2057 24.9253 82.4617 24.504 82.7924 24.152C83.1337 23.7893 83.539 23.5173 84.0084 23.336C84.4884 23.144 85.0217 23.048 85.6084 23.048C86.387 23.048 87.059 23.2133 87.6244 23.544C88.2004 23.8747 88.6484 24.344 88.9684 24.952C89.2884 25.5493 89.4484 26.264 89.4484 27.096C89.4484 27.7147 89.3577 28.2747 89.1764 28.776C88.995 29.2773 88.7337 29.704 88.3924 30.056C88.0617 30.408 87.6564 30.68 87.1764 30.872C86.707 31.0533 86.1844 31.144 85.6084 31.144ZM85.6084 29.896C86.0457 29.896 86.4297 29.7893 86.7604 29.576C87.091 29.3627 87.347 29.048 87.5284 28.632C87.7204 28.216 87.8164 27.704 87.8164 27.096C87.8164 26.1787 87.6137 25.4853 87.2084 25.016C86.803 24.5467 86.2697 24.312 85.6084 24.312C85.1604 24.312 84.771 24.4187 84.4404 24.632C84.1097 24.8347 83.8484 25.144 83.6564 25.56C83.475 25.976 83.3844 26.488 83.3844 27.096C83.3844 28.0027 83.587 28.696 83.9924 29.176C84.3977 29.656 84.9364 29.896 85.6084 29.896ZM92.1868 31.112C92.0268 31.112 91.8881 31.08 91.7708 31.016C91.6641 30.9627 91.5788 30.872 91.5148 30.744C91.4614 30.616 91.4348 30.4507 91.4348 30.248V23.864C91.4348 23.608 91.4988 23.416 91.6268 23.288C91.7548 23.1493 91.9361 23.08 92.1708 23.08C92.4054 23.08 92.5868 23.1493 92.7148 23.288C92.8428 23.416 92.9068 23.608 92.9068 23.864V29.4H92.4908L96.8268 23.608C96.9334 23.4693 97.0561 23.3467 97.1948 23.24C97.3334 23.1333 97.5201 23.08 97.7548 23.08C97.9148 23.08 98.0481 23.112 98.1548 23.176C98.2614 23.2293 98.3414 23.32 98.3948 23.448C98.4588 23.576 98.4908 23.7413 98.4908 23.944V30.328C98.4908 30.5733 98.4268 30.7653 98.2987 30.904C98.1814 31.0427 98.0054 31.112 97.7708 31.112C97.5254 31.112 97.3388 31.0427 97.2108 30.904C97.0828 30.7653 97.0188 30.5733 97.0188 30.328V24.792H97.4508L93.0988 30.6C93.0028 30.728 92.8854 30.8453 92.7468 30.952C92.6188 31.0587 92.4321 31.112 92.1868 31.112ZM94.9708 22.2C94.3628 22.2 93.8134 22.056 93.3228 21.768C92.8428 21.4693 92.4961 21.032 92.2828 20.456C92.2188 20.2747 92.2081 20.1307 92.2508 20.024C92.3041 19.9067 92.4001 19.8213 92.5388 19.768C92.6774 19.7253 92.8001 19.7307 92.9068 19.784C93.0134 19.8373 93.1094 19.9493 93.1948 20.12C93.3761 20.4933 93.6108 20.776 93.8988 20.968C94.1974 21.16 94.5548 21.256 94.9708 21.256C95.3868 21.256 95.7388 21.16 96.0268 20.968C96.3254 20.776 96.5654 20.4933 96.7468 20.12C96.8321 19.9493 96.9281 19.8373 97.0348 19.784C97.1414 19.7307 97.2641 19.7253 97.4028 19.768C97.5414 19.8213 97.6321 19.9067 97.6748 20.024C97.7281 20.1307 97.7174 20.2747 97.6428 20.456C97.3868 21.032 97.0294 21.4693 96.5708 21.768C96.1121 22.056 95.5788 22.2 94.9708 22.2ZM104.375 31.144C103.575 31.144 102.882 30.9787 102.295 30.648C101.719 30.3067 101.271 29.832 100.951 29.224C100.631 28.6053 100.471 27.88 100.471 27.048C100.471 26.4293 100.562 25.8747 100.743 25.384C100.924 24.8827 101.18 24.4613 101.511 24.12C101.852 23.7787 102.263 23.5173 102.743 23.336C103.234 23.144 103.778 23.048 104.375 23.048C104.748 23.048 105.138 23.1067 105.543 23.224C105.959 23.3307 106.343 23.512 106.695 23.768C106.834 23.8533 106.919 23.96 106.951 24.088C106.994 24.2053 106.999 24.328 106.967 24.456C106.946 24.584 106.887 24.696 106.791 24.792C106.706 24.8773 106.599 24.9307 106.471 24.952C106.343 24.9627 106.204 24.9253 106.055 24.84C105.799 24.6587 105.538 24.5307 105.271 24.456C105.004 24.3707 104.748 24.328 104.503 24.328C104.119 24.328 103.778 24.392 103.479 24.52C103.191 24.6373 102.946 24.8133 102.743 25.048C102.54 25.272 102.386 25.5547 102.279 25.896C102.183 26.2373 102.135 26.6267 102.135 27.064C102.135 27.9387 102.338 28.6267 102.743 29.128C103.159 29.6187 103.746 29.864 104.503 29.864C104.748 29.864 105.004 29.8267 105.271 29.752C105.538 29.6773 105.799 29.5493 106.055 29.368C106.204 29.2827 106.343 29.2507 106.471 29.272C106.599 29.2933 106.7 29.352 106.775 29.448C106.86 29.5333 106.914 29.64 106.935 29.768C106.967 29.8853 106.962 30.008 106.919 30.136C106.876 30.264 106.786 30.3707 106.647 30.456C106.306 30.7013 105.932 30.8773 105.527 30.984C105.132 31.0907 104.748 31.144 104.375 31.144ZM111.023 31.112C110.767 31.112 110.565 31.0427 110.415 30.904C110.277 30.7547 110.207 30.552 110.207 30.296V24.488H108.031C107.562 24.488 107.327 24.2693 107.327 23.832C107.327 23.64 107.391 23.4853 107.519 23.368C107.647 23.2507 107.818 23.192 108.031 23.192H113.999C114.469 23.192 114.703 23.4053 114.703 23.832C114.703 24.0453 114.639 24.2107 114.511 24.328C114.394 24.4347 114.223 24.488 113.999 24.488H111.823V30.296C111.823 30.552 111.754 30.7547 111.615 30.904C111.487 31.0427 111.29 31.112 111.023 31.112ZM116.704 31C116.437 31 116.235 30.9307 116.096 30.792C115.957 30.6427 115.888 30.44 115.888 30.184V24.024C115.888 23.7573 115.957 23.5547 116.096 23.416C116.235 23.2667 116.437 23.192 116.704 23.192H119.872C120.512 23.192 121.035 23.272 121.44 23.432C121.856 23.592 122.16 23.8267 122.352 24.136C122.544 24.4347 122.64 24.8027 122.64 25.24C122.64 25.7413 122.469 26.1627 122.128 26.504C121.787 26.8347 121.339 27.032 120.784 27.096V26.888C121.456 26.92 121.973 27.112 122.336 27.464C122.709 27.816 122.896 28.2693 122.896 28.824C122.896 29.496 122.645 30.0293 122.144 30.424C121.643 30.808 120.928 31 120 31H116.704ZM117.408 29.96H119.904C120.384 29.96 120.752 29.8587 121.008 29.656C121.275 29.4427 121.408 29.1387 121.408 28.744C121.408 28.3493 121.275 28.0507 121.008 27.848C120.752 27.6453 120.384 27.544 119.904 27.544H117.408V29.96ZM117.408 26.504H119.76C120.197 26.504 120.533 26.4027 120.768 26.2C121.013 25.9973 121.136 25.72 121.136 25.368C121.136 25.0053 121.013 24.728 120.768 24.536C120.533 24.344 120.197 24.248 119.76 24.248H117.408V26.504ZM127.291 31.144C126.747 31.144 126.256 31.0373 125.819 30.824C125.392 30.6107 125.056 30.3227 124.811 29.96C124.565 29.5973 124.443 29.1867 124.443 28.728C124.443 28.152 124.587 27.6987 124.875 27.368C125.173 27.0267 125.659 26.7867 126.331 26.648C127.013 26.4987 127.931 26.424 129.083 26.424H129.835V27.416H129.099C128.331 27.416 127.723 27.4533 127.275 27.528C126.827 27.6027 126.507 27.7307 126.315 27.912C126.133 28.0827 126.043 28.3227 126.043 28.632C126.043 29.0373 126.181 29.368 126.459 29.624C126.736 29.8693 127.12 29.992 127.611 29.992C128.005 29.992 128.352 29.9013 128.651 29.72C128.949 29.528 129.184 29.272 129.355 28.952C129.536 28.632 129.627 28.264 129.627 27.848V26.008C129.627 25.4 129.499 24.9627 129.243 24.696C128.987 24.4293 128.565 24.296 127.979 24.296C127.637 24.296 127.28 24.3387 126.907 24.424C126.544 24.5093 126.165 24.6533 125.771 24.856C125.589 24.9413 125.435 24.968 125.307 24.936C125.179 24.904 125.077 24.8347 125.003 24.728C124.928 24.6107 124.885 24.488 124.875 24.36C124.875 24.2213 124.907 24.088 124.971 23.96C125.045 23.832 125.168 23.736 125.339 23.672C125.808 23.448 126.272 23.288 126.731 23.192C127.189 23.096 127.621 23.048 128.027 23.048C128.741 23.048 129.328 23.16 129.787 23.384C130.256 23.608 130.603 23.9493 130.827 24.408C131.051 24.8667 131.163 25.4587 131.163 26.184V30.296C131.163 30.552 131.099 30.7547 130.971 30.904C130.843 31.0427 130.656 31.112 130.411 31.112C130.176 31.112 129.989 31.0427 129.851 30.904C129.712 30.7547 129.643 30.552 129.643 30.296V29.256H129.787C129.701 29.6507 129.541 29.992 129.307 30.28C129.083 30.5573 128.8 30.7707 128.459 30.92C128.117 31.0693 127.728 31.144 127.291 31.144Z" fill="#F7F9FF"/>
<rect x="9" y="3" width="29" height="18" rx="3" fill="#F7F9FF"/>
<rect x="14" y="23" width="19" height="2" rx="1" fill="#F7F9FF"/>
<rect x="21" y="29" width="20" height="9" rx="3" transform="rotate(-180 21 29)" fill="#F7F9FF" stroke="#0D143B" stroke-width="2"/>
<ellipse cx="5.5" cy="24.5" rx="1.5" ry="1.5" transform="rotate(90 5.5 24.5)" fill="#0D143B"/>
</svg>
