<svg width="100" height="32" viewBox="0 0 100 32" fill="none" xmlns="http://www.w3.org/2000/svg">
<path d="M18.6232 16.2157C18.6506 14.0805 19.7701 12.1084 21.589 10.9901C20.4363 9.34382 18.5748 8.33743 16.5659 8.27451C14.4526 8.05277 12.4036 9.53912 11.3267 9.53912C10.2289 9.53912 8.57079 8.29659 6.78525 8.33331C4.43588 8.40917 2.29886 9.71257 1.15587 11.7665C-1.27819 15.9806 0.537347 22.174 2.86898 25.5804C4.03554 27.2484 5.3989 29.1116 7.18283 29.0456C8.92856 28.9732 9.58049 27.9324 11.6876 27.9324C13.7753 27.9324 14.387 29.0456 16.2071 29.0036C18.0804 28.9732 19.2606 27.3282 20.3862 25.6443C21.2244 24.4558 21.8693 23.1422 22.2972 21.7522C20.0723 20.8113 18.6258 18.6312 18.6232 16.2157Z" fill="#F7F9FF"/>
<path d="M15.1855 6.03377C16.2069 4.80771 16.7101 3.23173 16.5882 1.64062C15.0279 1.80451 13.5865 2.55028 12.5513 3.72933C11.5291 4.8926 11.0114 6.41453 11.1119 7.95981C12.6933 7.97605 14.1946 7.26623 15.1855 6.03377Z" fill="#F7F9FF"/>
<path fill-rule="evenodd" clip-rule="evenodd" d="M31.6835 25.4436H36.1798L37.2586 28.6319H39.1956L34.9368 16.8359H32.9581L28.6992 28.6319H30.6037L31.6835 25.4436ZM35.7132 23.9724H32.1491L33.9071 18.7979H33.9563L35.7132 23.9724Z" fill="#F7F9FF"/>
<path fill-rule="evenodd" clip-rule="evenodd" d="M44.8041 28.7212C46.9627 28.7212 48.3932 27.0042 48.3932 24.3316C48.3932 21.6665 46.9543 19.941 44.7716 19.941C43.6485 19.9049 42.5963 20.489 42.0332 21.4615H42.0007V20.031H40.292V31.4763H42.0573V27.2166H42.0981C42.6373 28.1952 43.6884 28.7796 44.8041 28.7212ZM44.306 21.4457C45.6789 21.4457 46.5787 22.5904 46.5787 24.3316C46.5787 26.0886 45.6789 27.225 44.306 27.225C42.9572 27.225 42.0499 26.0644 42.0499 24.3316C42.0499 22.6145 42.9572 21.4457 44.306 21.4457Z" fill="#F7F9FF"/>
<path fill-rule="evenodd" clip-rule="evenodd" d="M54.27 28.7212C56.4286 28.7212 57.859 27.0042 57.859 24.3316C57.859 21.6665 56.4202 19.941 54.2374 19.941C53.1143 19.9049 52.0621 20.489 51.499 21.4615H51.4665V20.031H49.7578V31.4763H51.5232V27.2166H51.564C52.1031 28.1952 53.1542 28.7796 54.27 28.7212ZM53.7718 21.4457C55.1447 21.4457 56.0445 22.5904 56.0445 24.3316C56.0445 26.0886 55.1447 27.225 53.7718 27.225C52.423 27.225 51.5158 26.0644 51.5158 24.3316C51.5158 22.6145 52.423 21.4457 53.7718 21.4457Z" fill="#F7F9FF"/>
<path d="M64.1147 25.3447C64.2455 26.5145 65.3819 27.2825 66.9348 27.2825C68.4227 27.2825 69.4933 26.5145 69.4933 25.4597C69.4933 24.5441 68.8476 23.9959 67.3188 23.6202L65.7901 23.252C63.624 22.7287 62.6184 21.7157 62.6184 20.0719C62.6184 18.0367 64.3921 16.6387 66.9106 16.6387C69.4032 16.6387 71.112 18.0367 71.1695 20.0719H69.3875C69.2808 18.8947 68.3077 18.1842 66.8856 18.1842C65.4635 18.1842 64.4904 18.9031 64.4904 19.9495C64.4904 20.7835 65.1119 21.2742 66.6324 21.6498L67.932 21.969C70.3522 22.5413 71.3578 23.5135 71.3578 25.2389C71.3578 27.4458 69.5999 28.8279 66.804 28.8279C64.188 28.8279 62.4218 27.4783 62.3076 25.3446L64.1147 25.3447Z" fill="#F7F9FF"/>
<path d="M75.1677 17.9961V20.0313H76.8031V21.4293H75.1677V26.1705C75.1677 26.907 75.4952 27.2503 76.2141 27.2503C76.4082 27.2469 76.6021 27.2333 76.7948 27.2095V28.5991C76.4715 28.6595 76.143 28.6868 75.8143 28.6807C74.0731 28.6807 73.394 28.0267 73.394 26.3588V21.4293H72.1436V20.0313H73.394V17.9961H75.1677Z" fill="#F7F9FF"/>
<path fill-rule="evenodd" clip-rule="evenodd" d="M81.8289 19.9258C79.3437 19.9258 77.75 21.6261 77.75 24.3321C77.75 27.0455 79.3279 28.7384 81.8289 28.7384C84.3307 28.7384 85.9085 27.0455 85.9085 24.3321C85.9085 21.6261 84.3221 19.9258 81.8289 19.9258ZM81.8289 21.3803C83.2591 21.3803 84.1097 22.4759 84.1097 24.3321C84.1097 26.1957 83.2591 27.2829 81.8289 27.2829C80.3984 27.2829 79.5487 26.1957 79.5487 24.3321C79.5487 22.4842 80.3984 21.3803 81.8289 21.3803Z" fill="#F7F9FF"/>
<path d="M87.3643 20.0309H89.0473V21.4948H89.0888C89.3237 20.5524 90.1864 19.9039 91.157 19.941C91.3608 19.9403 91.5637 19.9624 91.7624 20.0069V21.6581C91.505 21.5796 91.2373 21.5435 90.9687 21.5514C90.4497 21.5303 89.9472 21.7372 89.594 22.1176C89.2399 22.498 89.0706 23.0139 89.1294 23.5301V28.6312H87.3643V20.0309Z" fill="#F7F9FF"/>
<path fill-rule="evenodd" clip-rule="evenodd" d="M96.198 28.7384C98.1435 28.7384 99.6643 27.667 99.9017 26.1057H98.2256C97.9035 26.9037 97.0961 27.3956 96.2394 27.3154C95.5969 27.3391 94.9752 27.0856 94.533 26.6195C94.09 26.1534 93.8689 25.5196 93.9259 24.8794V24.7727H100V24.1679C100 21.5602 98.5036 19.9258 96.1245 19.9258C93.7049 19.9258 92.1436 21.6753 92.1436 24.3729C92.1436 27.0621 93.6962 28.7384 96.198 28.7384ZM98.2334 23.5389L93.9337 23.539C93.9328 22.9583 94.1634 22.4011 94.5745 21.9912C94.9855 21.5813 95.5434 21.3527 96.1245 21.3562C96.7005 21.3438 97.2549 21.5723 97.6556 21.9867C98.0563 22.401 98.2653 22.9636 98.2334 23.5389Z" fill="#F7F9FF"/>
<path opacity="0.4" d="M33.61 10.07C33.49 10.07 33.3867 10.04 33.3 9.98C33.2133 9.92 33.16 9.83667 33.14 9.73C33.1267 9.62333 33.1533 9.50333 33.22 9.37L34.09 7.68V8.04L31.31 3.58C31.2433 3.45333 31.2133 3.33667 31.22 3.23C31.2333 3.12333 31.2833 3.04 31.37 2.98C31.4567 2.91333 31.5633 2.88 31.69 2.88C31.8233 2.88 31.9267 2.91333 32 2.98C32.0733 3.04 32.1467 3.12667 32.22 3.24L34.59 7.1H34.39L36.36 3.25C36.42 3.14333 36.4867 3.05667 36.56 2.99C36.6333 2.91667 36.74 2.88 36.88 2.88C37 2.88 37.1 2.91 37.18 2.97C37.2667 3.03 37.32 3.11333 37.34 3.22C37.3667 3.32 37.34 3.44 37.26 3.58L34.13 9.7C34.0833 9.8 34.02 9.88667 33.94 9.96C33.86 10.0333 33.75 10.07 33.61 10.07ZM39.7989 10.09C39.2989 10.09 38.8656 9.98667 38.4989 9.78C38.1389 9.56667 37.8589 9.27 37.6589 8.89C37.4589 8.50333 37.3589 8.05 37.3589 7.53C37.3589 7.14333 37.4156 6.79667 37.5289 6.49C37.6422 6.17667 37.8022 5.91333 38.0089 5.7C38.2222 5.48667 38.4789 5.32333 38.7789 5.21C39.0856 5.09 39.4256 5.03 39.7989 5.03C40.0322 5.03 40.2756 5.06667 40.5289 5.14C40.7889 5.20667 41.0289 5.32 41.2489 5.48C41.3356 5.53333 41.3889 5.6 41.4089 5.68C41.4356 5.75333 41.4389 5.83 41.4189 5.91C41.4056 5.99 41.3689 6.06 41.3089 6.12C41.2556 6.17333 41.1889 6.20667 41.1089 6.22C41.0289 6.22667 40.9422 6.20333 40.8489 6.15C40.6889 6.03667 40.5256 5.95667 40.3589 5.91C40.1922 5.85667 40.0322 5.83 39.8789 5.83C39.6389 5.83 39.4256 5.87 39.2389 5.95C39.0589 6.02333 38.9056 6.13333 38.7789 6.28C38.6522 6.42 38.5556 6.59667 38.4889 6.81C38.4289 7.02333 38.3989 7.26667 38.3989 7.54C38.3989 8.08667 38.5256 8.51667 38.7789 8.83C39.0389 9.13667 39.4056 9.29 39.8789 9.29C40.0322 9.29 40.1922 9.26667 40.3589 9.22C40.5256 9.17333 40.6889 9.09333 40.8489 8.98C40.9422 8.92667 41.0289 8.90667 41.1089 8.92C41.1889 8.93333 41.2522 8.97 41.2989 9.03C41.3522 9.08333 41.3856 9.15 41.3989 9.23C41.4189 9.30333 41.4156 9.38 41.3889 9.46C41.3622 9.54 41.3056 9.60667 41.2189 9.66C41.0056 9.81333 40.7722 9.92333 40.5189 9.99C40.2722 10.0567 40.0322 10.09 39.7989 10.09ZM43.9541 10.07C43.7941 10.07 43.6674 10.0267 43.5741 9.94C43.4874 9.84667 43.4441 9.72 43.4441 9.56V5.93H42.0841C41.7907 5.93 41.6441 5.79333 41.6441 5.52C41.6441 5.4 41.6841 5.30333 41.7641 5.23C41.8441 5.15667 41.9507 5.12 42.0841 5.12H45.8141C46.1074 5.12 46.2541 5.25333 46.2541 5.52C46.2541 5.65333 46.2141 5.75667 46.1341 5.83C46.0607 5.89667 45.9541 5.93 45.8141 5.93H44.4541V9.56C44.4541 9.72 44.4107 9.84667 44.3241 9.94C44.2441 10.0267 44.1207 10.07 43.9541 10.07ZM48.5644 10.09C48.2244 10.09 47.9177 10.0233 47.6444 9.89C47.3777 9.75667 47.1677 9.57667 47.0144 9.35C46.861 9.12333 46.7844 8.86667 46.7844 8.58C46.7844 8.22 46.8744 7.93667 47.0544 7.73C47.241 7.51667 47.5444 7.36667 47.9644 7.28C48.391 7.18667 48.9644 7.14 49.6844 7.14H50.1544V7.76H49.6944C49.2144 7.76 48.8344 7.78333 48.5544 7.83C48.2744 7.87667 48.0744 7.95667 47.9544 8.07C47.841 8.17667 47.7844 8.32667 47.7844 8.52C47.7844 8.77333 47.871 8.98 48.0444 9.14C48.2177 9.29333 48.4577 9.37 48.7644 9.37C49.011 9.37 49.2277 9.31333 49.4144 9.2C49.601 9.08 49.7477 8.92 49.8544 8.72C49.9677 8.52 50.0244 8.29 50.0244 8.03V6.88C50.0244 6.5 49.9444 6.22667 49.7844 6.06C49.6244 5.89333 49.361 5.81 48.9944 5.81C48.781 5.81 48.5577 5.83667 48.3244 5.89C48.0977 5.94333 47.861 6.03333 47.6144 6.16C47.501 6.21333 47.4044 6.23 47.3244 6.21C47.2444 6.19 47.181 6.14667 47.1344 6.08C47.0877 6.00667 47.061 5.93 47.0544 5.85C47.0544 5.76333 47.0744 5.68 47.1144 5.6C47.161 5.52 47.2377 5.46 47.3444 5.42C47.6377 5.28 47.9277 5.18 48.2144 5.12C48.501 5.06 48.771 5.03 49.0244 5.03C49.471 5.03 49.8377 5.1 50.1244 5.24C50.4177 5.38 50.6344 5.59333 50.7744 5.88C50.9144 6.16667 50.9844 6.53667 50.9844 6.99V9.56C50.9844 9.72 50.9444 9.84667 50.8644 9.94C50.7844 10.0267 50.6677 10.07 50.5144 10.07C50.3677 10.07 50.251 10.0267 50.1644 9.94C50.0777 9.84667 50.0344 9.72 50.0344 9.56V8.91H50.1244C50.071 9.15667 49.971 9.37 49.8244 9.55C49.6844 9.72333 49.5077 9.85667 49.2944 9.95C49.081 10.0433 48.8377 10.09 48.5644 10.09ZM52.9927 10.07C52.8327 10.07 52.706 10.0267 52.6127 9.94C52.526 9.84667 52.4827 9.72 52.4827 9.56V5.56C52.4827 5.38667 52.526 5.26 52.6127 5.18C52.706 5.09333 52.8327 5.05 52.9927 5.05C53.1527 5.05 53.276 5.09333 53.3627 5.18C53.4493 5.26 53.4927 5.38667 53.4927 5.56V7.09H55.9227V5.56C55.9227 5.38667 55.9627 5.26 56.0427 5.18C56.1293 5.09333 56.256 5.05 56.4227 5.05C56.5827 5.05 56.706 5.09333 56.7927 5.18C56.886 5.26 56.9327 5.38667 56.9327 5.56V9.56C56.9327 9.72 56.886 9.84667 56.7927 9.94C56.706 10.0267 56.5827 10.07 56.4227 10.07C56.256 10.07 56.1293 10.0267 56.0427 9.94C55.9627 9.84667 55.9227 9.72 55.9227 9.56V7.89H53.4927V9.56C53.4927 9.72 53.4493 9.84667 53.3627 9.94C53.2827 10.0267 53.1593 10.07 52.9927 10.07ZM60.5697 10.09C60.0764 10.09 59.6497 9.98667 59.2897 9.78C58.9364 9.57333 58.6597 9.28 58.4597 8.9C58.2597 8.52 58.1597 8.07333 58.1597 7.56C58.1597 7.16667 58.2164 6.81667 58.3297 6.51C58.443 6.20333 58.603 5.94 58.8097 5.72C59.023 5.49333 59.2764 5.32333 59.5697 5.21C59.8697 5.09 60.203 5.03 60.5697 5.03C61.0564 5.03 61.4764 5.13333 61.8297 5.34C62.1897 5.54667 62.4697 5.84 62.6697 6.22C62.8697 6.59333 62.9697 7.04 62.9697 7.56C62.9697 7.94667 62.913 8.29667 62.7997 8.61C62.6864 8.92333 62.523 9.19 62.3097 9.41C62.103 9.63 61.8497 9.8 61.5497 9.92C61.2564 10.0333 60.9297 10.09 60.5697 10.09ZM60.5697 9.31C60.843 9.31 61.083 9.24333 61.2897 9.11C61.4964 8.97667 61.6564 8.78 61.7697 8.52C61.8897 8.26 61.9497 7.94 61.9497 7.56C61.9497 6.98667 61.823 6.55333 61.5697 6.26C61.3164 5.96667 60.983 5.82 60.5697 5.82C60.2897 5.82 60.0464 5.88667 59.8397 6.02C59.633 6.14667 59.4697 6.34 59.3497 6.6C59.2364 6.86 59.1797 7.18 59.1797 7.56C59.1797 8.12667 59.3064 8.56 59.5597 8.86C59.813 9.16 60.1497 9.31 60.5697 9.31ZM64.7212 10C64.5545 10 64.4278 9.95667 64.3412 9.87C64.2545 9.77667 64.2112 9.65 64.2112 9.49V5.64C64.2112 5.47333 64.2545 5.34667 64.3412 5.26C64.4278 5.16667 64.5545 5.12 64.7212 5.12H66.7012C67.1012 5.12 67.4278 5.17 67.6812 5.27C67.9412 5.37 68.1312 5.51667 68.2512 5.71C68.3712 5.89667 68.4312 6.12667 68.4312 6.4C68.4312 6.71333 68.3245 6.97667 68.1112 7.19C67.8978 7.39667 67.6178 7.52 67.2712 7.56V7.43C67.6912 7.45 68.0145 7.57 68.2412 7.79C68.4745 8.01 68.5912 8.29333 68.5912 8.64C68.5912 9.06 68.4345 9.39333 68.1212 9.64C67.8078 9.88 67.3612 10 66.7812 10H64.7212ZM65.1612 9.35H66.7212C67.0212 9.35 67.2512 9.28667 67.4112 9.16C67.5778 9.02667 67.6612 8.83667 67.6612 8.59C67.6612 8.34333 67.5778 8.15667 67.4112 8.03C67.2512 7.90333 67.0212 7.84 66.7212 7.84H65.1612V9.35ZM65.1612 7.19H66.6312C66.9045 7.19 67.1145 7.12667 67.2612 7C67.4145 6.87333 67.4912 6.7 67.4912 6.48C67.4912 6.25333 67.4145 6.08 67.2612 5.96C67.1145 5.84 66.9045 5.78 66.6312 5.78H65.1612V7.19ZM70.2378 10.07C70.1378 10.07 70.0511 10.05 69.9778 10.01C69.9111 9.97667 69.8578 9.92 69.8178 9.84C69.7845 9.76 69.7678 9.65667 69.7678 9.53V5.54C69.7678 5.38 69.8078 5.26 69.8878 5.18C69.9678 5.09333 70.0811 5.05 70.2278 5.05C70.3745 5.05 70.4878 5.09333 70.5678 5.18C70.6478 5.26 70.6878 5.38 70.6878 5.54V9H70.4278L73.1378 5.38C73.2045 5.29333 73.2811 5.21667 73.3678 5.15C73.4545 5.08333 73.5711 5.05 73.7178 5.05C73.8178 5.05 73.9011 5.07 73.9678 5.11C74.0345 5.14333 74.0845 5.2 74.1178 5.28C74.1578 5.36 74.1778 5.46333 74.1778 5.59V9.58C74.1778 9.73333 74.1378 9.85333 74.0578 9.94C73.9845 10.0267 73.8745 10.07 73.7278 10.07C73.5745 10.07 73.4578 10.0267 73.3778 9.94C73.2978 9.85333 73.2578 9.73333 73.2578 9.58V6.12H73.5278L70.8078 9.75C70.7478 9.83 70.6745 9.90333 70.5878 9.97C70.5078 10.0367 70.3911 10.07 70.2378 10.07ZM77.2255 10.07C77.0655 10.07 76.9389 10.0267 76.8455 9.94C76.7589 9.84667 76.7155 9.72 76.7155 9.56V5.93H75.3555C75.0622 5.93 74.9155 5.79333 74.9155 5.52C74.9155 5.4 74.9555 5.30333 75.0355 5.23C75.1155 5.15667 75.2222 5.12 75.3555 5.12H79.0855C79.3789 5.12 79.5255 5.25333 79.5255 5.52C79.5255 5.65333 79.4855 5.75667 79.4055 5.83C79.3322 5.89667 79.2255 5.93 79.0855 5.93H77.7255V9.56C77.7255 9.72 77.6822 9.84667 77.5955 9.94C77.5155 10.0267 77.3922 10.07 77.2255 10.07ZM82.5366 10.09C82.0032 10.09 81.5432 9.99 81.1566 9.79C80.7766 9.58333 80.4799 9.29333 80.2666 8.92C80.0599 8.54 79.9566 8.09 79.9566 7.57C79.9566 7.06333 80.0599 6.62 80.2666 6.24C80.4732 5.86 80.7566 5.56333 81.1166 5.35C81.4766 5.13667 81.8866 5.03 82.3466 5.03C82.6866 5.03 82.9899 5.08667 83.2566 5.2C83.5232 5.30667 83.7499 5.46667 83.9366 5.68C84.1299 5.88667 84.2732 6.14 84.3666 6.44C84.4666 6.74 84.5166 7.07667 84.5166 7.45C84.5166 7.56333 84.4832 7.65 84.4166 7.71C84.3499 7.76333 84.2499 7.79 84.1166 7.79H80.7566V7.17H83.8366L83.6666 7.31C83.6666 6.97667 83.6166 6.69333 83.5166 6.46C83.4232 6.22667 83.2799 6.05 83.0866 5.93C82.8999 5.80333 82.6666 5.74 82.3866 5.74C82.0732 5.74 81.8066 5.81333 81.5866 5.96C81.3732 6.10667 81.2099 6.31 81.0966 6.57C80.9832 6.83 80.9266 7.13333 80.9266 7.48V7.54C80.9266 8.12667 81.0632 8.57 81.3366 8.87C81.6166 9.16333 82.0199 9.31 82.5466 9.31C82.7466 9.31 82.9566 9.28333 83.1766 9.23C83.4032 9.17667 83.6166 9.08667 83.8166 8.96C83.9299 8.89333 84.0299 8.86333 84.1166 8.87C84.2099 8.87667 84.2832 8.90667 84.3366 8.96C84.3966 9.01333 84.4332 9.08 84.4466 9.16C84.4599 9.24 84.4466 9.32333 84.4066 9.41C84.3666 9.49 84.2966 9.56333 84.1966 9.63C83.9699 9.78333 83.7066 9.9 83.4066 9.98C83.1066 10.0533 82.8166 10.09 82.5366 10.09ZM88.8218 10.07C88.7218 10.07 88.6351 10.05 88.5618 10.01C88.4951 9.97667 88.4418 9.92 88.4018 9.84C88.3685 9.76 88.3518 9.65667 88.3518 9.53V5.54C88.3518 5.38 88.3918 5.26 88.4718 5.18C88.5518 5.09333 88.6651 5.05 88.8118 5.05C88.9585 5.05 89.0718 5.09333 89.1518 5.18C89.2318 5.26 89.2718 5.38 89.2718 5.54V9H89.0118L91.7218 5.38C91.7885 5.29333 91.8651 5.21667 91.9518 5.15C92.0385 5.08333 92.1551 5.05 92.3018 5.05C92.4018 5.05 92.4851 5.07 92.5518 5.11C92.6185 5.14333 92.6685 5.2 92.7018 5.28C92.7418 5.36 92.7618 5.46333 92.7618 5.59V9.58C92.7618 9.73333 92.7218 9.85333 92.6418 9.94C92.5685 10.0267 92.4585 10.07 92.3118 10.07C92.1585 10.07 92.0418 10.0267 91.9618 9.94C91.8818 9.85333 91.8418 9.73333 91.8418 9.58V6.12H92.1118L89.3918 9.75C89.3318 9.83 89.2585 9.90333 89.1718 9.97C89.0918 10.0367 88.9751 10.07 88.8218 10.07ZM95.9795 10.09C95.6395 10.09 95.3062 10.0567 94.9795 9.99C94.6529 9.91667 94.3695 9.81 94.1295 9.67C94.0295 9.61667 93.9595 9.55333 93.9195 9.48C93.8795 9.4 93.8629 9.32 93.8695 9.24C93.8762 9.15333 93.9029 9.08333 93.9495 9.03C94.0029 8.97 94.0695 8.93333 94.1495 8.92C94.2362 8.90667 94.3362 8.93 94.4495 8.99C94.6629 9.11 94.9029 9.2 95.1695 9.26C95.4362 9.31333 95.6995 9.34 95.9595 9.34C96.4129 9.34 96.7362 9.28 96.9295 9.16C97.1295 9.03333 97.2295 8.84667 97.2295 8.6C97.2295 8.37333 97.1495 8.2 96.9895 8.08C96.8295 7.96 96.6029 7.9 96.3095 7.9H95.4295C95.3029 7.9 95.2029 7.86667 95.1295 7.8C95.0562 7.73333 95.0195 7.64333 95.0195 7.53C95.0195 7.41 95.0562 7.32 95.1295 7.26C95.2029 7.19333 95.3029 7.16 95.4295 7.16H96.1995C96.4595 7.16 96.6662 7.10333 96.8195 6.99C96.9795 6.87 97.0595 6.70667 97.0595 6.5C97.0595 6.27333 96.9729 6.09667 96.7995 5.97C96.6262 5.84333 96.3329 5.78 95.9195 5.78C95.6729 5.78 95.4329 5.80667 95.1995 5.86C94.9662 5.91333 94.7429 5.99333 94.5295 6.1C94.3895 6.16667 94.2729 6.18333 94.1795 6.15C94.0862 6.11667 94.0162 6.05667 93.9695 5.97C93.9295 5.87667 93.9262 5.78333 93.9595 5.69C93.9929 5.59 94.0695 5.51 94.1895 5.45C94.4629 5.30333 94.7562 5.19667 95.0695 5.13C95.3829 5.06333 95.7162 5.03 96.0695 5.03C96.7029 5.03 97.1795 5.15333 97.4995 5.4C97.8262 5.64 97.9895 5.97333 97.9895 6.4C97.9895 6.71333 97.8829 6.97667 97.6695 7.19C97.4629 7.39667 97.1862 7.52 96.8395 7.56V7.43C97.2462 7.45 97.5695 7.57 97.8095 7.79C98.0495 8.00333 98.1695 8.28667 98.1695 8.64C98.1695 9.08 97.9829 9.43333 97.6095 9.7C97.2362 9.96 96.6929 10.09 95.9795 10.09Z" fill="#F7F9FF"/>
</svg>
