<svg width="113" height="32" viewBox="0 0 113 32" fill="none" xmlns="http://www.w3.org/2000/svg">
<path d="M12.0615 19.0373H13.1706L12.6152 17.7441L12.0615 19.0373Z" fill="#F7F9FF"/>
<path fill-rule="evenodd" clip-rule="evenodd" d="M19.8704 3H7.77924C2.08363 3 0 5.08363 0 10.7792V22.8704C0 28.5661 2.08363 30.6497 7.77924 30.6497H19.8671C25.5626 30.6497 27.6497 28.5661 27.6497 22.8704V10.7792C27.6497 5.08363 25.5661 3 19.8704 3ZM5.47395 16.8274H6.20655V20.4427H5.47395V18.974H3.81796V20.4427H3.08363V16.8274H3.81796V18.2858H5.47395V16.8274ZM9.60723 18.8974C9.60723 19.4852 9.31587 19.7987 8.78603 19.7987C8.25274 19.7987 7.95965 19.475 7.95965 18.8718V16.8291H7.22544V18.8957C7.22544 19.9129 7.79099 20.4955 8.77578 20.4955C9.77071 20.4955 10.3414 19.9009 10.3414 18.865V16.8257H9.60884V18.8974H9.60723ZM18.0832 19.3131L17.262 16.8274H16.664L15.8428 19.3131L15.0437 16.8291H14.2634L15.5243 20.4427H16.1307L16.9536 18.0694L17.7748 20.4427H18.3865L19.6438 16.8291H18.8839L18.0832 19.3131ZM20.959 18.8872H22.2931V18.2296H20.959V17.4902H22.8962V16.8308H20.2367V20.441H22.9661V19.7816H20.959V18.8872ZM23.84 20.4376H24.5641V16.8274H23.84V20.4376ZM11.7896 19.688L11.4608 20.441H10.7111L12.3042 16.8274H12.9516L14.5377 20.441H13.7694L13.444 19.688H11.7896ZM9.22232 7.62211C9.22232 10.1607 11.2856 12.2255 13.8242 12.2255C16.3626 12.2255 18.4276 10.1607 18.4293 7.62211H17.7784C17.7784 9.80125 16.0049 11.5747 13.8258 11.5747C11.6467 11.5747 9.87313 9.80125 9.87313 7.62211H9.22232Z" fill="#F7F9FF"/>
<path d="M41.9257 25.4534H37.5496L36.4789 28.3807H34.5557L38.8412 17.4473H40.6593L45.0428 28.3807H43.02L41.9257 25.4534ZM38.1012 23.9675H41.3681L40.1981 20.8357C40.038 20.4027 39.8793 19.9252 39.7221 19.4017C39.5812 19.8644 39.4284 20.3375 39.2624 20.8209L38.1012 23.9675Z" fill="#F7F9FF"/>
<path d="M45.9105 22.2307C45.9105 21.6272 45.8897 20.9628 45.8496 20.2392H47.5995C47.6647 20.5758 47.7092 20.9213 47.7359 21.2728C48.4595 20.4824 49.2899 20.0879 50.2257 20.0879C50.7684 20.0879 51.2726 20.2243 51.7338 20.4987C52.1965 20.7731 52.5702 21.206 52.8548 21.7962C53.1396 22.3879 53.282 23.1382 53.282 24.0487C53.282 24.9993 53.1188 25.8119 52.794 26.4867C52.4708 27.1614 52.0156 27.6715 51.4328 28.0185C50.85 28.3655 50.1752 28.539 49.4101 28.539C48.857 28.539 48.3113 28.4455 47.773 28.2602V31.6248L45.909 31.7835V22.2307H45.9105ZM50.8115 26.3917C51.1911 25.8816 51.3808 25.1357 51.3808 24.154C51.3808 23.2435 51.2237 22.5836 50.9093 22.1729C50.5949 21.7636 50.1767 21.5575 49.6533 21.5575C49.2914 21.5575 48.9564 21.6435 48.6494 21.814C48.3424 21.9846 48.0502 22.2144 47.7745 22.5006V26.8618C47.9598 26.9523 48.1763 27.0235 48.4225 27.0768C48.6686 27.1302 48.9133 27.1554 49.155 27.1554C49.8801 27.1569 50.4319 26.9019 50.8115 26.3917Z" fill="#F7F9FF"/>
<path d="M54.4759 22.2307C54.4759 21.6272 54.4551 20.9628 54.415 20.2392H56.1649C56.2302 20.5758 56.2746 20.9213 56.3013 21.2728C57.025 20.4824 57.8554 20.0879 58.7911 20.0879C59.3338 20.0879 59.838 20.2243 60.2993 20.4987C60.7619 20.7731 61.1356 21.206 61.4203 21.7962C61.705 22.3879 61.8474 23.1382 61.8474 24.0487C61.8474 24.9993 61.6843 25.8119 61.3595 26.4867C61.0363 27.1614 60.581 27.6715 59.9982 28.0185C59.4155 28.3655 58.7407 28.539 57.9756 28.539C57.4224 28.539 56.8767 28.4455 56.3384 28.2602V31.6248L54.4744 31.7835V22.2307H54.4759ZM59.3769 26.3917C59.7565 25.8816 59.9463 25.1357 59.9463 24.154C59.9463 23.2435 59.7891 22.5836 59.4748 22.1729C59.1603 21.7636 58.7422 21.5575 58.2187 21.5575C57.8569 21.5575 57.5218 21.6435 57.2148 21.814C56.9079 21.9846 56.6157 22.2144 56.3399 22.5006V26.8618C56.5253 26.9523 56.7417 27.0235 56.9879 27.0768C57.2341 27.1302 57.4787 27.1554 57.7204 27.1554C58.4456 27.1569 58.9973 26.9019 59.3769 26.3917Z" fill="#F7F9FF"/>
<path d="M65.363 27.863C64.5578 27.4181 63.9394 26.7804 63.5064 25.95C63.0735 25.1196 62.8584 24.1394 62.8584 23.0079C62.8584 21.7801 63.1076 20.7375 63.6043 19.8805C64.1026 19.0234 64.7803 18.3797 65.6389 17.9497C66.496 17.5197 67.4584 17.3047 68.5246 17.3047C69.1533 17.3047 69.7524 17.3744 70.3234 17.5123C70.8942 17.6502 71.4266 17.84 71.919 18.0817L71.4429 19.5157C70.4523 19.0426 69.5062 18.8069 68.6061 18.8069C67.8469 18.8069 67.181 18.9684 66.6102 19.2932C66.0392 19.618 65.5958 20.094 65.2785 20.7228C64.9627 21.3515 64.8025 22.1108 64.8025 23.002C64.8025 23.782 64.9241 24.473 65.1688 25.0765C65.4119 25.6801 65.7975 26.1576 66.3224 26.5106C66.8474 26.8635 67.5103 27.0385 68.311 27.0385C68.6729 27.0385 69.0361 27.0088 69.398 26.948C69.7598 26.8872 70.0994 26.7997 70.4168 26.684V24.473H67.8899V23.0242H72.2289V27.6272C71.6045 27.9193 70.9491 28.1432 70.264 28.2989C69.5774 28.4546 68.8953 28.5332 68.2146 28.5332C67.1187 28.5302 66.1683 28.3078 65.363 27.863Z" fill="#F7F9FF"/>
<path d="M78.9444 28.3818C78.8792 28.0644 78.8361 27.7055 78.8169 27.3022C78.5306 27.6448 78.157 27.9355 77.6958 28.1742C77.2361 28.4129 76.7171 28.533 76.1373 28.533C75.6687 28.533 75.2431 28.4411 74.8575 28.2572C74.4735 28.0733 74.1679 27.7975 73.9411 27.4268C73.7142 27.0575 73.6016 26.6053 73.6016 26.0729C73.6016 25.2825 73.8862 24.6538 74.4542 24.1822C75.0221 23.7121 75.9697 23.4763 77.2984 23.4763C77.7966 23.4763 78.289 23.512 78.7768 23.5816V23.423C78.7768 22.7037 78.6241 22.1966 78.3157 21.9029C78.0087 21.6093 77.5698 21.461 76.9959 21.461C76.5985 21.461 76.1728 21.5189 75.7206 21.6345C75.2683 21.7502 74.8709 21.8882 74.5283 22.0498L74.2347 20.6914C74.5669 20.5402 75.0043 20.4023 75.5486 20.2762C76.0913 20.1502 76.6652 20.0879 77.2687 20.0879C77.9731 20.0879 78.5707 20.1946 79.0645 20.4082C79.5569 20.6218 79.9424 20.9895 80.2182 21.51C80.4955 22.0305 80.6334 22.7319 80.6334 23.6112V26.8485C80.6334 27.1851 80.6527 27.6967 80.6942 28.3803H78.9444V28.3818ZM77.8278 26.8722C78.2148 26.6868 78.5321 26.4555 78.7783 26.1782V24.6686C78.2697 24.6137 77.8559 24.5855 77.5327 24.5855C76.763 24.5855 76.2307 24.7101 75.937 24.9593C75.6434 25.2083 75.4951 25.5435 75.4951 25.9661C75.4951 26.368 75.602 26.6676 75.8155 26.8603C76.029 27.0546 76.3197 27.1509 76.6874 27.1509C77.0611 27.1509 77.4407 27.0575 77.8278 26.8722Z" fill="#F7F9FF"/>
<path d="M82.2656 26.4271V16.8075L84.1207 16.6562V26.0949C84.1207 26.4419 84.1805 26.6866 84.2991 26.8304C84.4177 26.9743 84.6045 27.0455 84.8603 27.0455C84.9761 27.0455 85.1396 27.0173 85.3516 26.9625L85.571 28.2985C85.3945 28.3697 85.1797 28.4261 84.9257 28.4676C84.6726 28.5106 84.4326 28.5314 84.2057 28.5314C82.9122 28.5314 82.2656 27.8299 82.2656 26.4271Z" fill="#F7F9FF"/>
<path d="M86.9062 26.4271V16.8075L88.7609 16.6562V26.0949C88.7609 26.4419 88.8207 26.6866 88.9393 26.8304C89.0579 26.9743 89.2446 27.0455 89.5014 27.0455C89.6172 27.0455 89.7797 27.0173 89.9917 26.9625L90.2112 28.2985C90.0347 28.3697 89.8199 28.4261 89.5668 28.4676C89.3128 28.5106 89.0728 28.5314 88.8459 28.5314C87.5515 28.5314 86.9062 27.8299 86.9062 26.4271Z" fill="#F7F9FF"/>
<path d="M97.9381 24.547H92.6123C92.6982 26.2524 93.5107 27.105 95.0497 27.105C95.4326 27.105 95.822 27.059 96.2226 26.9657C96.6232 26.8722 97.0061 26.7476 97.3731 26.5919L97.7812 27.8672C96.8707 28.3091 95.8472 28.5315 94.7098 28.5315C93.8459 28.5315 93.1157 28.3684 92.5217 28.0407C91.9278 27.713 91.4824 27.2429 91.1826 26.629C90.8828 26.0151 90.7334 25.2766 90.7334 24.4105C90.7334 23.5105 90.8922 22.7364 91.2087 22.0869C91.5262 21.4373 91.967 20.9421 92.5329 20.601C93.0979 20.2584 93.7526 20.0879 94.4903 20.0879C95.2607 20.0879 95.9042 20.2674 96.4187 20.6277C96.9333 20.988 97.3152 21.467 97.5646 22.0646C97.8139 22.6637 97.9381 23.3251 97.9381 24.0487V24.547ZM96.1189 23.3622C96.0844 22.7127 95.92 22.2262 95.6277 21.9015C95.3364 21.5767 94.946 21.4151 94.4576 21.4151C93.9851 21.4151 93.5919 21.5782 93.2782 21.9059C92.9634 22.2337 92.7589 22.7186 92.6627 23.3622H96.1189Z" fill="#F7F9FF"/>
<path d="M99.4376 22.284C99.4376 21.8363 99.4171 21.1541 99.377 20.2392H101.12C101.15 20.466 101.179 20.7359 101.207 21.0503C101.233 21.3647 101.253 21.6198 101.263 21.8155C101.48 21.4581 101.692 21.1586 101.901 20.9139C102.11 20.6692 102.355 20.4705 102.633 20.3177C102.913 20.1635 103.231 20.0879 103.587 20.0879C103.873 20.0879 104.121 20.1176 104.327 20.1784L104.093 21.7932C103.912 21.7384 103.71 21.7102 103.49 21.7102C103.052 21.7102 102.669 21.8229 102.343 22.0453C102.015 22.2693 101.667 22.637 101.294 23.1501V28.3788H99.4376V22.284Z" fill="#F7F9FF"/>
<path d="M105.446 31.712C105.174 31.6646 104.951 31.6097 104.774 31.5504L105.113 30.1921C105.239 30.2276 105.398 30.2602 105.59 30.2943C105.781 30.327 105.962 30.3433 106.132 30.3433C106.957 30.3433 107.575 29.8124 107.989 28.7507L108.109 28.4496L105.106 20.2402H107.105L108.614 24.8284C108.861 25.6128 109.02 26.2149 109.091 26.6315C109.232 26.0428 109.398 25.4541 109.589 24.8654L111.121 20.2402H113L110.004 28.4867C109.723 29.2667 109.418 29.8955 109.091 30.373C108.763 30.8504 108.377 31.2048 107.933 31.4361C107.486 31.6675 106.949 31.7832 106.322 31.7832C106.009 31.7832 105.719 31.7594 105.446 31.712Z" fill="#F7F9FF"/>
<path opacity="0.4" d="M36.61 10.07C36.49 10.07 36.3867 10.04 36.3 9.98C36.2133 9.92 36.16 9.83667 36.14 9.73C36.1267 9.62333 36.1533 9.50333 36.22 9.37L37.09 7.68V8.04L34.31 3.58C34.2433 3.45333 34.2133 3.33667 34.22 3.23C34.2333 3.12333 34.2833 3.04 34.37 2.98C34.4567 2.91333 34.5633 2.88 34.69 2.88C34.8233 2.88 34.9267 2.91333 35 2.98C35.0733 3.04 35.1467 3.12667 35.22 3.24L37.59 7.1H37.39L39.36 3.25C39.42 3.14333 39.4867 3.05667 39.56 2.99C39.6333 2.91667 39.74 2.88 39.88 2.88C40 2.88 40.1 2.91 40.18 2.97C40.2667 3.03 40.32 3.11333 40.34 3.22C40.3667 3.32 40.34 3.44 40.26 3.58L37.13 9.7C37.0833 9.8 37.02 9.88667 36.94 9.96C36.86 10.0333 36.75 10.07 36.61 10.07ZM42.7989 10.09C42.2989 10.09 41.8656 9.98667 41.4989 9.78C41.1389 9.56667 40.8589 9.27 40.6589 8.89C40.4589 8.50333 40.3589 8.05 40.3589 7.53C40.3589 7.14333 40.4156 6.79667 40.5289 6.49C40.6422 6.17667 40.8022 5.91333 41.0089 5.7C41.2222 5.48667 41.4789 5.32333 41.7789 5.21C42.0856 5.09 42.4256 5.03 42.7989 5.03C43.0322 5.03 43.2756 5.06667 43.5289 5.14C43.7889 5.20667 44.0289 5.32 44.2489 5.48C44.3356 5.53333 44.3889 5.6 44.4089 5.68C44.4356 5.75333 44.4389 5.83 44.4189 5.91C44.4056 5.99 44.3689 6.06 44.3089 6.12C44.2556 6.17333 44.1889 6.20667 44.1089 6.22C44.0289 6.22667 43.9422 6.20333 43.8489 6.15C43.6889 6.03667 43.5256 5.95667 43.3589 5.91C43.1922 5.85667 43.0322 5.83 42.8789 5.83C42.6389 5.83 42.4256 5.87 42.2389 5.95C42.0589 6.02333 41.9056 6.13333 41.7789 6.28C41.6522 6.42 41.5556 6.59667 41.4889 6.81C41.4289 7.02333 41.3989 7.26667 41.3989 7.54C41.3989 8.08667 41.5256 8.51667 41.7789 8.83C42.0389 9.13667 42.4056 9.29 42.8789 9.29C43.0322 9.29 43.1922 9.26667 43.3589 9.22C43.5256 9.17333 43.6889 9.09333 43.8489 8.98C43.9422 8.92667 44.0289 8.90667 44.1089 8.92C44.1889 8.93333 44.2522 8.97 44.2989 9.03C44.3522 9.08333 44.3856 9.15 44.3989 9.23C44.4189 9.30333 44.4156 9.38 44.3889 9.46C44.3622 9.54 44.3056 9.60667 44.2189 9.66C44.0056 9.81333 43.7722 9.92333 43.5189 9.99C43.2722 10.0567 43.0322 10.09 42.7989 10.09ZM46.9541 10.07C46.7941 10.07 46.6674 10.0267 46.5741 9.94C46.4874 9.84667 46.4441 9.72 46.4441 9.56V5.93H45.0841C44.7907 5.93 44.6441 5.79333 44.6441 5.52C44.6441 5.4 44.6841 5.30333 44.7641 5.23C44.8441 5.15667 44.9507 5.12 45.0841 5.12H48.8141C49.1074 5.12 49.2541 5.25333 49.2541 5.52C49.2541 5.65333 49.2141 5.75667 49.1341 5.83C49.0607 5.89667 48.9541 5.93 48.8141 5.93H47.4541V9.56C47.4541 9.72 47.4107 9.84667 47.3241 9.94C47.2441 10.0267 47.1207 10.07 46.9541 10.07ZM51.5644 10.09C51.2244 10.09 50.9177 10.0233 50.6444 9.89C50.3777 9.75667 50.1677 9.57667 50.0144 9.35C49.861 9.12333 49.7844 8.86667 49.7844 8.58C49.7844 8.22 49.8744 7.93667 50.0544 7.73C50.241 7.51667 50.5444 7.36667 50.9644 7.28C51.391 7.18667 51.9644 7.14 52.6844 7.14H53.1544V7.76H52.6944C52.2144 7.76 51.8344 7.78333 51.5544 7.83C51.2744 7.87667 51.0744 7.95667 50.9544 8.07C50.841 8.17667 50.7844 8.32667 50.7844 8.52C50.7844 8.77333 50.871 8.98 51.0444 9.14C51.2177 9.29333 51.4577 9.37 51.7644 9.37C52.011 9.37 52.2277 9.31333 52.4144 9.2C52.601 9.08 52.7477 8.92 52.8544 8.72C52.9677 8.52 53.0244 8.29 53.0244 8.03V6.88C53.0244 6.5 52.9444 6.22667 52.7844 6.06C52.6244 5.89333 52.361 5.81 51.9944 5.81C51.781 5.81 51.5577 5.83667 51.3244 5.89C51.0977 5.94333 50.861 6.03333 50.6144 6.16C50.501 6.21333 50.4044 6.23 50.3244 6.21C50.2444 6.19 50.181 6.14667 50.1344 6.08C50.0877 6.00667 50.061 5.93 50.0544 5.85C50.0544 5.76333 50.0744 5.68 50.1144 5.6C50.161 5.52 50.2377 5.46 50.3444 5.42C50.6377 5.28 50.9277 5.18 51.2144 5.12C51.501 5.06 51.771 5.03 52.0244 5.03C52.471 5.03 52.8377 5.1 53.1244 5.24C53.4177 5.38 53.6344 5.59333 53.7744 5.88C53.9144 6.16667 53.9844 6.53667 53.9844 6.99V9.56C53.9844 9.72 53.9444 9.84667 53.8644 9.94C53.7844 10.0267 53.6677 10.07 53.5144 10.07C53.3677 10.07 53.251 10.0267 53.1644 9.94C53.0777 9.84667 53.0344 9.72 53.0344 9.56V8.91H53.1244C53.071 9.15667 52.971 9.37 52.8244 9.55C52.6844 9.72333 52.5077 9.85667 52.2944 9.95C52.081 10.0433 51.8377 10.09 51.5644 10.09ZM55.9927 10.07C55.8327 10.07 55.706 10.0267 55.6127 9.94C55.526 9.84667 55.4827 9.72 55.4827 9.56V5.56C55.4827 5.38667 55.526 5.26 55.6127 5.18C55.706 5.09333 55.8327 5.05 55.9927 5.05C56.1527 5.05 56.276 5.09333 56.3627 5.18C56.4493 5.26 56.4927 5.38667 56.4927 5.56V7.09H58.9227V5.56C58.9227 5.38667 58.9627 5.26 59.0427 5.18C59.1293 5.09333 59.256 5.05 59.4227 5.05C59.5827 5.05 59.706 5.09333 59.7927 5.18C59.886 5.26 59.9327 5.38667 59.9327 5.56V9.56C59.9327 9.72 59.886 9.84667 59.7927 9.94C59.706 10.0267 59.5827 10.07 59.4227 10.07C59.256 10.07 59.1293 10.0267 59.0427 9.94C58.9627 9.84667 58.9227 9.72 58.9227 9.56V7.89H56.4927V9.56C56.4927 9.72 56.4493 9.84667 56.3627 9.94C56.2827 10.0267 56.1593 10.07 55.9927 10.07ZM63.5697 10.09C63.0764 10.09 62.6497 9.98667 62.2897 9.78C61.9364 9.57333 61.6597 9.28 61.4597 8.9C61.2597 8.52 61.1597 8.07333 61.1597 7.56C61.1597 7.16667 61.2164 6.81667 61.3297 6.51C61.443 6.20333 61.603 5.94 61.8097 5.72C62.023 5.49333 62.2764 5.32333 62.5697 5.21C62.8697 5.09 63.203 5.03 63.5697 5.03C64.0564 5.03 64.4764 5.13333 64.8297 5.34C65.1897 5.54667 65.4697 5.84 65.6697 6.22C65.8697 6.59333 65.9697 7.04 65.9697 7.56C65.9697 7.94667 65.913 8.29667 65.7997 8.61C65.6864 8.92333 65.523 9.19 65.3097 9.41C65.103 9.63 64.8497 9.8 64.5497 9.92C64.2564 10.0333 63.9297 10.09 63.5697 10.09ZM63.5697 9.31C63.843 9.31 64.083 9.24333 64.2897 9.11C64.4964 8.97667 64.6564 8.78 64.7697 8.52C64.8897 8.26 64.9497 7.94 64.9497 7.56C64.9497 6.98667 64.823 6.55333 64.5697 6.26C64.3164 5.96667 63.983 5.82 63.5697 5.82C63.2897 5.82 63.0464 5.88667 62.8397 6.02C62.633 6.14667 62.4697 6.34 62.3497 6.6C62.2364 6.86 62.1797 7.18 62.1797 7.56C62.1797 8.12667 62.3064 8.56 62.5597 8.86C62.813 9.16 63.1497 9.31 63.5697 9.31ZM67.7212 10C67.5545 10 67.4278 9.95667 67.3412 9.87C67.2545 9.77667 67.2112 9.65 67.2112 9.49V5.64C67.2112 5.47333 67.2545 5.34667 67.3412 5.26C67.4278 5.16667 67.5545 5.12 67.7212 5.12H69.7012C70.1012 5.12 70.4278 5.17 70.6812 5.27C70.9412 5.37 71.1312 5.51667 71.2512 5.71C71.3712 5.89667 71.4312 6.12667 71.4312 6.4C71.4312 6.71333 71.3245 6.97667 71.1112 7.19C70.8978 7.39667 70.6178 7.52 70.2712 7.56V7.43C70.6912 7.45 71.0145 7.57 71.2412 7.79C71.4745 8.01 71.5912 8.29333 71.5912 8.64C71.5912 9.06 71.4345 9.39333 71.1212 9.64C70.8078 9.88 70.3612 10 69.7812 10H67.7212ZM68.1612 9.35H69.7212C70.0212 9.35 70.2512 9.28667 70.4112 9.16C70.5778 9.02667 70.6612 8.83667 70.6612 8.59C70.6612 8.34333 70.5778 8.15667 70.4112 8.03C70.2512 7.90333 70.0212 7.84 69.7212 7.84H68.1612V9.35ZM68.1612 7.19H69.6312C69.9045 7.19 70.1145 7.12667 70.2612 7C70.4145 6.87333 70.4912 6.7 70.4912 6.48C70.4912 6.25333 70.4145 6.08 70.2612 5.96C70.1145 5.84 69.9045 5.78 69.6312 5.78H68.1612V7.19ZM73.2378 10.07C73.1378 10.07 73.0511 10.05 72.9778 10.01C72.9111 9.97667 72.8578 9.92 72.8178 9.84C72.7845 9.76 72.7678 9.65667 72.7678 9.53V5.54C72.7678 5.38 72.8078 5.26 72.8878 5.18C72.9678 5.09333 73.0811 5.05 73.2278 5.05C73.3745 5.05 73.4878 5.09333 73.5678 5.18C73.6478 5.26 73.6878 5.38 73.6878 5.54V9H73.4278L76.1378 5.38C76.2045 5.29333 76.2811 5.21667 76.3678 5.15C76.4545 5.08333 76.5711 5.05 76.7178 5.05C76.8178 5.05 76.9011 5.07 76.9678 5.11C77.0345 5.14333 77.0845 5.2 77.1178 5.28C77.1578 5.36 77.1778 5.46333 77.1778 5.59V9.58C77.1778 9.73333 77.1378 9.85333 77.0578 9.94C76.9845 10.0267 76.8745 10.07 76.7278 10.07C76.5745 10.07 76.4578 10.0267 76.3778 9.94C76.2978 9.85333 76.2578 9.73333 76.2578 9.58V6.12H76.5278L73.8078 9.75C73.7478 9.83 73.6745 9.90333 73.5878 9.97C73.5078 10.0367 73.3911 10.07 73.2378 10.07ZM80.2255 10.07C80.0655 10.07 79.9389 10.0267 79.8455 9.94C79.7589 9.84667 79.7155 9.72 79.7155 9.56V5.93H78.3555C78.0622 5.93 77.9155 5.79333 77.9155 5.52C77.9155 5.4 77.9555 5.30333 78.0355 5.23C78.1155 5.15667 78.2222 5.12 78.3555 5.12H82.0855C82.3789 5.12 82.5255 5.25333 82.5255 5.52C82.5255 5.65333 82.4855 5.75667 82.4055 5.83C82.3322 5.89667 82.2255 5.93 82.0855 5.93H80.7255V9.56C80.7255 9.72 80.6822 9.84667 80.5955 9.94C80.5155 10.0267 80.3922 10.07 80.2255 10.07ZM85.5366 10.09C85.0032 10.09 84.5432 9.99 84.1566 9.79C83.7766 9.58333 83.4799 9.29333 83.2666 8.92C83.0599 8.54 82.9566 8.09 82.9566 7.57C82.9566 7.06333 83.0599 6.62 83.2666 6.24C83.4732 5.86 83.7566 5.56333 84.1166 5.35C84.4766 5.13667 84.8866 5.03 85.3466 5.03C85.6866 5.03 85.9899 5.08667 86.2566 5.2C86.5232 5.30667 86.7499 5.46667 86.9366 5.68C87.1299 5.88667 87.2732 6.14 87.3666 6.44C87.4666 6.74 87.5166 7.07667 87.5166 7.45C87.5166 7.56333 87.4832 7.65 87.4166 7.71C87.3499 7.76333 87.2499 7.79 87.1166 7.79H83.7566V7.17H86.8366L86.6666 7.31C86.6666 6.97667 86.6166 6.69333 86.5166 6.46C86.4232 6.22667 86.2799 6.05 86.0866 5.93C85.8999 5.80333 85.6666 5.74 85.3866 5.74C85.0732 5.74 84.8066 5.81333 84.5866 5.96C84.3732 6.10667 84.2099 6.31 84.0966 6.57C83.9832 6.83 83.9266 7.13333 83.9266 7.48V7.54C83.9266 8.12667 84.0632 8.57 84.3366 8.87C84.6166 9.16333 85.0199 9.31 85.5466 9.31C85.7466 9.31 85.9566 9.28333 86.1766 9.23C86.4032 9.17667 86.6166 9.08667 86.8166 8.96C86.9299 8.89333 87.0299 8.86333 87.1166 8.87C87.2099 8.87667 87.2832 8.90667 87.3366 8.96C87.3966 9.01333 87.4332 9.08 87.4466 9.16C87.4599 9.24 87.4466 9.32333 87.4066 9.41C87.3666 9.49 87.2966 9.56333 87.1966 9.63C86.9699 9.78333 86.7066 9.9 86.4066 9.98C86.1066 10.0533 85.8166 10.09 85.5366 10.09ZM91.8218 10.07C91.7218 10.07 91.6351 10.05 91.5618 10.01C91.4951 9.97667 91.4418 9.92 91.4018 9.84C91.3685 9.76 91.3518 9.65667 91.3518 9.53V5.54C91.3518 5.38 91.3918 5.26 91.4718 5.18C91.5518 5.09333 91.6651 5.05 91.8118 5.05C91.9585 5.05 92.0718 5.09333 92.1518 5.18C92.2318 5.26 92.2718 5.38 92.2718 5.54V9H92.0118L94.7218 5.38C94.7885 5.29333 94.8651 5.21667 94.9518 5.15C95.0385 5.08333 95.1551 5.05 95.3018 5.05C95.4018 5.05 95.4851 5.07 95.5518 5.11C95.6185 5.14333 95.6685 5.2 95.7018 5.28C95.7418 5.36 95.7618 5.46333 95.7618 5.59V9.58C95.7618 9.73333 95.7218 9.85333 95.6418 9.94C95.5685 10.0267 95.4585 10.07 95.3118 10.07C95.1585 10.07 95.0418 10.0267 94.9618 9.94C94.8818 9.85333 94.8418 9.73333 94.8418 9.58V6.12H95.1118L92.3918 9.75C92.3318 9.83 92.2585 9.90333 92.1718 9.97C92.0918 10.0367 91.9751 10.07 91.8218 10.07ZM98.9795 10.09C98.6395 10.09 98.3062 10.0567 97.9795 9.99C97.6529 9.91667 97.3695 9.81 97.1295 9.67C97.0295 9.61667 96.9595 9.55333 96.9195 9.48C96.8795 9.4 96.8629 9.32 96.8695 9.24C96.8762 9.15333 96.9029 9.08333 96.9495 9.03C97.0029 8.97 97.0695 8.93333 97.1495 8.92C97.2362 8.90667 97.3362 8.93 97.4495 8.99C97.6629 9.11 97.9029 9.2 98.1695 9.26C98.4362 9.31333 98.6995 9.34 98.9595 9.34C99.4129 9.34 99.7362 9.28 99.9295 9.16C100.13 9.03333 100.23 8.84667 100.23 8.6C100.23 8.37333 100.15 8.2 99.9895 8.08C99.8295 7.96 99.6029 7.9 99.3095 7.9H98.4295C98.3029 7.9 98.2029 7.86667 98.1295 7.8C98.0562 7.73333 98.0195 7.64333 98.0195 7.53C98.0195 7.41 98.0562 7.32 98.1295 7.26C98.2029 7.19333 98.3029 7.16 98.4295 7.16H99.1995C99.4595 7.16 99.6662 7.10333 99.8195 6.99C99.9795 6.87 100.06 6.70667 100.06 6.5C100.06 6.27333 99.9729 6.09667 99.7995 5.97C99.6262 5.84333 99.3329 5.78 98.9195 5.78C98.6729 5.78 98.4329 5.80667 98.1995 5.86C97.9662 5.91333 97.7429 5.99333 97.5295 6.1C97.3895 6.16667 97.2729 6.18333 97.1795 6.15C97.0862 6.11667 97.0162 6.05667 96.9695 5.97C96.9295 5.87667 96.9262 5.78333 96.9595 5.69C96.9929 5.59 97.0695 5.51 97.1895 5.45C97.4629 5.30333 97.7562 5.19667 98.0695 5.13C98.3829 5.06333 98.7162 5.03 99.0695 5.03C99.7029 5.03 100.18 5.15333 100.5 5.4C100.826 5.64 100.99 5.97333 100.99 6.4C100.99 6.71333 100.883 6.97667 100.67 7.19C100.463 7.39667 100.186 7.52 99.8395 7.56V7.43C100.246 7.45 100.57 7.57 100.81 7.79C101.05 8.00333 101.17 8.28667 101.17 8.64C101.17 9.08 100.983 9.43333 100.61 9.7C100.236 9.96 99.6929 10.09 98.9795 10.09Z" fill="#F7F9FF"/>
</svg>
