<svg width="102" height="33" viewBox="0 0 102 33" fill="none" xmlns="http://www.w3.org/2000/svg">
<path d="M11.7812 3L23.9413 15.2457L26.999 12.1664V11.6533C26.999 8.64431 26.6857 7.55325 26.0974 6.45323C25.5091 5.35321 24.6459 4.48993 23.5459 3.90158C22.4459 3.31329 21.3549 3 18.346 3H11.7812Z" fill="#F7F9FF"/>
<path d="M8.97951 3L12.304 6.34093L0 18.7064V11.6533C0 8.64431 0.313278 7.55325 0.901546 6.45323C1.48983 5.35321 2.3531 4.48993 3.4531 3.90158C4.55308 3.31329 5.6441 3 8.65294 3H8.97951Z" fill="#F7F9FF"/>
<path d="M15.7175 29.9996H8.65263C5.64379 29.9996 4.55277 29.6863 3.45279 29.098C2.35279 28.5097 1.48952 27.6464 0.901236 26.5464C0.347552 25.511 0.0374767 24.4835 0.00292969 21.8575L3.81569 18.0195L15.7175 29.9996Z" fill="#F7F9FF"/>
<path d="M26.9988 14.9121V21.3486C26.9988 24.3576 26.6855 25.4486 26.0973 26.5487C25.5089 27.6487 24.6457 28.512 23.5457 29.1003C22.5148 29.6516 21.4918 29.9615 18.8904 29.9982L15.4326 26.5261L26.9988 14.9121Z" fill="#F7F9FF"/>
<path d="M14.1907 18.5491L17.0199 15.72L18.0612 16.7613L13.4998 21.3229L8.93848 16.7613L9.97979 15.72L12.809 18.5493V11.8281H14.1907V18.5491Z" fill="#F7F9FF"/>
<path d="M39.7063 18.6637C38.9389 18.6637 38.2635 18.8503 37.6799 19.2235C37.1071 19.5967 36.664 20.1306 36.3506 20.8251C36.0372 21.5092 35.8805 22.3126 35.8805 23.2352C35.8805 24.1681 36.0318 24.9819 36.3344 25.6764C36.637 26.3605 37.0693 26.8892 37.6313 27.2624C38.1932 27.6252 38.8525 27.8066 39.609 27.8066C40.1926 27.8066 40.7059 27.6978 41.1491 27.4801C41.603 27.2624 42.0245 26.9462 42.4135 26.5316V24.3392H39.5442V22.691H44.2129V27.1691C43.6186 27.9154 42.9323 28.4855 42.1541 28.8795C41.3868 29.263 40.5385 29.4548 39.609 29.4548C38.4742 29.4548 37.4854 29.2008 36.6424 28.6929C35.7994 28.185 35.1455 27.4645 34.6809 26.5316C34.227 25.5883 34 24.4894 34 23.2352C34 21.9705 34.2324 20.8717 34.6971 19.9388C35.1618 18.9955 35.8211 18.2698 36.6748 17.7619C37.5394 17.254 38.5499 17 39.7063 17C40.6573 17 41.5057 17.2074 42.2514 17.622C43.0079 18.0262 43.6131 18.586 44.067 19.3013L42.6081 20.2809C42.2731 19.7936 41.8407 19.4049 41.3112 19.1147C40.7924 18.814 40.2575 18.6637 39.7063 18.6637Z" fill="#F7F9FF"/>
<path d="M54.0133 24.2783C54.0133 24.7655 53.9701 25.1801 53.8836 25.5222H47.8045C47.891 26.2893 48.1449 26.8905 48.5664 27.3259C48.9987 27.7613 49.5769 27.9789 50.301 27.9789C50.7225 27.9789 51.117 27.8753 51.4844 27.668C51.8518 27.4503 52.1598 27.1445 52.4084 26.7506L53.835 27.5125C53.4784 28.1344 53.0028 28.6165 52.4084 28.9585C51.8141 29.2903 51.1115 29.4561 50.301 29.4561C49.4148 29.4561 48.6475 29.2747 47.999 28.9119C47.3506 28.549 46.848 28.0359 46.4914 27.3725C46.1455 26.6987 45.9727 25.9109 45.9727 25.0091C45.9727 24.0865 46.1402 23.2831 46.4752 22.599C46.8102 21.9148 47.2912 21.3914 47.918 21.0285C48.5448 20.6553 49.2797 20.4688 50.1227 20.4688C51.3223 20.4688 52.268 20.8108 52.9596 21.495C53.6621 22.1791 54.0133 23.1069 54.0133 24.2783ZM52.2139 24.0606C52.2139 23.4179 52.0248 22.9047 51.6465 22.5212C51.2682 22.1377 50.7603 21.9459 50.1227 21.9459C49.5283 21.9459 49.0365 22.1325 48.6475 22.5057C48.2584 22.8685 47.999 23.3868 47.8693 24.0606H52.2139Z" fill="#F7F9FF"/>
<path d="M60.6688 22.2861H58.1885V26.6243C58.1885 27.0389 58.302 27.3603 58.5289 27.5883C58.7667 27.8163 59.0963 27.9304 59.5178 27.9304C59.8205 27.9304 60.1392 27.8734 60.4742 27.7593V29.3453C60.0636 29.4801 59.6151 29.5475 59.1287 29.5475C58.2533 29.5475 57.5833 29.3142 57.1186 28.8478C56.6539 28.371 56.4215 27.6919 56.4215 26.8108V22.2861H55.0273V20.6845H56.4215V18.0723H58.1885V20.6845H60.6688V22.2861Z" fill="#F7F9FF"/>
<path d="M72.1811 29.2382H70.2358L68.9227 25.6463H64.4322L63.1192 29.2382H61.1738L65.7291 17.2188H67.6258L72.1811 29.2382ZM66.6207 19.66L65.0483 23.9826H68.3067L66.718 19.66H66.6207Z" fill="#F7F9FF"/>
<path d="M73.4893 33.0013V20.6864H75.2563V21.8526H75.3373C75.6507 21.4172 76.0397 21.0804 76.5045 20.8419C76.9692 20.5931 77.4663 20.4688 77.9959 20.4688C78.72 20.4688 79.363 20.6553 79.925 21.0285C80.487 21.3914 80.9247 21.9045 81.2381 22.5679C81.5515 23.2209 81.7082 23.9725 81.7082 24.8225C81.7082 25.7243 81.5515 26.5277 81.2381 27.2326C80.9247 27.9375 80.487 28.4869 79.925 28.8808C79.363 29.2643 78.72 29.4561 77.9959 29.4561C77.4339 29.4561 76.926 29.3369 76.4721 29.0985C76.0182 28.86 75.6399 28.5232 75.3373 28.0878H75.2563V33.0013H73.4893ZM75.1914 24.9624C75.1914 25.8124 75.4022 26.5018 75.8236 27.0305C76.2559 27.5591 76.8071 27.8235 77.4772 27.8235C78.1905 27.8235 78.774 27.5591 79.228 27.0305C79.6819 26.5018 79.9088 25.8124 79.9088 24.9624C79.9088 24.413 79.8061 23.9206 79.6008 23.4853C79.4063 23.0499 79.1252 22.713 78.7578 22.4746C78.4012 22.2258 77.9959 22.1014 77.542 22.1014C77.0881 22.1014 76.6828 22.2258 76.3262 22.4746C75.9695 22.713 75.6885 23.0499 75.4832 23.4853C75.2887 23.9206 75.1914 24.413 75.1914 24.9624Z" fill="#F7F9FF"/>
<path d="M83.5029 33.0013V20.6864H85.2699V21.8526H85.351C85.6643 21.4172 86.0534 21.0804 86.5182 20.8419C86.9829 20.5931 87.48 20.4688 88.0096 20.4688C88.7337 20.4688 89.3767 20.6553 89.9387 21.0285C90.5007 21.3914 90.9384 21.9045 91.2518 22.5679C91.5652 23.2209 91.7219 23.9725 91.7219 24.8225C91.7219 25.7243 91.5652 26.5277 91.2518 27.2326C90.9384 27.9375 90.5007 28.4869 89.9387 28.8808C89.3767 29.2643 88.7337 29.4561 88.0096 29.4561C87.4476 29.4561 86.9397 29.3369 86.4858 29.0985C86.0319 28.86 85.6536 28.5232 85.351 28.0878H85.2699V33.0013H83.5029ZM85.2051 24.9624C85.2051 25.8124 85.4158 26.5018 85.8373 27.0305C86.2696 27.5591 86.8208 27.8235 87.4908 27.8235C88.2041 27.8235 88.7877 27.5591 89.2416 27.0305C89.6955 26.5018 89.9225 25.8124 89.9225 24.9624C89.9225 24.413 89.8198 23.9206 89.6145 23.4853C89.42 23.0499 89.1389 22.713 88.7715 22.4746C88.4149 22.2258 88.0096 22.1014 87.5557 22.1014C87.1018 22.1014 86.6965 22.2258 86.3399 22.4746C85.9832 22.713 85.7022 23.0499 85.4969 23.4853C85.3024 23.9206 85.2051 24.413 85.2051 24.9624Z" fill="#F7F9FF"/>
<path d="M96.5799 29.4561C95.7045 29.4561 94.9483 29.2747 94.3104 28.9119C93.6839 28.5387 93.2137 28.0411 92.9004 27.4192L94.3914 26.6884C94.6079 27.0927 94.9054 27.4088 95.283 27.6369C95.6721 27.8649 96.1098 27.9789 96.5961 27.9789C97.0939 27.9789 97.4772 27.8909 97.7471 27.7146C98.0284 27.528 98.1686 27.2792 98.1686 26.9683C98.1686 26.6676 98.0227 26.424 97.7309 26.2375C97.4505 26.0405 96.9804 25.8695 96.3205 25.7243C95.262 25.4859 94.462 25.1646 93.9213 24.7603C93.3921 24.3457 93.127 23.8066 93.127 23.1432C93.127 22.3243 93.4302 21.6764 94.0348 21.1996C94.6508 20.7123 95.4728 20.4688 96.4989 20.4688C97.2884 20.4688 97.9798 20.6398 98.5739 20.9819C99.1689 21.3239 99.6438 21.8008 100 22.4124L98.5739 23.2054C98.3145 22.8011 98.0065 22.4901 97.6498 22.2724C97.2932 22.0548 96.9098 21.9459 96.4989 21.9459C96.024 21.9459 95.6454 22.0444 95.3641 22.2413C95.0837 22.4383 94.9426 22.6975 94.9426 23.0188C94.9426 23.309 95.0999 23.5578 95.4127 23.7652C95.7369 23.9621 96.2395 24.1331 96.9203 24.2783C98.9629 24.7136 99.9842 25.5533 99.9842 26.7972C99.9842 27.6058 99.6714 28.2536 99.044 28.7409C98.428 29.2177 97.6069 29.4561 96.5799 29.4561Z" fill="#F7F9FF"/>
<path opacity="0.4" d="M36.61 10.07C36.49 10.07 36.3867 10.04 36.3 9.98C36.2133 9.92 36.16 9.83667 36.14 9.73C36.1267 9.62333 36.1533 9.50333 36.22 9.37L37.09 7.68V8.04L34.31 3.58C34.2433 3.45333 34.2133 3.33667 34.22 3.23C34.2333 3.12333 34.2833 3.04 34.37 2.98C34.4567 2.91333 34.5633 2.88 34.69 2.88C34.8233 2.88 34.9267 2.91333 35 2.98C35.0733 3.04 35.1467 3.12667 35.22 3.24L37.59 7.1H37.39L39.36 3.25C39.42 3.14333 39.4867 3.05667 39.56 2.99C39.6333 2.91667 39.74 2.88 39.88 2.88C40 2.88 40.1 2.91 40.18 2.97C40.2667 3.03 40.32 3.11333 40.34 3.22C40.3667 3.32 40.34 3.44 40.26 3.58L37.13 9.7C37.0833 9.8 37.02 9.88667 36.94 9.96C36.86 10.0333 36.75 10.07 36.61 10.07ZM42.7989 10.09C42.2989 10.09 41.8656 9.98667 41.4989 9.78C41.1389 9.56667 40.8589 9.27 40.6589 8.89C40.4589 8.50333 40.3589 8.05 40.3589 7.53C40.3589 7.14333 40.4156 6.79667 40.5289 6.49C40.6422 6.17667 40.8022 5.91333 41.0089 5.7C41.2222 5.48667 41.4789 5.32333 41.7789 5.21C42.0856 5.09 42.4256 5.03 42.7989 5.03C43.0322 5.03 43.2756 5.06667 43.5289 5.14C43.7889 5.20667 44.0289 5.32 44.2489 5.48C44.3356 5.53333 44.3889 5.6 44.4089 5.68C44.4356 5.75333 44.4389 5.83 44.4189 5.91C44.4056 5.99 44.3689 6.06 44.3089 6.12C44.2556 6.17333 44.1889 6.20667 44.1089 6.22C44.0289 6.22667 43.9422 6.20333 43.8489 6.15C43.6889 6.03667 43.5256 5.95667 43.3589 5.91C43.1922 5.85667 43.0322 5.83 42.8789 5.83C42.6389 5.83 42.4256 5.87 42.2389 5.95C42.0589 6.02333 41.9056 6.13333 41.7789 6.28C41.6522 6.42 41.5556 6.59667 41.4889 6.81C41.4289 7.02333 41.3989 7.26667 41.3989 7.54C41.3989 8.08667 41.5256 8.51667 41.7789 8.83C42.0389 9.13667 42.4056 9.29 42.8789 9.29C43.0322 9.29 43.1922 9.26667 43.3589 9.22C43.5256 9.17333 43.6889 9.09333 43.8489 8.98C43.9422 8.92667 44.0289 8.90667 44.1089 8.92C44.1889 8.93333 44.2522 8.97 44.2989 9.03C44.3522 9.08333 44.3856 9.15 44.3989 9.23C44.4189 9.30333 44.4156 9.38 44.3889 9.46C44.3622 9.54 44.3056 9.60667 44.2189 9.66C44.0056 9.81333 43.7722 9.92333 43.5189 9.99C43.2722 10.0567 43.0322 10.09 42.7989 10.09ZM46.9541 10.07C46.7941 10.07 46.6674 10.0267 46.5741 9.94C46.4874 9.84667 46.4441 9.72 46.4441 9.56V5.93H45.0841C44.7907 5.93 44.6441 5.79333 44.6441 5.52C44.6441 5.4 44.6841 5.30333 44.7641 5.23C44.8441 5.15667 44.9507 5.12 45.0841 5.12H48.8141C49.1074 5.12 49.2541 5.25333 49.2541 5.52C49.2541 5.65333 49.2141 5.75667 49.1341 5.83C49.0607 5.89667 48.9541 5.93 48.8141 5.93H47.4541V9.56C47.4541 9.72 47.4107 9.84667 47.3241 9.94C47.2441 10.0267 47.1207 10.07 46.9541 10.07ZM51.5644 10.09C51.2244 10.09 50.9177 10.0233 50.6444 9.89C50.3777 9.75667 50.1677 9.57667 50.0144 9.35C49.861 9.12333 49.7844 8.86667 49.7844 8.58C49.7844 8.22 49.8744 7.93667 50.0544 7.73C50.241 7.51667 50.5444 7.36667 50.9644 7.28C51.391 7.18667 51.9644 7.14 52.6844 7.14H53.1544V7.76H52.6944C52.2144 7.76 51.8344 7.78333 51.5544 7.83C51.2744 7.87667 51.0744 7.95667 50.9544 8.07C50.841 8.17667 50.7844 8.32667 50.7844 8.52C50.7844 8.77333 50.871 8.98 51.0444 9.14C51.2177 9.29333 51.4577 9.37 51.7644 9.37C52.011 9.37 52.2277 9.31333 52.4144 9.2C52.601 9.08 52.7477 8.92 52.8544 8.72C52.9677 8.52 53.0244 8.29 53.0244 8.03V6.88C53.0244 6.5 52.9444 6.22667 52.7844 6.06C52.6244 5.89333 52.361 5.81 51.9944 5.81C51.781 5.81 51.5577 5.83667 51.3244 5.89C51.0977 5.94333 50.861 6.03333 50.6144 6.16C50.501 6.21333 50.4044 6.23 50.3244 6.21C50.2444 6.19 50.181 6.14667 50.1344 6.08C50.0877 6.00667 50.061 5.93 50.0544 5.85C50.0544 5.76333 50.0744 5.68 50.1144 5.6C50.161 5.52 50.2377 5.46 50.3444 5.42C50.6377 5.28 50.9277 5.18 51.2144 5.12C51.501 5.06 51.771 5.03 52.0244 5.03C52.471 5.03 52.8377 5.1 53.1244 5.24C53.4177 5.38 53.6344 5.59333 53.7744 5.88C53.9144 6.16667 53.9844 6.53667 53.9844 6.99V9.56C53.9844 9.72 53.9444 9.84667 53.8644 9.94C53.7844 10.0267 53.6677 10.07 53.5144 10.07C53.3677 10.07 53.251 10.0267 53.1644 9.94C53.0777 9.84667 53.0344 9.72 53.0344 9.56V8.91H53.1244C53.071 9.15667 52.971 9.37 52.8244 9.55C52.6844 9.72333 52.5077 9.85667 52.2944 9.95C52.081 10.0433 51.8377 10.09 51.5644 10.09ZM55.9927 10.07C55.8327 10.07 55.706 10.0267 55.6127 9.94C55.526 9.84667 55.4827 9.72 55.4827 9.56V5.56C55.4827 5.38667 55.526 5.26 55.6127 5.18C55.706 5.09333 55.8327 5.05 55.9927 5.05C56.1527 5.05 56.276 5.09333 56.3627 5.18C56.4493 5.26 56.4927 5.38667 56.4927 5.56V7.09H58.9227V5.56C58.9227 5.38667 58.9627 5.26 59.0427 5.18C59.1293 5.09333 59.256 5.05 59.4227 5.05C59.5827 5.05 59.706 5.09333 59.7927 5.18C59.886 5.26 59.9327 5.38667 59.9327 5.56V9.56C59.9327 9.72 59.886 9.84667 59.7927 9.94C59.706 10.0267 59.5827 10.07 59.4227 10.07C59.256 10.07 59.1293 10.0267 59.0427 9.94C58.9627 9.84667 58.9227 9.72 58.9227 9.56V7.89H56.4927V9.56C56.4927 9.72 56.4493 9.84667 56.3627 9.94C56.2827 10.0267 56.1593 10.07 55.9927 10.07ZM63.5697 10.09C63.0764 10.09 62.6497 9.98667 62.2897 9.78C61.9364 9.57333 61.6597 9.28 61.4597 8.9C61.2597 8.52 61.1597 8.07333 61.1597 7.56C61.1597 7.16667 61.2164 6.81667 61.3297 6.51C61.443 6.20333 61.603 5.94 61.8097 5.72C62.023 5.49333 62.2764 5.32333 62.5697 5.21C62.8697 5.09 63.203 5.03 63.5697 5.03C64.0564 5.03 64.4764 5.13333 64.8297 5.34C65.1897 5.54667 65.4697 5.84 65.6697 6.22C65.8697 6.59333 65.9697 7.04 65.9697 7.56C65.9697 7.94667 65.913 8.29667 65.7997 8.61C65.6864 8.92333 65.523 9.19 65.3097 9.41C65.103 9.63 64.8497 9.8 64.5497 9.92C64.2564 10.0333 63.9297 10.09 63.5697 10.09ZM63.5697 9.31C63.843 9.31 64.083 9.24333 64.2897 9.11C64.4964 8.97667 64.6564 8.78 64.7697 8.52C64.8897 8.26 64.9497 7.94 64.9497 7.56C64.9497 6.98667 64.823 6.55333 64.5697 6.26C64.3164 5.96667 63.983 5.82 63.5697 5.82C63.2897 5.82 63.0464 5.88667 62.8397 6.02C62.633 6.14667 62.4697 6.34 62.3497 6.6C62.2364 6.86 62.1797 7.18 62.1797 7.56C62.1797 8.12667 62.3064 8.56 62.5597 8.86C62.813 9.16 63.1497 9.31 63.5697 9.31ZM67.7212 10C67.5545 10 67.4278 9.95667 67.3412 9.87C67.2545 9.77667 67.2112 9.65 67.2112 9.49V5.64C67.2112 5.47333 67.2545 5.34667 67.3412 5.26C67.4278 5.16667 67.5545 5.12 67.7212 5.12H69.7012C70.1012 5.12 70.4278 5.17 70.6812 5.27C70.9412 5.37 71.1312 5.51667 71.2512 5.71C71.3712 5.89667 71.4312 6.12667 71.4312 6.4C71.4312 6.71333 71.3245 6.97667 71.1112 7.19C70.8978 7.39667 70.6178 7.52 70.2712 7.56V7.43C70.6912 7.45 71.0145 7.57 71.2412 7.79C71.4745 8.01 71.5912 8.29333 71.5912 8.64C71.5912 9.06 71.4345 9.39333 71.1212 9.64C70.8078 9.88 70.3612 10 69.7812 10H67.7212ZM68.1612 9.35H69.7212C70.0212 9.35 70.2512 9.28667 70.4112 9.16C70.5778 9.02667 70.6612 8.83667 70.6612 8.59C70.6612 8.34333 70.5778 8.15667 70.4112 8.03C70.2512 7.90333 70.0212 7.84 69.7212 7.84H68.1612V9.35ZM68.1612 7.19H69.6312C69.9045 7.19 70.1145 7.12667 70.2612 7C70.4145 6.87333 70.4912 6.7 70.4912 6.48C70.4912 6.25333 70.4145 6.08 70.2612 5.96C70.1145 5.84 69.9045 5.78 69.6312 5.78H68.1612V7.19ZM73.2378 10.07C73.1378 10.07 73.0511 10.05 72.9778 10.01C72.9111 9.97667 72.8578 9.92 72.8178 9.84C72.7845 9.76 72.7678 9.65667 72.7678 9.53V5.54C72.7678 5.38 72.8078 5.26 72.8878 5.18C72.9678 5.09333 73.0811 5.05 73.2278 5.05C73.3745 5.05 73.4878 5.09333 73.5678 5.18C73.6478 5.26 73.6878 5.38 73.6878 5.54V9H73.4278L76.1378 5.38C76.2045 5.29333 76.2811 5.21667 76.3678 5.15C76.4545 5.08333 76.5711 5.05 76.7178 5.05C76.8178 5.05 76.9011 5.07 76.9678 5.11C77.0345 5.14333 77.0845 5.2 77.1178 5.28C77.1578 5.36 77.1778 5.46333 77.1778 5.59V9.58C77.1778 9.73333 77.1378 9.85333 77.0578 9.94C76.9845 10.0267 76.8745 10.07 76.7278 10.07C76.5745 10.07 76.4578 10.0267 76.3778 9.94C76.2978 9.85333 76.2578 9.73333 76.2578 9.58V6.12H76.5278L73.8078 9.75C73.7478 9.83 73.6745 9.90333 73.5878 9.97C73.5078 10.0367 73.3911 10.07 73.2378 10.07ZM80.2255 10.07C80.0655 10.07 79.9389 10.0267 79.8455 9.94C79.7589 9.84667 79.7155 9.72 79.7155 9.56V5.93H78.3555C78.0622 5.93 77.9155 5.79333 77.9155 5.52C77.9155 5.4 77.9555 5.30333 78.0355 5.23C78.1155 5.15667 78.2222 5.12 78.3555 5.12H82.0855C82.3789 5.12 82.5255 5.25333 82.5255 5.52C82.5255 5.65333 82.4855 5.75667 82.4055 5.83C82.3322 5.89667 82.2255 5.93 82.0855 5.93H80.7255V9.56C80.7255 9.72 80.6822 9.84667 80.5955 9.94C80.5155 10.0267 80.3922 10.07 80.2255 10.07ZM85.5366 10.09C85.0032 10.09 84.5432 9.99 84.1566 9.79C83.7766 9.58333 83.4799 9.29333 83.2666 8.92C83.0599 8.54 82.9566 8.09 82.9566 7.57C82.9566 7.06333 83.0599 6.62 83.2666 6.24C83.4732 5.86 83.7566 5.56333 84.1166 5.35C84.4766 5.13667 84.8866 5.03 85.3466 5.03C85.6866 5.03 85.9899 5.08667 86.2566 5.2C86.5232 5.30667 86.7499 5.46667 86.9366 5.68C87.1299 5.88667 87.2732 6.14 87.3666 6.44C87.4666 6.74 87.5166 7.07667 87.5166 7.45C87.5166 7.56333 87.4832 7.65 87.4166 7.71C87.3499 7.76333 87.2499 7.79 87.1166 7.79H83.7566V7.17H86.8366L86.6666 7.31C86.6666 6.97667 86.6166 6.69333 86.5166 6.46C86.4232 6.22667 86.2799 6.05 86.0866 5.93C85.8999 5.80333 85.6666 5.74 85.3866 5.74C85.0732 5.74 84.8066 5.81333 84.5866 5.96C84.3732 6.10667 84.2099 6.31 84.0966 6.57C83.9832 6.83 83.9266 7.13333 83.9266 7.48V7.54C83.9266 8.12667 84.0632 8.57 84.3366 8.87C84.6166 9.16333 85.0199 9.31 85.5466 9.31C85.7466 9.31 85.9566 9.28333 86.1766 9.23C86.4032 9.17667 86.6166 9.08667 86.8166 8.96C86.9299 8.89333 87.0299 8.86333 87.1166 8.87C87.2099 8.87667 87.2832 8.90667 87.3366 8.96C87.3966 9.01333 87.4332 9.08 87.4466 9.16C87.4599 9.24 87.4466 9.32333 87.4066 9.41C87.3666 9.49 87.2966 9.56333 87.1966 9.63C86.9699 9.78333 86.7066 9.9 86.4066 9.98C86.1066 10.0533 85.8166 10.09 85.5366 10.09ZM91.8218 10.07C91.7218 10.07 91.6351 10.05 91.5618 10.01C91.4951 9.97667 91.4418 9.92 91.4018 9.84C91.3685 9.76 91.3518 9.65667 91.3518 9.53V5.54C91.3518 5.38 91.3918 5.26 91.4718 5.18C91.5518 5.09333 91.6651 5.05 91.8118 5.05C91.9585 5.05 92.0718 5.09333 92.1518 5.18C92.2318 5.26 92.2718 5.38 92.2718 5.54V9H92.0118L94.7218 5.38C94.7885 5.29333 94.8651 5.21667 94.9518 5.15C95.0385 5.08333 95.1551 5.05 95.3018 5.05C95.4018 5.05 95.4851 5.07 95.5518 5.11C95.6185 5.14333 95.6685 5.2 95.7018 5.28C95.7418 5.36 95.7618 5.46333 95.7618 5.59V9.58C95.7618 9.73333 95.7218 9.85333 95.6418 9.94C95.5685 10.0267 95.4585 10.07 95.3118 10.07C95.1585 10.07 95.0418 10.0267 94.9618 9.94C94.8818 9.85333 94.8418 9.73333 94.8418 9.58V6.12H95.1118L92.3918 9.75C92.3318 9.83 92.2585 9.90333 92.1718 9.97C92.0918 10.0367 91.9751 10.07 91.8218 10.07ZM98.9795 10.09C98.6395 10.09 98.3062 10.0567 97.9795 9.99C97.6529 9.91667 97.3695 9.81 97.1295 9.67C97.0295 9.61667 96.9595 9.55333 96.9195 9.48C96.8795 9.4 96.8629 9.32 96.8695 9.24C96.8762 9.15333 96.9029 9.08333 96.9495 9.03C97.0029 8.97 97.0695 8.93333 97.1495 8.92C97.2362 8.90667 97.3362 8.93 97.4495 8.99C97.6629 9.11 97.9029 9.2 98.1695 9.26C98.4362 9.31333 98.6995 9.34 98.9595 9.34C99.4129 9.34 99.7362 9.28 99.9295 9.16C100.13 9.03333 100.23 8.84667 100.23 8.6C100.23 8.37333 100.15 8.2 99.9895 8.08C99.8295 7.96 99.6029 7.9 99.3095 7.9H98.4295C98.3029 7.9 98.2029 7.86667 98.1295 7.8C98.0562 7.73333 98.0195 7.64333 98.0195 7.53C98.0195 7.41 98.0562 7.32 98.1295 7.26C98.2029 7.19333 98.3029 7.16 98.4295 7.16H99.1995C99.4595 7.16 99.6662 7.10333 99.8195 6.99C99.9795 6.87 100.06 6.70667 100.06 6.5C100.06 6.27333 99.9729 6.09667 99.7995 5.97C99.6262 5.84333 99.3329 5.78 98.9195 5.78C98.6729 5.78 98.4329 5.80667 98.1995 5.86C97.9662 5.91333 97.7429 5.99333 97.5295 6.1C97.3895 6.16667 97.2729 6.18333 97.1795 6.15C97.0862 6.11667 97.0162 6.05667 96.9695 5.97C96.9295 5.87667 96.9262 5.78333 96.9595 5.69C96.9929 5.59 97.0695 5.51 97.1895 5.45C97.4629 5.30333 97.7562 5.19667 98.0695 5.13C98.3829 5.06333 98.7162 5.03 99.0695 5.03C99.7029 5.03 100.18 5.15333 100.5 5.4C100.826 5.64 100.99 5.97333 100.99 6.4C100.99 6.71333 100.883 6.97667 100.67 7.19C100.463 7.39667 100.186 7.52 99.8395 7.56V7.43C100.246 7.45 100.57 7.57 100.81 7.79C101.05 8.00333 101.17 8.28667 101.17 8.64C101.17 9.08 100.983 9.43333 100.61 9.7C100.236 9.96 99.6929 10.09 98.9795 10.09Z" fill="#F7F9FF"/>
</svg>
