<svg width="115" height="32" viewBox="0 0 115 32" fill="none" xmlns="http://www.w3.org/2000/svg">
<path d="M0.4546 5.21328C0.135 5.5974 -0.026299 6.08914 0.00350096 6.58824V28.3132C-0.026299 28.8124 0.135 29.3041 0.4546 29.6882L0.523201 29.757L12.6724 17.5981V17.3132L0.523201 5.14453L0.4546 5.21328Z" fill="#F7F9FF"/>
<path d="M18.6541 21.6532L14.6338 17.597V17.3121L18.6541 13.2461L18.7424 13.2952L23.557 16.0353C24.9298 16.8112 24.9298 18.088 23.557 18.8737L18.762 21.6041L18.6541 21.6532Z" fill="#F7F9FF"/>
<path d="M17.7913 22.5762L13.6533 18.4316L1.43555 30.6691C2.01275 31.1774 2.86955 31.2021 3.47505 30.728L17.8011 22.5762" fill="#F7F9FF"/>
<path d="M17.7915 12.3234L3.46538 4.17163C2.85988 3.69753 2.00308 3.72228 1.42578 4.23056L13.6535 16.4681L17.7915 12.3234Z" fill="#F7F9FF"/>
<path fill-rule="evenodd" clip-rule="evenodd" d="M40.548 21.7065V23.4002H44.6672C44.6027 24.1979 44.2666 24.9506 43.7137 25.536C42.8804 26.3736 41.7271 26.8248 40.5385 26.778C38.0107 26.778 35.9615 24.756 35.9615 22.2617C35.9615 19.7674 38.0107 17.7454 40.5385 17.7454C41.6996 17.7267 42.821 18.1632 43.6565 18.9591L44.8675 17.7642C43.7279 16.6256 42.1697 15.9909 40.548 16.0047C38.2395 15.9161 36.0668 17.0808 34.8858 19.0401C33.7047 20.9994 33.7047 23.4392 34.8858 25.3986C36.0668 27.3579 38.2395 28.5226 40.548 28.4339C42.1993 28.5076 43.8022 27.8729 44.9438 26.6933C45.9428 25.6102 46.4762 24.1866 46.4313 22.7227C46.4344 22.3661 46.4024 22.01 46.3359 21.6595L40.548 21.7065ZM51.1227 20.474C48.8858 20.4792 47.0762 22.2718 47.0798 24.4791C47.0832 26.6863 48.8985 28.4733 51.1354 28.4716C53.3723 28.4699 55.1848 26.68 55.1848 24.4728C55.2005 23.4043 54.7759 22.3753 54.0083 21.6214C53.2408 20.8676 52.196 20.4535 51.1132 20.474H51.1227ZM55.9667 24.4853C55.9597 22.2793 57.7644 20.4844 60.0001 20.474C61.0829 20.4535 62.1277 20.8676 62.8953 21.6214C63.6628 22.3753 64.0874 23.4043 64.0717 24.4728C64.0717 26.6788 62.2612 28.4682 60.0255 28.4716C57.7899 28.475 55.9737 26.6913 55.9667 24.4853ZM57.6087 25.5251C58.0441 26.4245 58.9925 26.9698 60.0001 26.9003C60.6326 26.8858 61.2323 26.6199 61.6632 26.1628C62.0941 25.7058 62.3196 25.0963 62.2886 24.4728C62.2861 23.476 61.6665 22.5821 60.7259 22.2185C59.7854 21.8549 58.7152 22.0956 58.0272 22.8254C57.3392 23.5551 57.1732 24.6258 57.6087 25.5251ZM48.7249 25.5323C49.1634 26.4311 50.1145 26.9738 51.1227 26.9003H51.1132C51.7456 26.8858 52.3453 26.6199 52.7762 26.1628C53.2071 25.7058 53.4327 25.0963 53.4016 24.4728C53.3989 23.4753 52.778 22.581 51.8363 22.2181C50.8946 21.8553 49.8238 22.098 49.1368 22.8297C48.4498 23.5615 48.2864 24.6335 48.7249 25.5323ZM80.2818 20.474C81.8629 20.5315 83.2433 21.5459 83.7524 23.0238L83.9529 23.4472L78.5273 25.6583C78.8673 26.4226 79.6463 26.9039 80.4916 26.8721C81.3077 26.8741 82.0643 26.4524 82.4844 25.7618L83.8674 26.7027C83.1145 27.8143 81.8464 28.4788 80.4916 28.4716C79.4146 28.4871 78.3775 28.07 77.6186 27.3158C76.8597 26.5616 76.4442 25.5354 76.4676 24.4728C76.4017 23.4345 76.7743 22.4157 77.4968 21.6581C78.2195 20.9006 79.2275 20.472 80.2818 20.474ZM78.2221 24.3599C78.1831 23.772 78.3855 23.1933 78.7837 22.7544C79.182 22.3154 79.7425 22.053 80.339 22.0264C80.9677 21.9856 81.5603 22.3188 81.8456 22.8733L78.2221 24.3599ZM75.5999 28.2364H73.8168V16.4752H75.5999V28.2364ZM70.899 21.3678H70.8322C70.2887 20.7682 69.5116 20.4259 68.6963 20.4269C66.5319 20.5305 64.8311 22.2923 64.8311 24.4304C64.8311 26.5687 66.5319 28.3304 68.6963 28.4339C69.5143 28.4475 70.2964 28.103 70.8322 27.493H70.8895V28.067C70.8895 29.6006 70.0599 30.4192 68.725 30.4192C67.8155 30.3983 67.0093 29.8369 66.6844 28.9985L65.1301 29.6383C65.7286 31.0749 67.1509 32.0093 68.725 31.9999C70.8132 31.9999 72.5391 30.7862 72.5391 27.8318V20.7092H70.899V21.3678ZM68.8555 26.9L68.8584 26.9003H68.8489L68.8555 26.9ZM70.4623 26.1455C70.053 26.6024 69.4727 26.8749 68.8555 26.9C67.582 26.7878 66.6056 25.7348 66.6056 24.4728C66.6056 23.2098 67.5834 22.1562 68.8584 22.0453C69.4746 22.0765 70.0518 22.3518 70.4593 22.8088C70.8668 23.2659 71.07 23.8658 71.0229 24.4728C71.0756 25.0826 70.873 25.687 70.4623 26.1455ZM87.8436 16.4752V28.2364H89.6268V23.7765H92.1154C93.5001 23.8747 94.8252 23.2012 95.5478 22.0312C96.2713 20.8611 96.2713 19.3907 95.5478 18.2206C94.8252 17.0506 93.5001 16.377 92.1154 16.4752H87.8436ZM89.6173 22.1205H92.1058L92.1439 22.1488C93.2736 22.1488 94.189 21.2452 94.189 20.1305C94.189 19.0159 93.2736 18.1123 92.1439 18.1123H89.6173V22.1205ZM103.1 20.4269C101.773 20.3487 100.526 21.0546 99.9242 22.224L101.508 22.8733C101.827 22.2934 102.462 21.9539 103.129 22.0076C103.586 21.9549 104.046 22.0857 104.403 22.3706C104.762 22.6554 104.99 23.0705 105.035 23.5225V23.6448C104.463 23.3456 103.824 23.1905 103.176 23.1932C101.47 23.1932 99.7436 24.1341 99.7436 25.8371C99.7773 26.5707 100.111 27.2595 100.668 27.7469C101.224 28.2343 101.957 28.4787 102.7 28.4245C103.614 28.4894 104.492 28.0564 104.988 27.2955H105.045V28.2364H106.762V23.7106C106.762 21.6501 105.179 20.4552 103.148 20.4552L103.1 20.4269ZM101.489 25.8747C101.489 26.5804 102.299 26.8721 102.88 26.8721L102.928 26.9003C104.002 26.8744 104.894 26.0718 105.016 25.0185C104.522 24.7461 103.962 24.6095 103.396 24.6233C102.499 24.6233 101.489 24.9338 101.489 25.8747ZM113.016 20.7092L110.976 25.8088H110.919L108.802 20.7092H106.895L110.07 27.8412L108.259 31.8023H110.118L115 20.7092H113.016ZM98.7711 28.2364H96.9879V16.4752H98.7711V28.2364Z" fill="#F7F9FF"/>
<path opacity="0.4" d="M36.61 10.07C36.49 10.07 36.3867 10.04 36.3 9.98C36.2133 9.92 36.16 9.83667 36.14 9.73C36.1267 9.62333 36.1533 9.50333 36.22 9.37L37.09 7.68V8.04L34.31 3.58C34.2433 3.45333 34.2133 3.33667 34.22 3.23C34.2333 3.12333 34.2833 3.04 34.37 2.98C34.4567 2.91333 34.5633 2.88 34.69 2.88C34.8233 2.88 34.9267 2.91333 35 2.98C35.0733 3.04 35.1467 3.12667 35.22 3.24L37.59 7.1H37.39L39.36 3.25C39.42 3.14333 39.4867 3.05667 39.56 2.99C39.6333 2.91667 39.74 2.88 39.88 2.88C40 2.88 40.1 2.91 40.18 2.97C40.2667 3.03 40.32 3.11333 40.34 3.22C40.3667 3.32 40.34 3.44 40.26 3.58L37.13 9.7C37.0833 9.8 37.02 9.88667 36.94 9.96C36.86 10.0333 36.75 10.07 36.61 10.07ZM42.7989 10.09C42.2989 10.09 41.8656 9.98667 41.4989 9.78C41.1389 9.56667 40.8589 9.27 40.6589 8.89C40.4589 8.50333 40.3589 8.05 40.3589 7.53C40.3589 7.14333 40.4156 6.79667 40.5289 6.49C40.6422 6.17667 40.8022 5.91333 41.0089 5.7C41.2222 5.48667 41.4789 5.32333 41.7789 5.21C42.0856 5.09 42.4256 5.03 42.7989 5.03C43.0322 5.03 43.2756 5.06667 43.5289 5.14C43.7889 5.20667 44.0289 5.32 44.2489 5.48C44.3356 5.53333 44.3889 5.6 44.4089 5.68C44.4356 5.75333 44.4389 5.83 44.4189 5.91C44.4056 5.99 44.3689 6.06 44.3089 6.12C44.2556 6.17333 44.1889 6.20667 44.1089 6.22C44.0289 6.22667 43.9422 6.20333 43.8489 6.15C43.6889 6.03667 43.5256 5.95667 43.3589 5.91C43.1922 5.85667 43.0322 5.83 42.8789 5.83C42.6389 5.83 42.4256 5.87 42.2389 5.95C42.0589 6.02333 41.9056 6.13333 41.7789 6.28C41.6522 6.42 41.5556 6.59667 41.4889 6.81C41.4289 7.02333 41.3989 7.26667 41.3989 7.54C41.3989 8.08667 41.5256 8.51667 41.7789 8.83C42.0389 9.13667 42.4056 9.29 42.8789 9.29C43.0322 9.29 43.1922 9.26667 43.3589 9.22C43.5256 9.17333 43.6889 9.09333 43.8489 8.98C43.9422 8.92667 44.0289 8.90667 44.1089 8.92C44.1889 8.93333 44.2522 8.97 44.2989 9.03C44.3522 9.08333 44.3856 9.15 44.3989 9.23C44.4189 9.30333 44.4156 9.38 44.3889 9.46C44.3622 9.54 44.3056 9.60667 44.2189 9.66C44.0056 9.81333 43.7722 9.92333 43.5189 9.99C43.2722 10.0567 43.0322 10.09 42.7989 10.09ZM46.9541 10.07C46.7941 10.07 46.6674 10.0267 46.5741 9.94C46.4874 9.84667 46.4441 9.72 46.4441 9.56V5.93H45.0841C44.7907 5.93 44.6441 5.79333 44.6441 5.52C44.6441 5.4 44.6841 5.30333 44.7641 5.23C44.8441 5.15667 44.9507 5.12 45.0841 5.12H48.8141C49.1074 5.12 49.2541 5.25333 49.2541 5.52C49.2541 5.65333 49.2141 5.75667 49.1341 5.83C49.0607 5.89667 48.9541 5.93 48.8141 5.93H47.4541V9.56C47.4541 9.72 47.4107 9.84667 47.3241 9.94C47.2441 10.0267 47.1207 10.07 46.9541 10.07ZM51.5644 10.09C51.2244 10.09 50.9177 10.0233 50.6444 9.89C50.3777 9.75667 50.1677 9.57667 50.0144 9.35C49.861 9.12333 49.7844 8.86667 49.7844 8.58C49.7844 8.22 49.8744 7.93667 50.0544 7.73C50.241 7.51667 50.5444 7.36667 50.9644 7.28C51.391 7.18667 51.9644 7.14 52.6844 7.14H53.1544V7.76H52.6944C52.2144 7.76 51.8344 7.78333 51.5544 7.83C51.2744 7.87667 51.0744 7.95667 50.9544 8.07C50.841 8.17667 50.7844 8.32667 50.7844 8.52C50.7844 8.77333 50.871 8.98 51.0444 9.14C51.2177 9.29333 51.4577 9.37 51.7644 9.37C52.011 9.37 52.2277 9.31333 52.4144 9.2C52.601 9.08 52.7477 8.92 52.8544 8.72C52.9677 8.52 53.0244 8.29 53.0244 8.03V6.88C53.0244 6.5 52.9444 6.22667 52.7844 6.06C52.6244 5.89333 52.361 5.81 51.9944 5.81C51.781 5.81 51.5577 5.83667 51.3244 5.89C51.0977 5.94333 50.861 6.03333 50.6144 6.16C50.501 6.21333 50.4044 6.23 50.3244 6.21C50.2444 6.19 50.181 6.14667 50.1344 6.08C50.0877 6.00667 50.061 5.93 50.0544 5.85C50.0544 5.76333 50.0744 5.68 50.1144 5.6C50.161 5.52 50.2377 5.46 50.3444 5.42C50.6377 5.28 50.9277 5.18 51.2144 5.12C51.501 5.06 51.771 5.03 52.0244 5.03C52.471 5.03 52.8377 5.1 53.1244 5.24C53.4177 5.38 53.6344 5.59333 53.7744 5.88C53.9144 6.16667 53.9844 6.53667 53.9844 6.99V9.56C53.9844 9.72 53.9444 9.84667 53.8644 9.94C53.7844 10.0267 53.6677 10.07 53.5144 10.07C53.3677 10.07 53.251 10.0267 53.1644 9.94C53.0777 9.84667 53.0344 9.72 53.0344 9.56V8.91H53.1244C53.071 9.15667 52.971 9.37 52.8244 9.55C52.6844 9.72333 52.5077 9.85667 52.2944 9.95C52.081 10.0433 51.8377 10.09 51.5644 10.09ZM55.9927 10.07C55.8327 10.07 55.706 10.0267 55.6127 9.94C55.526 9.84667 55.4827 9.72 55.4827 9.56V5.56C55.4827 5.38667 55.526 5.26 55.6127 5.18C55.706 5.09333 55.8327 5.05 55.9927 5.05C56.1527 5.05 56.276 5.09333 56.3627 5.18C56.4493 5.26 56.4927 5.38667 56.4927 5.56V7.09H58.9227V5.56C58.9227 5.38667 58.9627 5.26 59.0427 5.18C59.1293 5.09333 59.256 5.05 59.4227 5.05C59.5827 5.05 59.706 5.09333 59.7927 5.18C59.886 5.26 59.9327 5.38667 59.9327 5.56V9.56C59.9327 9.72 59.886 9.84667 59.7927 9.94C59.706 10.0267 59.5827 10.07 59.4227 10.07C59.256 10.07 59.1293 10.0267 59.0427 9.94C58.9627 9.84667 58.9227 9.72 58.9227 9.56V7.89H56.4927V9.56C56.4927 9.72 56.4493 9.84667 56.3627 9.94C56.2827 10.0267 56.1593 10.07 55.9927 10.07ZM63.5697 10.09C63.0764 10.09 62.6497 9.98667 62.2897 9.78C61.9364 9.57333 61.6597 9.28 61.4597 8.9C61.2597 8.52 61.1597 8.07333 61.1597 7.56C61.1597 7.16667 61.2164 6.81667 61.3297 6.51C61.443 6.20333 61.603 5.94 61.8097 5.72C62.023 5.49333 62.2764 5.32333 62.5697 5.21C62.8697 5.09 63.203 5.03 63.5697 5.03C64.0564 5.03 64.4764 5.13333 64.8297 5.34C65.1897 5.54667 65.4697 5.84 65.6697 6.22C65.8697 6.59333 65.9697 7.04 65.9697 7.56C65.9697 7.94667 65.913 8.29667 65.7997 8.61C65.6864 8.92333 65.523 9.19 65.3097 9.41C65.103 9.63 64.8497 9.8 64.5497 9.92C64.2564 10.0333 63.9297 10.09 63.5697 10.09ZM63.5697 9.31C63.843 9.31 64.083 9.24333 64.2897 9.11C64.4964 8.97667 64.6564 8.78 64.7697 8.52C64.8897 8.26 64.9497 7.94 64.9497 7.56C64.9497 6.98667 64.823 6.55333 64.5697 6.26C64.3164 5.96667 63.983 5.82 63.5697 5.82C63.2897 5.82 63.0464 5.88667 62.8397 6.02C62.633 6.14667 62.4697 6.34 62.3497 6.6C62.2364 6.86 62.1797 7.18 62.1797 7.56C62.1797 8.12667 62.3064 8.56 62.5597 8.86C62.813 9.16 63.1497 9.31 63.5697 9.31ZM67.7212 10C67.5545 10 67.4278 9.95667 67.3412 9.87C67.2545 9.77667 67.2112 9.65 67.2112 9.49V5.64C67.2112 5.47333 67.2545 5.34667 67.3412 5.26C67.4278 5.16667 67.5545 5.12 67.7212 5.12H69.7012C70.1012 5.12 70.4278 5.17 70.6812 5.27C70.9412 5.37 71.1312 5.51667 71.2512 5.71C71.3712 5.89667 71.4312 6.12667 71.4312 6.4C71.4312 6.71333 71.3245 6.97667 71.1112 7.19C70.8978 7.39667 70.6178 7.52 70.2712 7.56V7.43C70.6912 7.45 71.0145 7.57 71.2412 7.79C71.4745 8.01 71.5912 8.29333 71.5912 8.64C71.5912 9.06 71.4345 9.39333 71.1212 9.64C70.8078 9.88 70.3612 10 69.7812 10H67.7212ZM68.1612 9.35H69.7212C70.0212 9.35 70.2512 9.28667 70.4112 9.16C70.5778 9.02667 70.6612 8.83667 70.6612 8.59C70.6612 8.34333 70.5778 8.15667 70.4112 8.03C70.2512 7.90333 70.0212 7.84 69.7212 7.84H68.1612V9.35ZM68.1612 7.19H69.6312C69.9045 7.19 70.1145 7.12667 70.2612 7C70.4145 6.87333 70.4912 6.7 70.4912 6.48C70.4912 6.25333 70.4145 6.08 70.2612 5.96C70.1145 5.84 69.9045 5.78 69.6312 5.78H68.1612V7.19ZM73.2378 10.07C73.1378 10.07 73.0511 10.05 72.9778 10.01C72.9111 9.97667 72.8578 9.92 72.8178 9.84C72.7845 9.76 72.7678 9.65667 72.7678 9.53V5.54C72.7678 5.38 72.8078 5.26 72.8878 5.18C72.9678 5.09333 73.0811 5.05 73.2278 5.05C73.3745 5.05 73.4878 5.09333 73.5678 5.18C73.6478 5.26 73.6878 5.38 73.6878 5.54V9H73.4278L76.1378 5.38C76.2045 5.29333 76.2811 5.21667 76.3678 5.15C76.4545 5.08333 76.5711 5.05 76.7178 5.05C76.8178 5.05 76.9011 5.07 76.9678 5.11C77.0345 5.14333 77.0845 5.2 77.1178 5.28C77.1578 5.36 77.1778 5.46333 77.1778 5.59V9.58C77.1778 9.73333 77.1378 9.85333 77.0578 9.94C76.9845 10.0267 76.8745 10.07 76.7278 10.07C76.5745 10.07 76.4578 10.0267 76.3778 9.94C76.2978 9.85333 76.2578 9.73333 76.2578 9.58V6.12H76.5278L73.8078 9.75C73.7478 9.83 73.6745 9.90333 73.5878 9.97C73.5078 10.0367 73.3911 10.07 73.2378 10.07ZM80.2255 10.07C80.0655 10.07 79.9389 10.0267 79.8455 9.94C79.7589 9.84667 79.7155 9.72 79.7155 9.56V5.93H78.3555C78.0622 5.93 77.9155 5.79333 77.9155 5.52C77.9155 5.4 77.9555 5.30333 78.0355 5.23C78.1155 5.15667 78.2222 5.12 78.3555 5.12H82.0855C82.3789 5.12 82.5255 5.25333 82.5255 5.52C82.5255 5.65333 82.4855 5.75667 82.4055 5.83C82.3322 5.89667 82.2255 5.93 82.0855 5.93H80.7255V9.56C80.7255 9.72 80.6822 9.84667 80.5955 9.94C80.5155 10.0267 80.3922 10.07 80.2255 10.07ZM85.5366 10.09C85.0032 10.09 84.5432 9.99 84.1566 9.79C83.7766 9.58333 83.4799 9.29333 83.2666 8.92C83.0599 8.54 82.9566 8.09 82.9566 7.57C82.9566 7.06333 83.0599 6.62 83.2666 6.24C83.4732 5.86 83.7566 5.56333 84.1166 5.35C84.4766 5.13667 84.8866 5.03 85.3466 5.03C85.6866 5.03 85.9899 5.08667 86.2566 5.2C86.5232 5.30667 86.7499 5.46667 86.9366 5.68C87.1299 5.88667 87.2732 6.14 87.3666 6.44C87.4666 6.74 87.5166 7.07667 87.5166 7.45C87.5166 7.56333 87.4832 7.65 87.4166 7.71C87.3499 7.76333 87.2499 7.79 87.1166 7.79H83.7566V7.17H86.8366L86.6666 7.31C86.6666 6.97667 86.6166 6.69333 86.5166 6.46C86.4232 6.22667 86.2799 6.05 86.0866 5.93C85.8999 5.80333 85.6666 5.74 85.3866 5.74C85.0732 5.74 84.8066 5.81333 84.5866 5.96C84.3732 6.10667 84.2099 6.31 84.0966 6.57C83.9832 6.83 83.9266 7.13333 83.9266 7.48V7.54C83.9266 8.12667 84.0632 8.57 84.3366 8.87C84.6166 9.16333 85.0199 9.31 85.5466 9.31C85.7466 9.31 85.9566 9.28333 86.1766 9.23C86.4032 9.17667 86.6166 9.08667 86.8166 8.96C86.9299 8.89333 87.0299 8.86333 87.1166 8.87C87.2099 8.87667 87.2832 8.90667 87.3366 8.96C87.3966 9.01333 87.4332 9.08 87.4466 9.16C87.4599 9.24 87.4466 9.32333 87.4066 9.41C87.3666 9.49 87.2966 9.56333 87.1966 9.63C86.9699 9.78333 86.7066 9.9 86.4066 9.98C86.1066 10.0533 85.8166 10.09 85.5366 10.09ZM91.8218 10.07C91.7218 10.07 91.6351 10.05 91.5618 10.01C91.4951 9.97667 91.4418 9.92 91.4018 9.84C91.3685 9.76 91.3518 9.65667 91.3518 9.53V5.54C91.3518 5.38 91.3918 5.26 91.4718 5.18C91.5518 5.09333 91.6651 5.05 91.8118 5.05C91.9585 5.05 92.0718 5.09333 92.1518 5.18C92.2318 5.26 92.2718 5.38 92.2718 5.54V9H92.0118L94.7218 5.38C94.7885 5.29333 94.8651 5.21667 94.9518 5.15C95.0385 5.08333 95.1551 5.05 95.3018 5.05C95.4018 5.05 95.4851 5.07 95.5518 5.11C95.6185 5.14333 95.6685 5.2 95.7018 5.28C95.7418 5.36 95.7618 5.46333 95.7618 5.59V9.58C95.7618 9.73333 95.7218 9.85333 95.6418 9.94C95.5685 10.0267 95.4585 10.07 95.3118 10.07C95.1585 10.07 95.0418 10.0267 94.9618 9.94C94.8818 9.85333 94.8418 9.73333 94.8418 9.58V6.12H95.1118L92.3918 9.75C92.3318 9.83 92.2585 9.90333 92.1718 9.97C92.0918 10.0367 91.9751 10.07 91.8218 10.07ZM98.9795 10.09C98.6395 10.09 98.3062 10.0567 97.9795 9.99C97.6529 9.91667 97.3695 9.81 97.1295 9.67C97.0295 9.61667 96.9595 9.55333 96.9195 9.48C96.8795 9.4 96.8629 9.32 96.8695 9.24C96.8762 9.15333 96.9029 9.08333 96.9495 9.03C97.0029 8.97 97.0695 8.93333 97.1495 8.92C97.2362 8.90667 97.3362 8.93 97.4495 8.99C97.6629 9.11 97.9029 9.2 98.1695 9.26C98.4362 9.31333 98.6995 9.34 98.9595 9.34C99.4129 9.34 99.7362 9.28 99.9295 9.16C100.13 9.03333 100.23 8.84667 100.23 8.6C100.23 8.37333 100.15 8.2 99.9895 8.08C99.8295 7.96 99.6029 7.9 99.3095 7.9H98.4295C98.3029 7.9 98.2029 7.86667 98.1295 7.8C98.0562 7.73333 98.0195 7.64333 98.0195 7.53C98.0195 7.41 98.0562 7.32 98.1295 7.26C98.2029 7.19333 98.3029 7.16 98.4295 7.16H99.1995C99.4595 7.16 99.6662 7.10333 99.8195 6.99C99.9795 6.87 100.06 6.70667 100.06 6.5C100.06 6.27333 99.9729 6.09667 99.7995 5.97C99.6262 5.84333 99.3329 5.78 98.9195 5.78C98.6729 5.78 98.4329 5.80667 98.1995 5.86C97.9662 5.91333 97.7429 5.99333 97.5295 6.1C97.3895 6.16667 97.2729 6.18333 97.1795 6.15C97.0862 6.11667 97.0162 6.05667 96.9695 5.97C96.9295 5.87667 96.9262 5.78333 96.9595 5.69C96.9929 5.59 97.0695 5.51 97.1895 5.45C97.4629 5.30333 97.7562 5.19667 98.0695 5.13C98.3829 5.06333 98.7162 5.03 99.0695 5.03C99.7029 5.03 100.18 5.15333 100.5 5.4C100.826 5.64 100.99 5.97333 100.99 6.4C100.99 6.71333 100.883 6.97667 100.67 7.19C100.463 7.39667 100.186 7.52 99.8395 7.56V7.43C100.246 7.45 100.57 7.57 100.81 7.79C101.05 8.00333 101.17 8.28667 101.17 8.64C101.17 9.08 100.983 9.43333 100.61 9.7C100.236 9.96 99.6929 10.09 98.9795 10.09Z" fill="#F7F9FF"/>
</svg>
