<svg width="105" height="30" viewBox="0 0 105 30" fill="none" xmlns="http://www.w3.org/2000/svg">
<path fill-rule="evenodd" clip-rule="evenodd" d="M12.96 30C6.85055 30 3.79588 30 1.89783 28.102C3.96702e-07 26.2041 0 23.1494 0 17.04V15.96C0 9.85058 3.96702e-07 6.79586 1.89783 4.89788C3.79588 3 6.85055 3 12.96 3H14.04C20.1494 3 23.2041 3 25.1021 4.89788C27 6.79586 27 9.85058 27 15.96V17.04C27 23.1494 27 26.2041 25.1021 28.102C23.2041 30 20.1494 30 14.04 30H12.96ZM19.0202 20.4903L20.8446 20.946C21.6708 21.1525 22.4718 20.5308 22.4718 19.6831V10.8903C22.4718 10.144 21.9618 9.49316 21.2343 9.31159L16.0018 8.00434C15.1755 7.79801 14.3745 8.41969 14.3745 9.26749V10.8525L11.0776 10.0289C10.2514 9.82256 9.45043 10.4442 9.45043 11.2919V12.8769L6.15339 12.0534C5.3271 11.847 4.5261 12.4687 4.5261 13.3164V22.1091C4.5261 22.8555 5.03614 23.5062 5.76359 23.688L10.9961 24.995C11.8224 25.2014 12.6235 24.5798 12.6235 23.732V22.2701L12.6224 22.2699L12.6237 14.9521C12.6237 14.2104 12.1552 13.7803 11.9849 13.6485C11.9525 13.6234 11.9435 13.5765 11.9668 13.5427C11.9896 13.5094 12.031 13.4937 12.0697 13.5054C12.7591 13.7135 13.4188 14.4203 13.4847 15.3091L13.7123 22.0241C13.7197 22.2447 13.8625 22.4359 14.0678 22.5078L15.9204 22.9706C16.7467 23.177 17.5477 22.5553 17.5477 21.7075L17.549 12.9286C17.549 12.1867 17.0805 11.7567 16.9102 11.6249C16.8778 11.5997 16.8688 11.5529 16.892 11.5191C16.915 11.4858 16.9563 11.47 16.9951 11.4817C17.6843 11.6898 18.3441 12.3967 18.4099 13.2854L18.6376 19.9999C18.6454 20.2297 18.8006 20.4274 19.0202 20.4903Z" fill="#F7F9FF"/>
<path d="M44.1429 28.9991H41.7691L38.0022 23.7414H36.0207V28.9991H34V15.168H38.8654C39.8072 15.168 40.6508 15.3511 41.3963 15.7172C42.1418 16.0835 42.7172 16.5936 43.1227 17.2475C43.5412 17.8885 43.7505 18.6274 43.7505 19.4645C43.7505 20.5109 43.4301 21.4067 42.7892 22.1522C42.1483 22.8847 41.2916 23.3686 40.2191 23.6041L44.1429 28.9991ZM36.0207 17.0318V21.8972H38.8654C39.7025 21.8972 40.3762 21.6748 40.8862 21.2302C41.4094 20.7724 41.6709 20.1838 41.6709 19.4645C41.6709 18.7451 41.4094 18.1631 40.8862 17.7184C40.3762 17.2607 39.7025 17.0318 38.8654 17.0318H36.0207Z" fill="#F7F9FF"/>
<path d="M50.0319 28.9983C49.2634 28.9983 48.5719 28.8251 47.9572 28.4786C47.3425 28.1194 46.8604 27.6318 46.5111 27.016C46.1619 26.3873 45.9873 25.6815 45.9873 24.8988V18.8555H48.041V24.7449C48.041 25.5019 48.2715 26.1178 48.7325 26.5925C49.1936 27.0673 49.7874 27.3047 50.5138 27.3047C51.2683 27.3047 51.8969 27.0609 52.3999 26.5733C52.9028 26.0857 53.1543 25.4763 53.1543 24.7449V18.8555H55.2081V28.8058H53.7411L53.2591 27.3047C52.9099 27.8436 52.4488 28.2606 51.876 28.5556C51.3171 28.8507 50.7024 28.9983 50.0319 28.9983Z" fill="#F7F9FF"/>
<path d="M62.3944 28.9991C61.0955 28.9991 59.964 28.6812 59 28.0452C58.0494 27.3967 57.3999 26.5191 57.0518 25.4125L59.0401 25.1073C59.4285 25.8195 59.8905 26.3473 60.426 26.6907C60.9616 27.0215 61.6177 27.1868 62.3944 27.1868C63.1843 27.1868 63.827 27.0215 64.3225 26.6907C64.8179 26.3473 65.0655 25.8832 65.0655 25.2981C65.0655 24.8656 64.925 24.5032 64.6438 24.2107C64.376 23.9182 64.0346 23.6829 63.6195 23.5048C63.2044 23.3267 62.6621 23.1296 61.9926 22.9134C61.0955 22.6336 60.3591 22.3537 59.7833 22.074C59.2076 21.7942 58.7188 21.3999 58.3171 20.8912C57.9288 20.3697 57.7346 19.7085 57.7346 18.9072C57.7346 18.1568 57.9288 17.5017 58.3171 16.9421C58.7188 16.3699 59.2678 15.9311 59.9641 15.6258C60.6604 15.3205 61.437 15.168 62.294 15.168C63.4856 15.168 64.5099 15.4668 65.3669 16.0646C66.2238 16.6496 66.8331 17.4572 67.1946 18.4874L65.2464 18.7927C64.9786 18.2076 64.597 17.7624 64.1015 17.4572C63.6061 17.1393 63.0237 16.9803 62.3542 16.9803C61.6311 16.9803 61.0353 17.1456 60.5666 17.4763C60.0979 17.7943 59.8636 18.233 59.8636 18.7927C59.8636 19.2124 59.9975 19.5685 60.2654 19.861C60.5465 20.1536 60.888 20.3888 61.2897 20.5668C61.7047 20.7449 62.2538 20.9484 62.9366 21.1774C63.8069 21.4572 64.53 21.7433 65.1057 22.0358C65.6949 22.3156 66.1903 22.7163 66.592 23.2377C66.9937 23.7592 67.1946 24.4142 67.1946 25.2027C67.1946 25.9659 66.9803 26.6335 66.5518 27.2058C66.1368 27.7781 65.5611 28.2233 64.8246 28.5412C64.1015 28.8465 63.2915 28.9991 62.3944 28.9991Z" fill="#F7F9FF"/>
<path d="M74.5717 27.3346L74.408 28.9989H72.7486C71.7635 28.9989 71.0166 28.7409 70.5059 28.2248C69.9953 27.7087 69.7396 26.9668 69.7396 25.9991V20.6767H68.1172V18.9929H69.7396L70.2324 16.0898H71.5264V18.9929H74.408V20.6767H71.5264V25.9991C71.5264 26.8894 71.9338 27.3346 72.7486 27.3346H74.5717Z" fill="#F7F9FF"/>
<path d="M81.0261 28.9983C79.9582 28.9983 79.006 28.7842 78.1686 28.3561C77.3312 27.928 76.6758 27.3298 76.2023 26.5617C75.7299 25.7937 75.4932 24.9185 75.4932 23.9363C75.4932 22.9542 75.7299 22.079 76.2023 21.3109C76.6758 20.5428 77.3312 19.9446 78.1686 19.5165C79.006 19.0758 79.9582 18.8555 81.0261 18.8555C82.0934 18.8555 83.045 19.0758 83.8822 19.5165C84.7213 19.9446 85.3751 20.5428 85.849 21.3109C86.3211 22.079 86.5581 22.9542 86.5581 23.9363C86.5581 24.9185 86.3211 25.7937 85.849 26.5617C85.3751 27.3298 84.7213 27.928 83.8822 28.3561C83.045 28.7842 82.0934 28.9983 81.0261 28.9983ZM81.0261 27.2984C82.0528 27.2984 82.8827 26.9899 83.5189 26.3729C84.1672 25.7559 84.4917 24.9437 84.4917 23.9363C84.4917 22.929 84.1672 22.1168 83.5189 21.4998C82.8827 20.8701 82.0528 20.5554 81.0261 20.5554C79.9986 20.5554 79.1683 20.8701 78.5335 21.4998C77.8979 22.1168 77.5805 22.929 77.5805 23.9363C77.5805 24.931 77.8979 25.7433 78.5335 26.3729C79.1683 26.9899 79.9986 27.2984 81.0261 27.2984Z" fill="#F7F9FF"/>
<path d="M88.4023 28.9983V18.8555H89.9016L90.3452 20.3073C90.6688 19.7972 91.0708 19.4309 91.5485 19.2086C92.027 18.9731 92.5978 18.8555 93.2589 18.8555H93.7661L93.9348 20.6996H92.7518C91.9929 20.6996 91.4221 20.9024 91.0423 21.3078C90.6624 21.7133 90.4715 22.2626 90.4715 22.9558V28.9983H88.4023Z" fill="#F7F9FF"/>
<path d="M105 23.8608C105 24.1126 104.994 24.3078 104.98 24.4463H96.0646C96.1762 25.3152 96.5524 26.0077 97.1923 26.524C97.8322 27.0403 98.6474 27.2984 99.6349 27.2984C100.317 27.2984 100.922 27.1787 101.451 26.9396C101.994 26.6877 102.405 26.3603 102.683 25.9573L104.604 26.2407C104.186 27.1221 103.511 27.8021 102.578 28.2806C101.661 28.759 100.637 28.9983 99.5104 28.9983C98.439 28.9983 97.4782 28.7842 96.6289 28.3561C95.7806 27.9154 95.1186 27.3109 94.6455 26.5429C94.1716 25.7748 93.9355 24.9059 93.9355 23.9363C93.9355 22.9542 94.1716 22.079 94.6455 21.3109C95.1186 20.5428 95.7723 19.9446 96.6077 19.5165C97.4431 19.0758 98.3956 18.8555 99.4689 18.8555C100.527 18.8555 101.472 19.0758 102.307 19.5165C103.157 19.9446 103.817 20.5428 104.291 21.3109C104.764 22.0664 105 22.9164 105 23.8608ZM99.4689 20.4987C98.6474 20.4987 97.9374 20.7191 97.338 21.1597C96.7534 21.6005 96.3643 22.1923 96.1688 22.9353H102.767C102.586 22.2049 102.196 21.6194 101.598 21.1786C101.012 20.7254 100.303 20.4987 99.4689 20.4987Z" fill="#F7F9FF"/>
<path opacity="0.4" d="M36.61 10.07C36.49 10.07 36.3867 10.04 36.3 9.98C36.2133 9.92 36.16 9.83667 36.14 9.73C36.1267 9.62333 36.1533 9.50333 36.22 9.37L37.09 7.68V8.04L34.31 3.58C34.2433 3.45333 34.2133 3.33667 34.22 3.23C34.2333 3.12333 34.2833 3.04 34.37 2.98C34.4567 2.91333 34.5633 2.88 34.69 2.88C34.8233 2.88 34.9267 2.91333 35 2.98C35.0733 3.04 35.1467 3.12667 35.22 3.24L37.59 7.1H37.39L39.36 3.25C39.42 3.14333 39.4867 3.05667 39.56 2.99C39.6333 2.91667 39.74 2.88 39.88 2.88C40 2.88 40.1 2.91 40.18 2.97C40.2667 3.03 40.32 3.11333 40.34 3.22C40.3667 3.32 40.34 3.44 40.26 3.58L37.13 9.7C37.0833 9.8 37.02 9.88667 36.94 9.96C36.86 10.0333 36.75 10.07 36.61 10.07ZM42.7989 10.09C42.2989 10.09 41.8656 9.98667 41.4989 9.78C41.1389 9.56667 40.8589 9.27 40.6589 8.89C40.4589 8.50333 40.3589 8.05 40.3589 7.53C40.3589 7.14333 40.4156 6.79667 40.5289 6.49C40.6422 6.17667 40.8022 5.91333 41.0089 5.7C41.2222 5.48667 41.4789 5.32333 41.7789 5.21C42.0856 5.09 42.4256 5.03 42.7989 5.03C43.0322 5.03 43.2756 5.06667 43.5289 5.14C43.7889 5.20667 44.0289 5.32 44.2489 5.48C44.3356 5.53333 44.3889 5.6 44.4089 5.68C44.4356 5.75333 44.4389 5.83 44.4189 5.91C44.4056 5.99 44.3689 6.06 44.3089 6.12C44.2556 6.17333 44.1889 6.20667 44.1089 6.22C44.0289 6.22667 43.9422 6.20333 43.8489 6.15C43.6889 6.03667 43.5256 5.95667 43.3589 5.91C43.1922 5.85667 43.0322 5.83 42.8789 5.83C42.6389 5.83 42.4256 5.87 42.2389 5.95C42.0589 6.02333 41.9056 6.13333 41.7789 6.28C41.6522 6.42 41.5556 6.59667 41.4889 6.81C41.4289 7.02333 41.3989 7.26667 41.3989 7.54C41.3989 8.08667 41.5256 8.51667 41.7789 8.83C42.0389 9.13667 42.4056 9.29 42.8789 9.29C43.0322 9.29 43.1922 9.26667 43.3589 9.22C43.5256 9.17333 43.6889 9.09333 43.8489 8.98C43.9422 8.92667 44.0289 8.90667 44.1089 8.92C44.1889 8.93333 44.2522 8.97 44.2989 9.03C44.3522 9.08333 44.3856 9.15 44.3989 9.23C44.4189 9.30333 44.4156 9.38 44.3889 9.46C44.3622 9.54 44.3056 9.60667 44.2189 9.66C44.0056 9.81333 43.7722 9.92333 43.5189 9.99C43.2722 10.0567 43.0322 10.09 42.7989 10.09ZM46.9541 10.07C46.7941 10.07 46.6674 10.0267 46.5741 9.94C46.4874 9.84667 46.4441 9.72 46.4441 9.56V5.93H45.0841C44.7907 5.93 44.6441 5.79333 44.6441 5.52C44.6441 5.4 44.6841 5.30333 44.7641 5.23C44.8441 5.15667 44.9507 5.12 45.0841 5.12H48.8141C49.1074 5.12 49.2541 5.25333 49.2541 5.52C49.2541 5.65333 49.2141 5.75667 49.1341 5.83C49.0607 5.89667 48.9541 5.93 48.8141 5.93H47.4541V9.56C47.4541 9.72 47.4107 9.84667 47.3241 9.94C47.2441 10.0267 47.1207 10.07 46.9541 10.07ZM51.5644 10.09C51.2244 10.09 50.9177 10.0233 50.6444 9.89C50.3777 9.75667 50.1677 9.57667 50.0144 9.35C49.861 9.12333 49.7844 8.86667 49.7844 8.58C49.7844 8.22 49.8744 7.93667 50.0544 7.73C50.241 7.51667 50.5444 7.36667 50.9644 7.28C51.391 7.18667 51.9644 7.14 52.6844 7.14H53.1544V7.76H52.6944C52.2144 7.76 51.8344 7.78333 51.5544 7.83C51.2744 7.87667 51.0744 7.95667 50.9544 8.07C50.841 8.17667 50.7844 8.32667 50.7844 8.52C50.7844 8.77333 50.871 8.98 51.0444 9.14C51.2177 9.29333 51.4577 9.37 51.7644 9.37C52.011 9.37 52.2277 9.31333 52.4144 9.2C52.601 9.08 52.7477 8.92 52.8544 8.72C52.9677 8.52 53.0244 8.29 53.0244 8.03V6.88C53.0244 6.5 52.9444 6.22667 52.7844 6.06C52.6244 5.89333 52.361 5.81 51.9944 5.81C51.781 5.81 51.5577 5.83667 51.3244 5.89C51.0977 5.94333 50.861 6.03333 50.6144 6.16C50.501 6.21333 50.4044 6.23 50.3244 6.21C50.2444 6.19 50.181 6.14667 50.1344 6.08C50.0877 6.00667 50.061 5.93 50.0544 5.85C50.0544 5.76333 50.0744 5.68 50.1144 5.6C50.161 5.52 50.2377 5.46 50.3444 5.42C50.6377 5.28 50.9277 5.18 51.2144 5.12C51.501 5.06 51.771 5.03 52.0244 5.03C52.471 5.03 52.8377 5.1 53.1244 5.24C53.4177 5.38 53.6344 5.59333 53.7744 5.88C53.9144 6.16667 53.9844 6.53667 53.9844 6.99V9.56C53.9844 9.72 53.9444 9.84667 53.8644 9.94C53.7844 10.0267 53.6677 10.07 53.5144 10.07C53.3677 10.07 53.251 10.0267 53.1644 9.94C53.0777 9.84667 53.0344 9.72 53.0344 9.56V8.91H53.1244C53.071 9.15667 52.971 9.37 52.8244 9.55C52.6844 9.72333 52.5077 9.85667 52.2944 9.95C52.081 10.0433 51.8377 10.09 51.5644 10.09ZM55.9927 10.07C55.8327 10.07 55.706 10.0267 55.6127 9.94C55.526 9.84667 55.4827 9.72 55.4827 9.56V5.56C55.4827 5.38667 55.526 5.26 55.6127 5.18C55.706 5.09333 55.8327 5.05 55.9927 5.05C56.1527 5.05 56.276 5.09333 56.3627 5.18C56.4493 5.26 56.4927 5.38667 56.4927 5.56V7.09H58.9227V5.56C58.9227 5.38667 58.9627 5.26 59.0427 5.18C59.1293 5.09333 59.256 5.05 59.4227 5.05C59.5827 5.05 59.706 5.09333 59.7927 5.18C59.886 5.26 59.9327 5.38667 59.9327 5.56V9.56C59.9327 9.72 59.886 9.84667 59.7927 9.94C59.706 10.0267 59.5827 10.07 59.4227 10.07C59.256 10.07 59.1293 10.0267 59.0427 9.94C58.9627 9.84667 58.9227 9.72 58.9227 9.56V7.89H56.4927V9.56C56.4927 9.72 56.4493 9.84667 56.3627 9.94C56.2827 10.0267 56.1593 10.07 55.9927 10.07ZM63.5697 10.09C63.0764 10.09 62.6497 9.98667 62.2897 9.78C61.9364 9.57333 61.6597 9.28 61.4597 8.9C61.2597 8.52 61.1597 8.07333 61.1597 7.56C61.1597 7.16667 61.2164 6.81667 61.3297 6.51C61.443 6.20333 61.603 5.94 61.8097 5.72C62.023 5.49333 62.2764 5.32333 62.5697 5.21C62.8697 5.09 63.203 5.03 63.5697 5.03C64.0564 5.03 64.4764 5.13333 64.8297 5.34C65.1897 5.54667 65.4697 5.84 65.6697 6.22C65.8697 6.59333 65.9697 7.04 65.9697 7.56C65.9697 7.94667 65.913 8.29667 65.7997 8.61C65.6864 8.92333 65.523 9.19 65.3097 9.41C65.103 9.63 64.8497 9.8 64.5497 9.92C64.2564 10.0333 63.9297 10.09 63.5697 10.09ZM63.5697 9.31C63.843 9.31 64.083 9.24333 64.2897 9.11C64.4964 8.97667 64.6564 8.78 64.7697 8.52C64.8897 8.26 64.9497 7.94 64.9497 7.56C64.9497 6.98667 64.823 6.55333 64.5697 6.26C64.3164 5.96667 63.983 5.82 63.5697 5.82C63.2897 5.82 63.0464 5.88667 62.8397 6.02C62.633 6.14667 62.4697 6.34 62.3497 6.6C62.2364 6.86 62.1797 7.18 62.1797 7.56C62.1797 8.12667 62.3064 8.56 62.5597 8.86C62.813 9.16 63.1497 9.31 63.5697 9.31ZM67.7212 10C67.5545 10 67.4278 9.95667 67.3412 9.87C67.2545 9.77667 67.2112 9.65 67.2112 9.49V5.64C67.2112 5.47333 67.2545 5.34667 67.3412 5.26C67.4278 5.16667 67.5545 5.12 67.7212 5.12H69.7012C70.1012 5.12 70.4278 5.17 70.6812 5.27C70.9412 5.37 71.1312 5.51667 71.2512 5.71C71.3712 5.89667 71.4312 6.12667 71.4312 6.4C71.4312 6.71333 71.3245 6.97667 71.1112 7.19C70.8978 7.39667 70.6178 7.52 70.2712 7.56V7.43C70.6912 7.45 71.0145 7.57 71.2412 7.79C71.4745 8.01 71.5912 8.29333 71.5912 8.64C71.5912 9.06 71.4345 9.39333 71.1212 9.64C70.8078 9.88 70.3612 10 69.7812 10H67.7212ZM68.1612 9.35H69.7212C70.0212 9.35 70.2512 9.28667 70.4112 9.16C70.5778 9.02667 70.6612 8.83667 70.6612 8.59C70.6612 8.34333 70.5778 8.15667 70.4112 8.03C70.2512 7.90333 70.0212 7.84 69.7212 7.84H68.1612V9.35ZM68.1612 7.19H69.6312C69.9045 7.19 70.1145 7.12667 70.2612 7C70.4145 6.87333 70.4912 6.7 70.4912 6.48C70.4912 6.25333 70.4145 6.08 70.2612 5.96C70.1145 5.84 69.9045 5.78 69.6312 5.78H68.1612V7.19ZM73.2378 10.07C73.1378 10.07 73.0511 10.05 72.9778 10.01C72.9111 9.97667 72.8578 9.92 72.8178 9.84C72.7845 9.76 72.7678 9.65667 72.7678 9.53V5.54C72.7678 5.38 72.8078 5.26 72.8878 5.18C72.9678 5.09333 73.0811 5.05 73.2278 5.05C73.3745 5.05 73.4878 5.09333 73.5678 5.18C73.6478 5.26 73.6878 5.38 73.6878 5.54V9H73.4278L76.1378 5.38C76.2045 5.29333 76.2811 5.21667 76.3678 5.15C76.4545 5.08333 76.5711 5.05 76.7178 5.05C76.8178 5.05 76.9011 5.07 76.9678 5.11C77.0345 5.14333 77.0845 5.2 77.1178 5.28C77.1578 5.36 77.1778 5.46333 77.1778 5.59V9.58C77.1778 9.73333 77.1378 9.85333 77.0578 9.94C76.9845 10.0267 76.8745 10.07 76.7278 10.07C76.5745 10.07 76.4578 10.0267 76.3778 9.94C76.2978 9.85333 76.2578 9.73333 76.2578 9.58V6.12H76.5278L73.8078 9.75C73.7478 9.83 73.6745 9.90333 73.5878 9.97C73.5078 10.0367 73.3911 10.07 73.2378 10.07ZM80.2255 10.07C80.0655 10.07 79.9389 10.0267 79.8455 9.94C79.7589 9.84667 79.7155 9.72 79.7155 9.56V5.93H78.3555C78.0622 5.93 77.9155 5.79333 77.9155 5.52C77.9155 5.4 77.9555 5.30333 78.0355 5.23C78.1155 5.15667 78.2222 5.12 78.3555 5.12H82.0855C82.3789 5.12 82.5255 5.25333 82.5255 5.52C82.5255 5.65333 82.4855 5.75667 82.4055 5.83C82.3322 5.89667 82.2255 5.93 82.0855 5.93H80.7255V9.56C80.7255 9.72 80.6822 9.84667 80.5955 9.94C80.5155 10.0267 80.3922 10.07 80.2255 10.07ZM85.5366 10.09C85.0032 10.09 84.5432 9.99 84.1566 9.79C83.7766 9.58333 83.4799 9.29333 83.2666 8.92C83.0599 8.54 82.9566 8.09 82.9566 7.57C82.9566 7.06333 83.0599 6.62 83.2666 6.24C83.4732 5.86 83.7566 5.56333 84.1166 5.35C84.4766 5.13667 84.8866 5.03 85.3466 5.03C85.6866 5.03 85.9899 5.08667 86.2566 5.2C86.5232 5.30667 86.7499 5.46667 86.9366 5.68C87.1299 5.88667 87.2732 6.14 87.3666 6.44C87.4666 6.74 87.5166 7.07667 87.5166 7.45C87.5166 7.56333 87.4832 7.65 87.4166 7.71C87.3499 7.76333 87.2499 7.79 87.1166 7.79H83.7566V7.17H86.8366L86.6666 7.31C86.6666 6.97667 86.6166 6.69333 86.5166 6.46C86.4232 6.22667 86.2799 6.05 86.0866 5.93C85.8999 5.80333 85.6666 5.74 85.3866 5.74C85.0732 5.74 84.8066 5.81333 84.5866 5.96C84.3732 6.10667 84.2099 6.31 84.0966 6.57C83.9832 6.83 83.9266 7.13333 83.9266 7.48V7.54C83.9266 8.12667 84.0632 8.57 84.3366 8.87C84.6166 9.16333 85.0199 9.31 85.5466 9.31C85.7466 9.31 85.9566 9.28333 86.1766 9.23C86.4032 9.17667 86.6166 9.08667 86.8166 8.96C86.9299 8.89333 87.0299 8.86333 87.1166 8.87C87.2099 8.87667 87.2832 8.90667 87.3366 8.96C87.3966 9.01333 87.4332 9.08 87.4466 9.16C87.4599 9.24 87.4466 9.32333 87.4066 9.41C87.3666 9.49 87.2966 9.56333 87.1966 9.63C86.9699 9.78333 86.7066 9.9 86.4066 9.98C86.1066 10.0533 85.8166 10.09 85.5366 10.09ZM91.8218 10.07C91.7218 10.07 91.6351 10.05 91.5618 10.01C91.4951 9.97667 91.4418 9.92 91.4018 9.84C91.3685 9.76 91.3518 9.65667 91.3518 9.53V5.54C91.3518 5.38 91.3918 5.26 91.4718 5.18C91.5518 5.09333 91.6651 5.05 91.8118 5.05C91.9585 5.05 92.0718 5.09333 92.1518 5.18C92.2318 5.26 92.2718 5.38 92.2718 5.54V9H92.0118L94.7218 5.38C94.7885 5.29333 94.8651 5.21667 94.9518 5.15C95.0385 5.08333 95.1551 5.05 95.3018 5.05C95.4018 5.05 95.4851 5.07 95.5518 5.11C95.6185 5.14333 95.6685 5.2 95.7018 5.28C95.7418 5.36 95.7618 5.46333 95.7618 5.59V9.58C95.7618 9.73333 95.7218 9.85333 95.6418 9.94C95.5685 10.0267 95.4585 10.07 95.3118 10.07C95.1585 10.07 95.0418 10.0267 94.9618 9.94C94.8818 9.85333 94.8418 9.73333 94.8418 9.58V6.12H95.1118L92.3918 9.75C92.3318 9.83 92.2585 9.90333 92.1718 9.97C92.0918 10.0367 91.9751 10.07 91.8218 10.07ZM98.9795 10.09C98.6395 10.09 98.3062 10.0567 97.9795 9.99C97.6529 9.91667 97.3695 9.81 97.1295 9.67C97.0295 9.61667 96.9595 9.55333 96.9195 9.48C96.8795 9.4 96.8629 9.32 96.8695 9.24C96.8762 9.15333 96.9029 9.08333 96.9495 9.03C97.0029 8.97 97.0695 8.93333 97.1495 8.92C97.2362 8.90667 97.3362 8.93 97.4495 8.99C97.6629 9.11 97.9029 9.2 98.1695 9.26C98.4362 9.31333 98.6995 9.34 98.9595 9.34C99.4129 9.34 99.7362 9.28 99.9295 9.16C100.13 9.03333 100.23 8.84667 100.23 8.6C100.23 8.37333 100.15 8.2 99.9895 8.08C99.8295 7.96 99.6029 7.9 99.3095 7.9H98.4295C98.3029 7.9 98.2029 7.86667 98.1295 7.8C98.0562 7.73333 98.0195 7.64333 98.0195 7.53C98.0195 7.41 98.0562 7.32 98.1295 7.26C98.2029 7.19333 98.3029 7.16 98.4295 7.16H99.1995C99.4595 7.16 99.6662 7.10333 99.8195 6.99C99.9795 6.87 100.06 6.70667 100.06 6.5C100.06 6.27333 99.9729 6.09667 99.7995 5.97C99.6262 5.84333 99.3329 5.78 98.9195 5.78C98.6729 5.78 98.4329 5.80667 98.1995 5.86C97.9662 5.91333 97.7429 5.99333 97.5295 6.1C97.3895 6.16667 97.2729 6.18333 97.1795 6.15C97.0862 6.11667 97.0162 6.05667 96.9695 5.97C96.9295 5.87667 96.9262 5.78333 96.9595 5.69C96.9929 5.59 97.0695 5.51 97.1895 5.45C97.4629 5.30333 97.7562 5.19667 98.0695 5.13C98.3829 5.06333 98.7162 5.03 99.0695 5.03C99.7029 5.03 100.18 5.15333 100.5 5.4C100.826 5.64 100.99 5.97333 100.99 6.4C100.99 6.71333 100.883 6.97667 100.67 7.19C100.463 7.39667 100.186 7.52 99.8395 7.56V7.43C100.246 7.45 100.57 7.57 100.81 7.79C101.05 8.00333 101.17 8.28667 101.17 8.64C101.17 9.08 100.983 9.43333 100.61 9.7C100.236 9.96 99.6929 10.09 98.9795 10.09Z" fill="#F7F9FF"/>
</svg>
