<svg width="40" height="40" viewBox="0 0 40 40" fill="none" xmlns="http://www.w3.org/2000/svg">
<path d="M32.3623 15.8682C31.1663 14.6709 29.1378 14.7416 27.8558 16.0222L23.2051 20.6757V11.2966C23.2051 9.48318 21.8176 8 20.1263 8C19.4228 8.00789 18.7454 8.26781 18.2172 8.73257C18.0281 8.85915 17.8519 9.00415 17.6914 9.16546L6.16028 20.6993V11.2966C6.16028 9.48318 4.77284 8 3.08015 8C1.38746 8 1.1501e-05 9.48318 1.1501e-05 11.2966V27.7753C-0.00170255 28.4349 0.188209 29.0808 0.546667 29.6345C0.665136 29.8506 0.812652 30.0495 0.985101 30.2255C1.35471 30.5859 1.81341 30.8416 2.31427 30.9664H2.32538C2.88547 31.1036 3.47159 31.0931 4.02635 30.9357C4.58112 30.7783 5.08551 30.4796 5.49015 30.0688L17.0476 18.5155V27.7725C17.0484 28.2453 17.1467 28.7129 17.3362 29.1461C17.4808 29.55 17.7119 29.9175 18.0133 30.2228C19.2092 31.4215 21.2391 31.3508 22.5197 30.0688L32.2235 20.376C33.4972 19.0913 33.5652 17.0698 32.3623 15.8682Z" fill="black"/>
<path d="M39.9932 11.298C40.0221 10.8725 39.9575 10.4459 39.804 10.048C39.6506 9.65016 39.4119 9.2907 39.1048 8.99483C38.7977 8.69897 38.4296 8.47387 38.0263 8.33533C37.623 8.19679 37.1943 8.14816 36.7702 8.19286C36.4084 8.21151 36.0534 8.29861 35.724 8.44954C35.3167 8.62292 34.9468 8.87358 34.6349 9.18766L28.408 15.4104C27.1232 16.6951 27.0539 18.7222 28.2485 19.9182C29.443 21.1142 31.4743 21.0462 32.7563 19.7656L33.8343 18.6889V27.9626C33.8343 29.776 35.2218 31.2592 36.9117 31.2592C38.6016 31.2592 39.9932 29.7746 39.9932 27.9626V11.298Z" fill="#FF4107"/>
</svg>
