<svg width="137" height="48" viewBox="0 0 137 48" fill="none" xmlns="http://www.w3.org/2000/svg">
<rect width="137" height="48" rx="10" fill="#FDDC29"/>
<path d="M40.1645 18.1466C39.2425 17.3922 37.9728 17.0151 36.3555 17.0151H30.9895C30.8384 17.0151 30.7175 17.0603 30.6419 17.1509C30.5663 17.2414 30.5059 17.3621 30.5059 17.5129V30.5172C30.5059 30.653 30.5512 30.7586 30.6419 30.8491C30.7326 30.9397 30.8535 30.9849 30.9744 30.9849H32.8941C33.0452 30.9849 33.1661 30.9397 33.2568 30.8491C33.3475 30.7586 33.3929 30.653 33.3929 30.5022V25.8254H36.3403C37.9577 25.8254 39.2274 25.4483 40.1494 24.7091C41.0714 23.9698 41.5249 22.8836 41.5249 21.4504C41.54 20.0022 41.0865 18.9009 40.1645 18.1466ZM38.0332 23.0496C37.6251 23.4116 37.0356 23.5927 36.2648 23.5927H33.3778V19.2478H36.2648C37.0659 19.2478 37.6554 19.444 38.0635 19.8211C38.4716 20.1983 38.653 20.7414 38.653 21.4353C38.6379 22.1444 38.4414 22.6875 38.0332 23.0496ZM53.2845 25.2522C54.131 24.9655 54.7809 24.4828 55.2495 23.819C55.7181 23.1552 55.9448 22.3405 55.9448 21.375C55.9448 19.972 55.4762 18.9009 54.5542 18.1315C53.6322 17.3772 52.3474 17 50.6998 17H45.5153C45.3641 17 45.2432 17.0453 45.1676 17.1358C45.0921 17.2263 45.0316 17.347 45.0316 17.4978V30.5022C45.0316 30.6379 45.0769 30.7435 45.1676 30.8341C45.2583 30.9246 45.3793 30.9698 45.5002 30.9698H47.3442C47.4954 30.9698 47.6163 30.9246 47.707 30.8341C47.7977 30.7435 47.843 30.6228 47.843 30.5022V25.7198H50.5789L53.1485 30.4569C53.2392 30.6228 53.345 30.7435 53.4659 30.8491C53.5868 30.9547 53.7531 31 53.9647 31H55.8088C55.9146 31 56.0053 30.9547 56.096 30.8793C56.1866 30.8039 56.232 30.6983 56.232 30.5776C56.232 30.5172 56.2169 30.4418 56.1715 30.3513L53.2845 25.2522ZM52.4532 22.9138C52.0451 23.2608 51.4556 23.4418 50.6545 23.4418H47.8733V19.2478H50.6545C51.4556 19.2478 52.0602 19.4289 52.4532 19.7909C52.8462 20.153 53.0578 20.681 53.0578 21.3599C53.0427 22.0388 52.8462 22.5517 52.4532 22.9138ZM69.2613 28.6767H62.535V25.056H68.6567C68.8079 25.056 68.9288 25.0108 69.0195 24.9203C69.1102 24.8297 69.1555 24.7091 69.1555 24.5733V23.3211C69.1555 23.1703 69.1102 23.0496 69.0195 22.9591C68.9288 22.8685 68.8079 22.8233 68.6567 22.8233H62.535V19.3233H69.0951C69.2462 19.3233 69.3671 19.278 69.4578 19.1875C69.5485 19.097 69.5939 18.9914 69.5939 18.8405V17.4978C69.5939 17.347 69.5485 17.2263 69.4578 17.1358C69.3671 17.0453 69.2462 17 69.0951 17H60.2678C60.1166 17 59.9957 17.0453 59.9201 17.1358C59.8445 17.2263 59.7841 17.347 59.7841 17.4978V30.5022C59.7841 30.6379 59.8294 30.7435 59.9201 30.8341C60.0108 30.9246 60.1317 30.9698 60.2526 30.9698H69.2462C69.3974 30.9698 69.5183 30.9246 69.609 30.8341C69.6997 30.7435 69.745 30.6379 69.745 30.4871V29.1293C69.745 28.9784 69.6997 28.8728 69.609 28.7823C69.5334 28.7069 69.4125 28.6767 69.2613 28.6767ZM86.0846 17H84.4824C84.2254 17 84.0289 17.1207 83.8778 17.3772L80.0234 24.528L76.1539 17.3772C76.0027 17.1207 75.8062 17 75.5493 17H73.9319C73.7808 17 73.6599 17.0453 73.5843 17.1358C73.5087 17.2263 73.4482 17.347 73.4482 17.4978V30.5022C73.4482 30.6379 73.4936 30.7435 73.5843 30.8341C73.675 30.9246 73.7959 30.9698 73.9168 30.9698H75.64C75.7911 30.9698 75.8969 30.9246 75.9876 30.8341C76.0783 30.7435 76.1236 30.6228 76.1236 30.5022V21.9181L78.9049 27.1983C79.0862 27.4849 79.313 27.6358 79.585 27.6358H80.4315C80.7187 27.6358 80.9454 27.4849 81.0966 27.1983L83.8778 21.9181V30.5022C83.8778 30.6379 83.9231 30.7435 84.0138 30.8341C84.1045 30.9246 84.2254 30.9698 84.3463 30.9698H86.0695C86.2206 30.9698 86.3415 30.9246 86.4322 30.8341C86.5229 30.7435 86.5683 30.6379 86.5683 30.4871V17.4978C86.5683 17.347 86.5229 17.2263 86.4322 17.1358C86.3567 17.0453 86.2357 17 86.0846 17ZM93.3097 17H91.39C91.254 17 91.1482 17.0453 91.0575 17.1358C90.9668 17.2263 90.9215 17.347 90.9215 17.4828V30.5022C90.9215 30.6379 90.9668 30.7435 91.0575 30.8341C91.1482 30.9246 91.2691 30.9698 91.39 30.9698H93.3097C93.4608 30.9698 93.5666 30.9246 93.6573 30.8341C93.748 30.7435 93.7934 30.6228 93.7934 30.5022V17.4828C93.7934 17.3319 93.748 17.2263 93.6573 17.1358C93.5817 17.0453 93.4608 17 93.3097 17ZM107.594 28.6767H100.867V25.056H106.989C107.14 25.056 107.261 25.0108 107.352 24.9203C107.442 24.8297 107.488 24.7091 107.488 24.5733V23.3211C107.488 23.1703 107.442 23.0496 107.352 22.9591C107.261 22.8685 107.14 22.8233 106.989 22.8233H100.867V19.3233H107.427C107.578 19.3233 107.699 19.278 107.79 19.1875C107.881 19.097 107.926 18.9914 107.926 18.8405V17.4978C107.926 17.347 107.881 17.2263 107.79 17.1358C107.699 17.0453 107.578 17 107.427 17H98.6C98.4489 17 98.3279 17.0453 98.2524 17.1358C98.1768 17.2263 98.1163 17.347 98.1163 17.4978V30.5022C98.1163 30.6379 98.1617 30.7435 98.2524 30.8341C98.343 30.9246 98.464 30.9698 98.5849 30.9698H107.578C107.73 30.9698 107.851 30.9246 107.941 30.8341C108.032 30.7435 108.077 30.6379 108.077 30.4871V29.1293C108.077 28.9784 108.032 28.8728 107.941 28.7823C107.866 28.7069 107.745 28.6767 107.594 28.6767ZM122.951 30.3513L120.049 25.2522C120.895 24.9655 121.545 24.4828 122.013 23.819C122.482 23.1552 122.709 22.3405 122.709 21.375C122.709 19.972 122.24 18.9009 121.318 18.1315C120.396 17.3772 119.111 17 117.464 17H112.279C112.128 17 112.007 17.0453 111.932 17.1358C111.856 17.2263 111.796 17.347 111.796 17.4978V30.5022C111.796 30.6379 111.841 30.7435 111.932 30.8341C112.022 30.9246 112.143 30.9698 112.264 30.9698H114.108C114.259 30.9698 114.38 30.9246 114.471 30.8341C114.562 30.7435 114.607 30.6228 114.607 30.5022V25.7198H117.343L119.912 30.4569C120.003 30.6228 120.109 30.7435 120.23 30.8491C120.351 30.9547 120.517 31 120.729 31H122.573C122.679 31 122.769 30.9547 122.86 30.8793C122.951 30.8039 122.996 30.6983 122.996 30.5776C123.011 30.5022 122.981 30.4267 122.951 30.3513ZM119.202 22.9138C118.794 23.2608 118.204 23.4418 117.403 23.4418H114.622V19.2478H117.403C118.204 19.2478 118.809 19.4289 119.202 19.7909C119.61 20.153 119.807 20.681 119.807 21.3599C119.807 22.0388 119.595 22.5517 119.202 22.9138Z" fill="black"/>
<path d="M26.2736 23.819C26.2131 23.6681 26.0922 23.5323 25.8957 23.4267L14.9976 17.1358C14.4535 16.819 14 17.0754 14 17.709V30.2759C14 30.9095 14.4535 31.181 14.9976 30.8491L25.8957 24.5733C26.0922 24.4526 26.2131 24.3168 26.2736 24.181C26.2887 24.1207 26.3038 24.0603 26.3038 24C26.3189 23.9397 26.3038 23.8793 26.2736 23.819Z" fill="black"/>
<path opacity="0.5" d="M26.2736 23.819C26.2131 23.6681 26.0922 23.5323 25.8957 23.4267L14.9976 17.1358C14.4535 16.819 14 17.0754 14 17.709V20.2737V23.9849V27.7112L26.2736 24.1659C26.2887 24.1056 26.3038 24.0453 26.3038 23.9849C26.3189 23.9397 26.3038 23.8793 26.2736 23.819Z" fill="black"/>
<path d="M26.2736 23.819C26.2131 23.6681 26.0922 23.5323 25.8957 23.4267L14.9976 17.1358C14.4535 16.819 14 17.0754 14 17.709V20.2737V23.9849H26.3189C26.3189 23.9397 26.3038 23.8793 26.2736 23.819Z" fill="black"/>
<path d="M14 20.2737L26.2736 23.819C26.2131 23.6681 26.0922 23.5323 25.8957 23.4267L15.0127 17.1358C14.4686 16.819 14.0151 17.0754 14.0151 17.709L14 20.2737Z" fill="black"/>
</svg>
