<svg width="109" height="28" viewBox="0 0 109 28" fill="none" xmlns="http://www.w3.org/2000/svg">
<rect width="109" height="28" rx="8" fill="#06091A" fill-opacity="0.4"/>
<path d="M29.2838 8.66426C28.4632 7.97668 27.3333 7.63289 25.8941 7.63289H21.1189C20.9844 7.63289 20.8768 7.67415 20.8095 7.75666C20.7423 7.83917 20.6885 7.94918 20.6885 8.08669V19.9405C20.6885 20.0643 20.7288 20.1606 20.8095 20.2431C20.8902 20.3256 20.9979 20.3668 21.1055 20.3668H22.8138C22.9483 20.3668 23.0559 20.3256 23.1366 20.2431C23.2173 20.1606 23.2576 20.0643 23.2576 19.9268V15.6638H25.8806C27.3199 15.6638 28.4498 15.32 29.2703 14.6462C30.0908 13.9724 30.4944 12.9822 30.4944 11.6758C30.5078 10.3557 30.1043 9.35184 29.2838 8.66426ZM27.3871 13.1335C27.024 13.4635 26.4994 13.6286 25.8134 13.6286H23.2442V9.66812H25.8134C26.5263 9.66812 27.0509 9.84689 27.4141 10.1907C27.7772 10.5345 27.9386 11.0295 27.9386 11.6621C27.9252 12.3084 27.7503 12.8035 27.3871 13.1335ZM40.9594 15.1412C41.7126 14.88 42.291 14.4399 42.708 13.8348C43.125 13.2298 43.3268 12.4872 43.3268 11.6071C43.3268 10.3282 42.9098 9.35184 42.0893 8.65051C41.2687 7.96293 40.1254 7.61914 38.6592 7.61914H34.0455C33.911 7.61914 33.8033 7.6604 33.7361 7.7429C33.6688 7.82541 33.615 7.93543 33.615 8.07294V19.9268C33.615 20.0505 33.6554 20.1468 33.7361 20.2293C33.8168 20.3118 33.9244 20.3531 34.032 20.3531H35.6731C35.8076 20.3531 35.9152 20.3118 35.9959 20.2293C36.0766 20.1468 36.1169 20.0368 36.1169 19.9268V15.5675H38.5516L40.8383 19.8855C40.919 20.0368 41.0132 20.1468 41.1208 20.2431C41.2284 20.3393 41.3763 20.3806 41.5647 20.3806H43.2057C43.2999 20.3806 43.3806 20.3393 43.4613 20.2706C43.542 20.2018 43.5823 20.1055 43.5823 19.9955C43.5823 19.9405 43.5689 19.8718 43.5285 19.7893L40.9594 15.1412ZM40.2195 13.0097C39.8564 13.326 39.3318 13.4911 38.6189 13.4911H36.1438V9.66812H38.6189C39.3318 9.66812 39.8698 9.83314 40.2195 10.1632C40.5693 10.4932 40.7576 10.9745 40.7576 11.5933C40.7441 12.2122 40.5693 12.6797 40.2195 13.0097ZM55.1772 18.2628H49.1915V14.9625H54.6392C54.7737 14.9625 54.8813 14.9212 54.962 14.8387C55.0427 14.7562 55.0831 14.6462 55.0831 14.5224V13.381C55.0831 13.2435 55.0427 13.1335 54.962 13.051C54.8813 12.9685 54.7737 12.9272 54.6392 12.9272H49.1915V9.73688H55.0293C55.1638 9.73688 55.2714 9.69562 55.3521 9.61311C55.4328 9.53061 55.4731 9.43434 55.4731 9.29683V8.07294C55.4731 7.93543 55.4328 7.82541 55.3521 7.7429C55.2714 7.6604 55.1638 7.61914 55.0293 7.61914H47.1738C47.0393 7.61914 46.9317 7.6604 46.8644 7.7429C46.7972 7.82541 46.7433 7.93543 46.7433 8.07294V19.9268C46.7433 20.0505 46.7837 20.1468 46.8644 20.2293C46.9451 20.3118 47.0527 20.3531 47.1603 20.3531H55.1638C55.2983 20.3531 55.4059 20.3118 55.4866 20.2293C55.5673 20.1468 55.6077 20.0505 55.6077 19.913V18.6754C55.6077 18.5379 55.5673 18.4416 55.4866 18.3591C55.4193 18.2903 55.3117 18.2628 55.1772 18.2628ZM70.1483 7.61914H68.7225C68.4939 7.61914 68.319 7.72915 68.1845 7.96293L64.7544 14.4812L61.3109 7.96293C61.1764 7.72915 61.0016 7.61914 60.7729 7.61914H59.3336C59.1991 7.61914 59.0915 7.6604 59.0242 7.7429C58.957 7.82541 58.9032 7.93543 58.9032 8.07294V19.9268C58.9032 20.0505 58.9435 20.1468 59.0242 20.2293C59.105 20.3118 59.2126 20.3531 59.3202 20.3531H60.8536C60.9881 20.3531 61.0823 20.3118 61.163 20.2293C61.2437 20.1468 61.284 20.0368 61.284 19.9268V12.1021L63.7591 16.9152C63.9205 17.1765 64.1222 17.314 64.3644 17.314H65.1176C65.3732 17.314 65.575 17.1765 65.7095 16.9152L68.1845 12.1021V19.9268C68.1845 20.0505 68.2248 20.1468 68.3055 20.2293C68.3862 20.3118 68.4939 20.3531 68.6015 20.3531H70.1349C70.2694 20.3531 70.377 20.3118 70.4577 20.2293C70.5384 20.1468 70.5788 20.0505 70.5788 19.913V8.07294C70.5788 7.93543 70.5384 7.82541 70.4577 7.7429C70.3905 7.6604 70.2829 7.61914 70.1483 7.61914ZM76.578 7.61914H74.8697C74.7486 7.61914 74.6545 7.6604 74.5738 7.7429C74.4931 7.82541 74.4527 7.93543 74.4527 8.05919V19.9268C74.4527 20.0505 74.4931 20.1468 74.5738 20.2293C74.6545 20.3118 74.7621 20.3531 74.8697 20.3531H76.578C76.7125 20.3531 76.8067 20.3118 76.8874 20.2293C76.9681 20.1468 77.0084 20.0368 77.0084 19.9268V8.05919C77.0084 7.92167 76.9681 7.82541 76.8874 7.7429C76.8201 7.6604 76.7125 7.61914 76.578 7.61914ZM89.2893 18.2628H83.3036V14.9625H88.7513C88.8858 14.9625 88.9934 14.9212 89.0741 14.8387C89.1548 14.7562 89.1952 14.6462 89.1952 14.5224V13.381C89.1952 13.2435 89.1548 13.1335 89.0741 13.051C88.9934 12.9685 88.8858 12.9272 88.7513 12.9272H83.3036V9.73688H89.1414C89.2759 9.73688 89.3835 9.69562 89.4642 9.61311C89.5449 9.53061 89.5853 9.43434 89.5853 9.29683V8.07294C89.5853 7.93543 89.5449 7.82541 89.4642 7.7429C89.3835 7.6604 89.2759 7.61914 89.1414 7.61914H81.2859C81.1514 7.61914 81.0438 7.6604 80.9765 7.7429C80.9093 7.82541 80.8555 7.93543 80.8555 8.07294V19.9268C80.8555 20.0505 80.8958 20.1468 80.9765 20.2293C81.0572 20.3118 81.1648 20.3531 81.2724 20.3531H89.2759C89.4104 20.3531 89.518 20.3118 89.5987 20.2293C89.6794 20.1468 89.7198 20.0505 89.7198 19.913V18.6754C89.7198 18.5379 89.6794 18.4416 89.5987 18.3591C89.5314 18.2903 89.4238 18.2628 89.2893 18.2628ZM102.956 19.7893L100.373 15.1412C101.126 14.88 101.705 14.4399 102.122 13.8348C102.539 13.2298 102.74 12.4872 102.74 11.6071C102.74 10.3282 102.323 9.35184 101.503 8.65051C100.682 7.96293 99.5391 7.61914 98.0729 7.61914H93.4592C93.3247 7.61914 93.2171 7.6604 93.1498 7.7429C93.0826 7.82541 93.0287 7.93543 93.0287 8.07294V19.9268C93.0287 20.0505 93.0691 20.1468 93.1498 20.2293C93.2305 20.3118 93.3381 20.3531 93.4457 20.3531H95.0868C95.2213 20.3531 95.3289 20.3118 95.4096 20.2293C95.4903 20.1468 95.5307 20.0368 95.5307 19.9268V15.5675H97.9653L100.252 19.8855C100.333 20.0368 100.427 20.1468 100.534 20.2431C100.642 20.3393 100.79 20.3806 100.978 20.3806H102.619C102.714 20.3806 102.794 20.3393 102.875 20.2706C102.956 20.2018 102.996 20.1055 102.996 19.9955C103.009 19.9268 102.983 19.858 102.956 19.7893ZM99.6198 13.0097C99.2566 13.326 98.732 13.4911 98.0191 13.4911H95.5441V9.66812H98.0191C98.732 9.66812 99.2701 9.83314 99.6198 10.1632C99.983 10.4932 100.158 10.9745 100.158 11.5933C100.158 12.2122 99.9695 12.6797 99.6198 13.0097Z" fill="#F7F9FF"/>
<path d="M16.9223 13.8348C16.8685 13.6973 16.7609 13.5736 16.5861 13.4773L6.88778 7.7429C6.40353 7.45412 6 7.68789 6 8.26546V19.7205C6 20.2981 6.40353 20.5456 6.88778 20.2431L16.5861 14.5224C16.7609 14.4124 16.8685 14.2886 16.9223 14.1649C16.9358 14.1099 16.9492 14.0549 16.9492 13.9999C16.9627 13.9448 16.9492 13.8898 16.9223 13.8348Z" fill="#F7F9FF"/>
<path opacity="0.5" d="M16.9223 13.8348C16.8685 13.6973 16.7609 13.5736 16.5861 13.4773L6.88778 7.7429C6.40353 7.45412 6 7.68789 6 8.26546V10.6032V13.9861V17.3827L16.9223 14.1511C16.9358 14.0961 16.9492 14.0411 16.9492 13.9861C16.9627 13.9448 16.9492 13.8898 16.9223 13.8348Z" fill="#F7F9FF"/>
<path d="M16.9223 13.8348C16.8685 13.6973 16.7609 13.5736 16.5861 13.4773L6.88778 7.7429C6.40353 7.45412 6 7.68789 6 8.26546V10.6032V13.9861H16.9627C16.9627 13.9448 16.9492 13.8898 16.9223 13.8348Z" fill="#F7F9FF"/>
<path d="M6 10.6032L16.9223 13.8348C16.8685 13.6973 16.7609 13.5736 16.5861 13.4773L6.90123 7.7429C6.41699 7.45412 6.01345 7.68789 6.01345 8.26546L6 10.6032Z" fill="#F7F9FF"/>
</svg>
