<svg width="32" height="32" viewBox="0 0 32 32" fill="none" xmlns="http://www.w3.org/2000/svg">
<path d="M23.6872 3C24.7447 3 25.6409 2.99788 26.3445 3.09375C27.0728 3.19307 27.7703 3.417 28.3034 4.00391C28.8245 4.57753 28.9776 5.26623 28.9968 5.97266C29.0118 6.52474 28.5762 6.98503 28.0241 7C27.507 7.01346 27.0713 6.63136 27.0066 6.12891L26.9763 5.74219C26.9538 5.58502 26.9178 5.48991 26.8796 5.42579L26.823 5.34864C26.7416 5.25906 26.5859 5.145 26.0739 5.0752C25.5371 5.00209 24.8028 5 23.6872 5H8.31223C7.19658 5 6.46233 5.00207 5.92551 5.0752C5.41345 5.14503 5.25791 5.25902 5.17649 5.34864C5.09979 5.43316 5.00728 5.583 4.99973 6.07032C4.99173 6.58979 5.07975 7.29169 5.21848 8.37012C5.25222 8.63226 5.2902 8.77454 5.33469 8.88184C5.3772 8.98405 5.44631 9.10395 5.60129 9.28809C6.87904 10.8062 9.18497 13.4636 12.4089 15.874C12.9591 16.2855 13.2874 16.9276 13.3425 17.6006L13.614 20.7422C13.8757 23.6088 14.1017 25.6429 14.237 26.7861C14.2413 26.8215 14.2552 26.8629 14.282 26.9033C14.3094 26.9446 14.342 26.974 14.3679 26.9893C14.3729 26.9922 14.378 26.9945 14.3816 26.9961C14.3826 26.9958 14.3875 26.9942 14.3904 26.9922C14.7349 26.7486 15.148 26.5006 15.5281 26.2695C15.9238 26.0289 16.3073 25.7926 16.656 25.54C17.3938 25.0055 17.7588 24.5511 17.8357 24.1416L17.9245 23.6406C18.0204 23.0698 18.1365 22.2796 18.2663 21.2119C18.3333 20.6643 18.8319 20.2747 19.3796 20.3408C19.9277 20.4075 20.3191 20.906 20.2527 21.4541L20.1238 22.458C19.9995 23.3753 19.8895 24.0409 19.8015 24.5107C19.5728 25.7293 18.6305 26.5794 17.8288 27.1602C17.4076 27.4653 16.9615 27.7397 16.5671 27.9795C16.1574 28.2286 15.819 28.4317 15.5456 28.625C14.8192 29.1388 13.9845 29.0801 13.362 28.7178C12.772 28.3741 12.3355 27.7448 12.2497 27.0205C12.0666 25.4732 11.7231 22.3411 11.3484 17.7627C11.3361 17.6163 11.2665 17.5174 11.2107 17.4756C7.79918 14.9249 5.37542 12.125 4.07102 10.5752C3.82677 10.2849 3.63052 9.99231 3.48801 9.64942C3.34772 9.31161 3.27997 8.97386 3.23508 8.625C3.10422 7.60772 2.98991 6.73667 3.00071 6.03907C3.012 5.30986 3.15843 4.59589 3.69602 4.00391C4.22916 3.41704 4.92668 3.19307 5.655 3.09375C6.35857 2.99785 7.25473 3 8.31223 3H23.6872ZM27.2927 8.62598C27.6832 8.23563 28.3162 8.23573 28.7068 8.62598C29.0973 9.01647 29.0972 9.64951 28.7068 10.04L25.4138 13.333L28.7068 16.626L28.7761 16.7022C29.0962 17.0949 29.0727 17.674 28.7068 18.04C28.3406 18.4062 27.7607 18.4298 27.3679 18.1094L27.2927 18.04L23.9997 14.7471L20.7068 18.04C20.3162 18.4306 19.6832 18.4306 19.2927 18.04C18.9024 17.6495 18.9023 17.0164 19.2927 16.626L22.5857 13.333L19.2927 10.04C18.9024 9.6495 18.9023 9.01643 19.2927 8.62598C19.6832 8.23563 20.3163 8.23573 20.7068 8.62598L23.9997 11.9189L27.2927 8.62598Z" fill="white"/>
</svg>
