<svg width="32" height="32" viewBox="0 0 32 32" fill="none" xmlns="http://www.w3.org/2000/svg">
<path d="M10.6664 12.333C11.2184 12.3332 11.6662 12.781 11.6664 13.333V24.7539C11.7852 24.6251 11.9093 24.4883 12.0336 24.3438C12.3995 23.9185 12.7572 23.4671 13.0854 23.0557L13.0981 23.04C13.4041 22.6564 13.7141 22.267 13.9535 22.0244C14.3415 21.6315 14.9765 21.6278 15.3695 22.0156C15.7619 22.4035 15.7658 23.0368 15.3783 23.4297C15.2276 23.5824 14.9862 23.8795 14.6479 24.3037C14.3276 24.7053 13.9445 25.1891 13.5492 25.6484C13.1575 26.1038 12.7237 26.5703 12.2953 26.9297C12.0808 27.1096 11.8433 27.2832 11.5932 27.415C11.3506 27.5428 11.0301 27.6669 10.6664 27.667C10.3026 27.6669 9.98134 27.5429 9.73869 27.415C9.4887 27.2832 9.25191 27.1095 9.03751 26.9297C8.60913 26.5703 8.17538 26.1038 7.78361 25.6484C7.3883 25.189 7.00434 24.7053 6.684 24.3037C6.34558 23.8794 6.10426 23.5824 5.95353 23.4297C5.56628 23.0368 5.57089 22.4035 5.9633 22.0156C6.35624 21.6279 6.99036 21.6317 7.37833 22.0244C7.61772 22.267 7.92785 22.6565 8.2338 23.04L8.2465 23.0557C8.57473 23.4672 8.93331 23.9184 9.29923 24.3438C9.42358 24.4883 9.54762 24.6251 9.66642 24.7539V13.333C9.6666 12.781 10.1144 12.3332 10.6664 12.333ZM21.3324 4.33301C21.6963 4.33301 22.0175 4.45713 22.2602 4.58496C22.5102 4.71679 22.7469 4.89052 22.9613 5.07031C23.3898 5.4297 23.8234 5.89619 24.2152 6.35156C24.6106 6.81105 24.9945 7.29465 25.3149 7.69629C25.6532 8.1205 25.8946 8.41759 26.0453 8.57031C26.4327 8.96328 26.4281 9.59653 26.0356 9.98438C25.6426 10.3721 25.0085 10.3683 24.6205 9.97559C24.381 9.73292 24.0701 9.34366 23.7641 8.95996L23.7524 8.94434C23.4241 8.53283 23.0656 8.08157 22.6996 7.65625C22.5752 7.51169 22.4513 7.37488 22.3324 7.24609V18.667C22.3323 19.2191 21.8846 19.667 21.3324 19.667C20.7805 19.6667 20.3326 19.219 20.3324 18.667V7.24609C20.2136 7.37488 20.0896 7.51169 19.9652 7.65625C19.5994 8.08154 19.2417 8.53287 18.9135 8.94434L18.9008 8.95996C18.5949 9.34352 18.2847 9.73304 18.0453 9.97559C17.6573 10.3685 17.0223 10.3724 16.6293 9.98438C16.237 9.59648 16.2332 8.96319 16.6205 8.57031C16.7713 8.41763 17.0126 8.12051 17.351 7.69629C17.6713 7.29475 18.0544 6.81093 18.4496 6.35156C18.8414 5.89622 19.2751 5.42973 19.7035 5.07031C19.9181 4.89038 20.1555 4.71686 20.4057 4.58496C20.6483 4.45715 20.9687 4.33312 21.3324 4.33301Z" fill="white"/>
</svg>
