<svg width="124" height="48" viewBox="0 0 124 48" fill="none" xmlns="http://www.w3.org/2000/svg">
<rect width="124" height="48" rx="10" fill="#ECE7F8"/>
<g clip-path="url(#clip0_5228_38511)">
<g clip-path="url(#clip1_5228_38511)">
<path d="M56.5796 17.7195H40.0337V20.6913H46.0777V30.2819H50.5156V20.6913H56.5781V17.7195H56.5796ZM93.1797 17.7195V20.6913H99.2236V30.2819H103.662V20.6913H109.724V17.7195H93.1782H93.1797ZM35.5942 22.5341C34.7496 22.4181 33.7736 22.3491 32.6572 22.3284L30.2962 22.2953C27.407 22.2622 27.0472 21.7376 27.0472 21.2145C27.0472 20.6913 27.2927 20.1337 30.693 20.1337H30.9957C34.66 20.1337 34.9812 21.1468 35.0569 21.6369H39.6276V21.4685C39.6276 20.0578 38.7861 18.5422 35.5958 17.8644C34.5118 17.6339 33.156 17.5 31.4682 17.5H30.1649C28.8801 17.5 27.8054 17.5801 26.9036 17.7209V17.5H25.7702C20.31 17.5 18.5944 18.9328 18.2114 20.5202V17.736C14.7092 18.3116 13.914 19.848 13.914 21.3332V21.485C13.914 23.0807 14.9795 24.4293 18.2114 24.9469V22.2484C18.616 23.8426 20.4273 25.0491 24.9765 25.165L26.9036 25.205V24.9593C27.6186 25.0698 28.437 25.1402 29.3712 25.1636L31.7894 25.2147C35.0383 25.2823 35.4722 25.7544 35.4722 26.4805C35.4722 27.1554 35.0569 27.8139 31.3539 27.8139H31.0899C27.4641 27.8139 26.9715 26.5647 26.916 25.822H26.8125V27.8139H26.6967C23.071 27.8139 22.5784 26.5647 22.5228 25.822H13.7256V26.0084C13.7256 27.3266 14.2645 29.3957 18.2114 30.1825V27.4881C18.8306 28.9609 20.7192 30.5014 26.147 30.5014H26.9021V30.2018C27.8903 30.391 29.0886 30.5014 30.5417 30.5014H31.845C33.3459 30.5014 34.5797 30.4048 35.5942 30.2336C39.3528 29.5986 40.0801 27.9326 40.0801 26.2969V26.0608C40.0801 24.0897 38.7505 22.9703 35.5942 22.5355V22.5341ZM26.811 22.3077L25.9014 22.2953C23.0123 22.2622 22.6525 21.7376 22.6525 21.2145C22.6525 20.6913 22.898 20.1337 26.2983 20.1337H26.6009C26.6735 20.1337 26.743 20.1337 26.811 20.1351V22.3077ZM89.4444 24.1822V23.7667C90.9576 23.7667 92.2347 22.7646 92.2347 21.0972V20.9784C92.2347 19.1716 90.8187 17.7195 86.1336 17.7195H74.8009V30.2805H79.2018V25.8234H84.9431C87.1157 25.8234 87.8708 26.4984 87.8708 28.0347V30.2805H92.2903V26.987C92.2903 25.4535 90.8804 24.1822 89.4428 24.1822H89.4444ZM87.6454 21.8053C87.6454 22.4968 87.1173 23.0379 85.8696 23.0379H79.2018V20.5726H85.8696C87.1543 20.5726 87.6454 21.1303 87.6454 21.7887V21.8053ZM60.9188 17.7195L53.8171 30.2805H58.2937L59.5599 27.9836H68.0791L69.4009 30.2805H74.1415L66.6229 17.7195H60.9188ZM61.1272 25.1484L63.5933 20.6913H63.8789L66.4531 25.1484H61.1272Z" fill="#FF0019"/>
</g>
</g>
<defs>
<clipPath id="clip0_5228_38511">
<rect width="96" height="13" fill="white" transform="translate(14 17.5)"/>
</clipPath>
<clipPath id="clip1_5228_38511">
<rect width="96" height="13" fill="white" transform="translate(13.7256 17.5)"/>
</clipPath>
</defs>
</svg>
