<svg width="89" height="28" viewBox="0 0 89 28" fill="none" xmlns="http://www.w3.org/2000/svg">
<rect width="89" height="28" rx="8" fill="#06091A" fill-opacity="0.4"/>
<g clip-path="url(#clip0_3835_13694)">
<path d="M40.3725 8.20259H27.1013V10.9458H31.9491V19.7987H35.5087V10.9458H40.3713V8.20259H40.3725ZM69.7288 8.20259V10.9458H74.5766V19.7987H78.1362V10.9458H82.9988V8.20259H69.7276H69.7288ZM23.5405 12.6468C22.863 12.5398 22.0802 12.4761 21.1847 12.457L19.291 12.4264C16.9736 12.3958 16.6851 11.9117 16.6851 11.4288C16.6851 10.9458 16.882 10.4311 19.6093 10.4311H19.852C22.7912 10.4311 23.0488 11.3663 23.1095 11.8186H26.7756V11.6632C26.7756 10.361 26.1006 8.96199 23.5417 8.33638C22.6723 8.12359 21.5848 8 20.231 8H19.1857C18.1552 8 17.2932 8.0739 16.5699 8.20386V8H15.6608C11.2812 8 9.90518 9.32257 9.59802 10.7879V8.21788C6.78896 8.7492 6.1511 10.1673 6.1511 11.5383V11.6785C6.1511 13.1514 7.00571 14.3963 9.59802 14.8741V12.3831C9.92252 13.8547 11.3753 14.9684 15.0241 15.0754L16.5699 15.1123V14.8855C17.1433 14.9875 17.7998 15.0525 18.5491 15.0741L20.4887 15.1213C23.0946 15.1837 23.4426 15.6195 23.4426 16.2897C23.4426 16.9127 23.1095 17.5205 20.1394 17.5205H19.9276C17.0195 17.5205 16.6244 16.3674 16.5798 15.6819H16.4968V17.5205H16.4039C13.4958 17.5205 13.1007 16.3674 13.0561 15.6819H6V15.8539C6 17.0707 6.43226 18.9807 9.59802 19.7069V17.2198C10.0947 18.5793 11.6094 20.0013 15.963 20.0013H16.5686V19.7248C17.3613 19.8993 18.3224 20.0013 19.4879 20.0013H20.5333C21.7371 20.0013 22.7267 19.9121 23.5405 19.7541C26.5551 19.168 27.1385 17.6301 27.1385 16.1202V15.9023C27.1385 14.0828 26.0721 13.0495 23.5405 12.6481V12.6468ZM16.4956 12.4379L15.766 12.4264C13.4487 12.3958 13.1601 11.9117 13.1601 11.4288C13.1601 10.9458 13.357 10.4311 16.0844 10.4311H16.3271C16.3853 10.4311 16.4411 10.4311 16.4956 10.4324V12.4379ZM66.7328 14.1682V13.7847C67.9466 13.7847 68.9708 12.8596 68.9708 11.3205V11.2109C68.9708 9.543 67.8351 8.20259 64.0773 8.20259H54.9875V19.7974H58.5174V15.6832H63.1224C64.865 15.6832 65.4707 16.3062 65.4707 17.7244V19.7974H69.0154V16.7573C69.0154 15.3417 67.8846 14.1682 66.7315 14.1682H66.7328ZM65.2898 11.9741C65.2898 12.6124 64.8663 13.1119 63.8655 13.1119H58.5174V10.8363H63.8655C64.896 10.8363 65.2898 11.351 65.2898 11.9588V11.9741ZM43.8529 8.20259L38.1567 19.7974H41.7473L42.7629 17.6772H49.5961L50.6563 19.7974H54.4586L48.4281 8.20259H43.8529ZM44.0201 15.0601L45.998 10.9458H46.2272L48.2919 15.0601H44.0201Z" fill="white"/>
</g>
<defs>
<clipPath id="clip0_3835_13694">
<rect width="77" height="12" fill="white" transform="translate(6 8)"/>
</clipPath>
</defs>
</svg>
