<svg width="73" height="48" viewBox="0 0 73 48" fill="none" xmlns="http://www.w3.org/2000/svg">
<rect width="73" height="48" rx="10" fill="#00C7B2"/>
<g clip-path="url(#clip0_5228_38742)">
<path d="M23.076 27.4781L18.6599 18.1484H14L20.8834 32.0593H25.0254C27.2489 27.5613 29.6551 22.8968 32.0001 18.1484H27.5532L23.076 27.4781Z" fill="#F6E6E4"/>
<path d="M37.7723 32.1305C37.7723 33.5203 37.234 34.6262 35.2901 34.6262H32.0005V37.9164H35.6193C39.7763 37.9164 41.7506 35.9029 41.7506 31.9891V18.1484H37.773L37.7723 32.1305Z" fill="#F6E6E4"/>
<path d="M53.4843 18.1484V26.2237C53.4843 28.1 52.5181 29.4364 50.4354 29.4364C48.2919 29.4364 47.2652 28.2135 47.2652 26.2237V18.1484H43.25V26.6213C43.25 30.801 45.8768 32.7914 50.3448 32.7914C54.6316 32.7914 57.5001 30.7727 57.5001 26.5078V18.1484H53.4843Z" fill="#F6E6E4"/>
<path d="M39.3875 10.0938C38.0465 10.0938 37.0031 10.8192 36.5069 11.891C36.0286 10.8192 35.0188 10.0938 33.6981 10.0938C31.7735 10.0938 30.5 11.5452 30.5 13.3737C30.5 15.2022 31.7735 16.6831 33.6981 16.6831C35.0188 16.6831 36.028 15.943 36.5063 14.8625C37.0026 15.9424 38.0465 16.6831 39.3869 16.6831C41.1985 16.6831 42.5001 15.2028 42.5001 13.3737C42.5001 11.5446 41.1985 10.0938 39.3875 10.0938Z" fill="#F6E6E4"/>
<path d="M35.7505 18.1484H32.0005V32.0593H35.7505V18.1484Z" fill="#F6E6E4"/>
</g>
<defs>
<clipPath id="clip0_5228_38742">
<rect width="45" height="29" fill="white" transform="translate(14 9.5)"/>
</clipPath>
</defs>
</svg>
