<svg width="44" height="28" viewBox="0 0 44 28" fill="none" xmlns="http://www.w3.org/2000/svg">
<rect width="44" height="28" rx="8" fill="#06091A" fill-opacity="0.4"/>
<path d="M12.6766 16.6167L9.42798 9.58618H6L11.0636 20.069H14.1106C15.7463 16.6795 17.5164 13.1644 19.2415 9.58618H15.9702L12.6766 16.6167Z" fill="#F7F9FF"/>
<path d="M23.4876 20.1227C23.4876 21.1701 23.0917 22.0034 21.6616 22.0034H19.2417V24.4829H21.9038C24.9619 24.4829 26.4142 22.9655 26.4142 20.0162V9.58618H23.4881L23.4876 20.1227Z" fill="#F7F9FF"/>
<path d="M35.0458 9.58618V15.6715C35.0458 17.0854 34.335 18.0925 32.8029 18.0925C31.2261 18.0925 30.4708 17.171 30.4708 15.6715V9.58618H27.5171V15.9711C27.5171 19.1208 29.4495 20.6208 32.7362 20.6208C35.8897 20.6208 37.9999 19.0995 37.9999 15.8856V9.58618H35.0458Z" fill="#F7F9FF"/>
<path d="M24.6759 3.51709C23.6894 3.51709 22.9219 4.06374 22.5568 4.87146C22.205 4.06374 21.4621 3.51709 20.4906 3.51709C19.0748 3.51709 18.1379 4.61084 18.1379 5.98878C18.1379 7.36671 19.0748 8.48265 20.4906 8.48265C21.4621 8.48265 22.2045 7.92491 22.5564 7.11072C22.9214 7.92445 23.6894 8.48265 24.6754 8.48265C26.0081 8.48265 26.9656 7.36717 26.9656 5.98878C26.9656 4.61038 26.0081 3.51709 24.6759 3.51709Z" fill="#F7F9FF"/>
<path d="M22.0003 9.58618H19.2417V20.069H22.0003V9.58618Z" fill="#F7F9FF"/>
</svg>
