<svg width="13" height="16" viewBox="0 0 13 16" fill="none" xmlns="http://www.w3.org/2000/svg">
<path d="M4.7176 9.57312C5.1727 9.57312 5.54164 9.21047 5.54164 8.76312C5.54164 8.31577 5.1727 7.95312 4.7176 7.95312C4.26249 7.95312 3.89355 8.31577 3.89355 8.76312C3.89355 9.21047 4.26249 9.57312 4.7176 9.57312Z" fill="#F7F9FF"/>
<path d="M10.1512 9.57312C10.6063 9.57312 10.9752 9.21047 10.9752 8.76312C10.9752 8.31577 10.6063 7.95312 10.1512 7.95312C9.69608 7.95312 9.32715 8.31577 9.32715 8.76312C9.32715 9.21047 9.69608 9.57312 10.1512 9.57312Z" fill="#F7F9FF"/>
<path d="M6.91615 15.5876C6.99608 15.5835 7.06773 15.5794 7.1325 15.5727C10.3487 15.3614 12.9104 12.8311 13 9.63722V9.57491V0.40625C12.3909 0.40625 11.983 0.453658 11.1204 1.49257C10.2702 2.51657 9.2491 3.78575 9.2491 3.78575H6.5H3.7509C3.7509 3.78575 2.72981 2.51657 1.87958 1.49257C1.01696 0.453658 0.609074 0.40625 0 0.40625V9.57491V9.61961C0.0964596 12.9517 2.87725 15.5998 6.29054 15.5998C6.48209 15.5998 6.64469 15.5971 6.788 15.593M3.78259 6.70742C4.93873 6.70742 5.87577 7.62849 5.87577 8.76492C5.87577 9.90135 4.93873 10.8224 3.78259 10.8224C2.62646 10.8224 1.6908 9.90271 1.6908 8.76492C1.68942 7.62984 2.62646 6.70742 3.78259 6.70742ZM9.21741 10.8224C8.06127 10.8224 7.12423 9.90271 7.12423 8.76492C7.12423 7.62984 8.06127 6.70742 9.21741 6.70742C10.3735 6.70742 11.3092 7.62849 11.3092 8.76492C11.3106 9.90271 10.3735 10.8224 9.21741 10.8224Z" fill="#F7F9FF"/>
</svg>
