<svg width="94" height="48" viewBox="0 0 94 48" fill="none" xmlns="http://www.w3.org/2000/svg">
<rect width="94" height="48" rx="10" fill="#242424"/>
<path d="M50.5929 21.306H48.2753V23.983H47.0352V17.5859H48.2753V20.1904H50.5929V17.5859H51.833V23.983H50.5929V21.306Z" fill="#F7F9FF"/>
<path d="M56.1577 22.5724H54.2119L53.7323 23.9888H52.4922L54.7739 17.5469H55.6887L57.9703 23.9888H56.6668L56.1598 22.5724H56.1577ZM54.5288 21.5677H55.8872L55.4161 20.1428L55.226 19.1381H55.1816L54.9915 20.1535L54.5309 21.5699L54.5288 21.5677Z" fill="#F7F9FF"/>
<path d="M62.6309 23.7258C62.4386 23.8644 62.1914 23.9647 61.8935 24.0244C61.5957 24.0841 61.2893 24.114 60.9745 24.114C60.5942 24.114 60.233 24.0543 59.8928 23.937C59.5527 23.8175 59.2506 23.6255 58.9928 23.361C58.733 23.0965 58.5259 22.751 58.3738 22.3286C58.2196 21.9063 58.1436 21.3922 58.1436 20.7885C58.1436 20.1849 58.2302 19.6345 58.4013 19.2122C58.5724 18.7877 58.7964 18.4486 59.071 18.1883C59.3457 17.9302 59.652 17.7425 59.99 17.6295C60.3281 17.5164 60.6661 17.4609 61.0041 17.4609C61.3675 17.4609 61.6717 17.4844 61.9231 17.5335C62.1724 17.5825 62.3795 17.6401 62.5421 17.7062L62.2971 18.7664C62.1576 18.7003 61.9928 18.6512 61.8027 18.6213C61.6126 18.5915 61.3823 18.5765 61.1097 18.5765C60.609 18.5765 60.2055 18.7557 59.9013 19.1162C59.5971 19.4767 59.445 20.0356 59.445 20.7928C59.445 21.1213 59.4809 21.4221 59.5527 21.6951C59.6245 21.9681 59.7344 22.2006 59.8823 22.3905C60.0302 22.5825 60.214 22.7318 60.4337 22.8384C60.6534 22.9451 60.909 22.9984 61.1985 22.9984C61.471 22.9984 61.6992 22.9707 61.8851 22.9152C62.0731 22.8619 62.2358 22.7915 62.3731 22.7062L62.6266 23.7236L62.6309 23.7258Z" fill="#F7F9FF"/>
<path d="M67.9528 18.7015H66.1063V23.983H64.8662V18.7015H63.0112V17.5859H67.9528V18.7015Z" fill="#F7F9FF"/>
<path d="M68.7028 17.6557C68.9563 17.6067 69.2352 17.5683 69.5394 17.5405C69.8436 17.5128 70.1479 17.5 70.45 17.5C70.7521 17.5 71.0795 17.5256 71.3964 17.5768C71.7133 17.628 71.9986 17.7325 72.2521 17.8882C72.5056 18.0439 72.7126 18.2594 72.8732 18.5367C73.0317 18.814 73.1119 19.1745 73.1119 19.6203C73.1119 20.0234 73.0422 20.3626 72.9049 20.6399C72.7655 20.9172 72.5817 21.1433 72.3514 21.3203C72.1232 21.4974 71.8612 21.6254 71.5676 21.7043C71.276 21.7832 70.9718 21.8237 70.657 21.8237H70.5112C70.4457 21.8237 70.376 21.8237 70.3042 21.8195C70.2324 21.8152 70.1605 21.8109 70.0908 21.8045C70.0211 21.7981 69.9704 21.7917 69.9408 21.7875V23.9888H68.7007V17.6557H68.7028ZM70.5493 18.5793C70.4288 18.5793 70.3148 18.5836 70.2049 18.5921C70.0972 18.6007 70.0084 18.6113 69.9429 18.6241V20.6975C69.9662 20.7039 70.0042 20.7103 70.0528 20.7167C70.1014 20.7231 70.1521 20.7273 70.207 20.7295C70.2619 20.7337 70.3148 20.7337 70.3655 20.7337H70.4796C70.6422 20.7337 70.8049 20.7188 70.9634 20.6889C71.1218 20.6591 71.2655 20.6015 71.3943 20.5204C71.5211 20.4372 71.6225 20.3242 71.6964 20.177C71.7725 20.032 71.8105 19.8378 71.8105 19.6011C71.8105 19.4006 71.7746 19.2342 71.7028 19.1041C71.631 18.974 71.5359 18.8673 71.4176 18.7884C71.2993 18.7095 71.1662 18.654 71.0141 18.6241C70.8619 18.5943 70.7098 18.5793 70.5514 18.5793H70.5493Z" fill="#F7F9FF"/>
<path d="M73.6906 20.7885C73.6906 19.722 73.923 18.9008 74.3878 18.3248C74.8526 17.7489 75.5159 17.4609 76.3779 17.4609C76.83 17.4609 77.2251 17.5399 77.5631 17.6998C77.9011 17.8577 78.1821 18.0838 78.404 18.376C78.6279 18.6683 78.7927 19.0181 78.9025 19.4276C79.0103 19.835 79.0652 20.2894 79.0652 20.7885C79.0652 21.8551 78.8307 22.6763 78.3638 23.2522C77.8969 23.8282 77.2335 24.1161 76.3758 24.1161C75.9173 24.1161 75.5202 24.0372 75.1821 23.8794C74.8441 23.7215 74.5652 23.4954 74.3455 23.2032C74.1258 22.9109 73.961 22.559 73.8511 22.1516C73.7434 21.7442 73.6885 21.2898 73.6885 20.7907L73.6906 20.7885ZM74.9941 20.7885C74.9941 21.1106 75.0216 21.4093 75.0744 21.6802C75.1293 21.9511 75.2117 22.1836 75.3237 22.3798C75.4357 22.5739 75.5793 22.7275 75.7547 22.8363C75.9279 22.9451 76.1371 23.0005 76.3779 23.0005C76.8195 23.0005 77.1596 22.8256 77.4004 22.4801C77.6413 22.1324 77.7617 21.5692 77.7617 20.7885C77.7617 20.4771 77.7364 20.1891 77.6856 19.9204C77.6349 19.6516 77.5547 19.417 77.4469 19.2165C77.3392 19.0159 77.1976 18.8581 77.0202 18.745C76.8448 18.632 76.6314 18.5765 76.3779 18.5765C75.9385 18.5765 75.5962 18.7536 75.3554 19.1098C75.1145 19.466 74.9941 20.0249 74.9941 20.7864V20.7885Z" fill="#F7F9FF"/>
<path d="M83.7577 20.4411L83.8296 19.6092H83.7852L83.3605 20.4688L80.9986 23.9862H80.0669V17.5891H81.307V21.0703L81.2162 21.9299H81.269L81.7127 21.0426L84.0767 17.5891H85V23.9862H83.7598V20.4411H83.7577ZM81.9915 16C82.0148 16.1941 82.0866 16.3349 82.2049 16.4202C82.3232 16.5055 82.4753 16.5482 82.6613 16.5482C83.0648 16.5482 83.2887 16.369 83.331 16.0085L84.3366 16.1642C84.2711 16.5482 84.0958 16.8276 83.8169 17.0047C83.5359 17.1817 83.1493 17.2692 82.6549 17.2692C82.4077 17.2692 82.1817 17.2521 81.9767 17.2137C81.7718 17.1775 81.5922 17.1177 81.438 17.0345C81.2838 16.9514 81.157 16.8404 81.0577 16.7018C80.9584 16.561 80.8951 16.3882 80.8718 16.1813L81.9937 16H81.9915Z" fill="#F7F9FF"/>
<path d="M48.6006 28.774H48.2753V31.5065H47.0352V25.1094H48.2753V27.9421L48.5647 27.8141L50.3119 25.1094H51.7232L49.8767 27.797L49.3866 28.1447L49.8936 28.501L52.002 31.5086H50.4725L48.5985 28.7761L48.6006 28.774Z" fill="#F7F9FF"/>
<path d="M56.4491 27.9613L56.521 27.1294H56.4766L56.052 27.989L53.69 31.5065H52.7583V25.1094H53.9984V28.5906L53.9076 29.4502H53.9625L54.4062 28.5628L56.7681 25.1094H57.6914V31.5065H56.4512V27.9613H56.4491Z" fill="#F7F9FF"/>
<path d="M62.4493 28.8295H60.1317V31.5065H58.8916V25.1094H60.1317V27.7139H62.4493V25.1094H63.6895V31.5065H62.4493V28.8295Z" fill="#F7F9FF"/>
<path d="M64.6948 28.312C64.6948 27.2454 64.9272 26.4242 65.392 25.8483C65.8568 25.2723 66.5202 24.9844 67.3821 24.9844C67.8364 24.9844 68.2314 25.0633 68.5695 25.2233C68.9075 25.3811 69.1885 25.6072 69.4103 25.8995C69.6321 26.1917 69.799 26.5415 69.9089 26.9511C70.0166 27.3585 70.0716 27.8128 70.0716 28.312C70.0716 29.3785 69.8371 30.1997 69.3702 30.7757C68.9033 31.3516 68.2399 31.6396 67.3821 31.6396C66.9237 31.6396 66.5244 31.5606 66.1885 31.4028C65.8505 31.2449 65.5716 31.0188 65.3519 30.7266C65.1322 30.4344 64.9674 30.0824 64.8575 29.675C64.7476 29.2676 64.6948 28.8132 64.6948 28.3141V28.312ZM65.9983 28.312C65.9983 28.6341 66.0258 28.9327 66.0786 29.2036C66.1336 29.4745 66.2159 29.707 66.3279 29.9032C66.4399 30.0974 66.5836 30.2509 66.7589 30.3597C66.9343 30.4685 67.1413 30.524 67.3821 30.524C67.8237 30.524 68.1638 30.3491 68.4047 30.0035C68.6455 29.6558 68.7659 29.0927 68.7659 28.312C68.7659 28.0005 68.7406 27.7126 68.6878 27.4438C68.6371 27.175 68.5568 26.9404 68.4469 26.7399C68.3392 26.5394 68.1976 26.3815 68.0223 26.2685C67.8469 26.1554 67.6335 26.1 67.38 26.1C66.9406 26.1 66.5983 26.277 66.3575 26.6332C66.1166 26.9895 65.9962 27.5483 65.9962 28.3098L65.9983 28.312Z" fill="#F7F9FF"/>
<path d="M71.3032 30.9049C71.3032 30.6916 71.3687 30.5231 71.5018 30.3973C71.6349 30.2736 71.8103 30.2096 72.0258 30.2096C72.256 30.2096 72.4356 30.2714 72.5687 30.3973C72.7018 30.521 72.7673 30.6916 72.7673 30.9049C72.7673 31.1182 72.7018 31.2889 72.5687 31.4169C72.4356 31.5449 72.256 31.6089 72.0258 31.6089C71.8082 31.6089 71.6328 31.5449 71.5018 31.4169C71.3687 31.2889 71.3032 31.1182 71.3032 30.9049ZM71.4279 25.1094H72.6405V28.1149L72.4039 29.6038H71.6624L71.4279 28.1149V25.1094Z" fill="#F7F9FF"/>
<path d="M21.026 23.9562H12.7127L9 17.25H17.318L21.026 23.9562Z" fill="#F7F9FF"/>
<path d="M21.026 24.9375H12.7127L9 31.6437H17.3132L21.026 24.9375Z" fill="#F7F9FF"/>
<path d="M32.5865 23.9562H24.2733L20.5605 17.25H28.8738L32.5865 23.9562Z" fill="#F7F9FF"/>
<path d="M32.5865 24.9375H24.2733L20.5605 31.6437H28.8738L32.5865 24.9375Z" fill="#F7F9FF"/>
<path d="M44.1427 23.9562H35.8294L32.1167 17.25H40.4347L44.1427 23.9562Z" fill="#F7F9FF"/>
<path d="M44.1475 24.9375H35.8343L32.1216 31.6437H40.4348L44.1475 24.9375Z" fill="#F7F9FF"/>
</svg>
